<mxfile host="Electron" modified="2024-03-22T09:19:39.260Z" agent="Mozilla/5.0 (X11; Linux x86_64) AppleWebKit/537.36 (KHTML, like Gecko) draw.io/24.0.4 Chrome/120.0.6099.109 Electron/28.1.0 Safari/537.36" etag="ngVY0nkYDo-9zuz1-TG0" version="24.0.4" type="device">
  <diagram name="Pagina-1" id="-3UcciMXMhipS0sxFTnm">
    <mxGraphModel dx="2049" dy="1253" grid="1" gridSize="10" guides="1" tooltips="1" connect="1" arrows="1" fold="1" page="1" pageScale="1" pageWidth="827" pageHeight="1169" math="0" shadow="0">
      <root>
        <mxCell id="0" />
        <mxCell id="1" parent="0" />
        <mxCell id="6MsRrpP1h8E8F69nriwY-2" value="" style="ellipse;whiteSpace=wrap;html=1;fillColor=#f5f5f5;fontColor=#333333;strokeColor=#666666;" parent="1" vertex="1">
          <mxGeometry x="1300" y="960" width="80" height="80" as="geometry" />
        </mxCell>
        <mxCell id="qW4fd-eMchWfomqCqG8H-5" value="" style="ellipse;whiteSpace=wrap;html=1;aspect=fixed;fillColor=#ffe6cc;strokeColor=#d79b00;" parent="1" vertex="1">
          <mxGeometry x="980" y="920" width="80" height="80" as="geometry" />
        </mxCell>
        <mxCell id="ZMy1RVDnMmDh1pD7vt_q-1" value="" style="ellipse;whiteSpace=wrap;html=1;aspect=fixed;fillColor=#d5e8d4;strokeColor=#82b366;" parent="1" vertex="1">
          <mxGeometry x="200" y="240" width="80" height="80" as="geometry" />
        </mxCell>
        <mxCell id="ZMy1RVDnMmDh1pD7vt_q-2" value="&lt;p style=&quot;line-height: 100%;&quot;&gt;&lt;br&gt;&lt;/p&gt;" style="ellipse;whiteSpace=wrap;html=1;aspect=fixed;fillColor=#d5e8d4;strokeColor=#82b366;labelPosition=center;verticalLabelPosition=top;align=center;verticalAlign=bottom;spacing=0;labelBackgroundColor=none;labelBorderColor=none;fontColor=default;horizontal=1;" parent="1" vertex="1">
          <mxGeometry x="80" y="240" width="80" height="80" as="geometry" />
        </mxCell>
        <mxCell id="ZMy1RVDnMmDh1pD7vt_q-3" value="" style="ellipse;whiteSpace=wrap;html=1;aspect=fixed;fillColor=#e1d5e7;strokeColor=#9673a6;" parent="1" vertex="1">
          <mxGeometry x="140" y="360" width="80" height="80" as="geometry" />
        </mxCell>
        <mxCell id="ZMy1RVDnMmDh1pD7vt_q-8" value="" style="endArrow=none;html=1;rounded=0;entryX=0;entryY=1;entryDx=0;entryDy=0;exitX=0.5;exitY=0;exitDx=0;exitDy=0;" parent="1" source="ZMy1RVDnMmDh1pD7vt_q-3" target="ZMy1RVDnMmDh1pD7vt_q-1" edge="1">
          <mxGeometry width="50" height="50" relative="1" as="geometry">
            <mxPoint x="100" y="350" as="sourcePoint" />
            <mxPoint x="140" y="390" as="targetPoint" />
          </mxGeometry>
        </mxCell>
        <mxCell id="ZMy1RVDnMmDh1pD7vt_q-9" value="" style="endArrow=none;html=1;rounded=0;entryX=1;entryY=1;entryDx=0;entryDy=0;exitX=0.5;exitY=0;exitDx=0;exitDy=0;" parent="1" source="ZMy1RVDnMmDh1pD7vt_q-3" target="ZMy1RVDnMmDh1pD7vt_q-2" edge="1">
          <mxGeometry width="50" height="50" relative="1" as="geometry">
            <mxPoint x="100" y="360" as="sourcePoint" />
            <mxPoint x="140" y="390" as="targetPoint" />
          </mxGeometry>
        </mxCell>
        <mxCell id="ZMy1RVDnMmDh1pD7vt_q-11" value="YELLOW&lt;br&gt;FUNGUS" style="ellipse;whiteSpace=wrap;html=1;aspect=fixed;fillColor=#d5e8d4;strokeColor=#82b366;gradientColor=#E1D5E7;" parent="1" vertex="1">
          <mxGeometry x="20" y="360" width="80" height="80" as="geometry" />
        </mxCell>
        <mxCell id="ZMy1RVDnMmDh1pD7vt_q-12" value="" style="endArrow=none;html=1;rounded=0;entryX=1;entryY=1;entryDx=0;entryDy=0;exitX=0.5;exitY=0;exitDx=0;exitDy=0;" parent="1" source="ZMy1RVDnMmDh1pD7vt_q-14" target="ZMy1RVDnMmDh1pD7vt_q-11" edge="1">
          <mxGeometry width="50" height="50" relative="1" as="geometry">
            <mxPoint x="20" y="480" as="sourcePoint" />
            <mxPoint x="60" y="360" as="targetPoint" />
          </mxGeometry>
        </mxCell>
        <mxCell id="ZMy1RVDnMmDh1pD7vt_q-13" value="" style="endArrow=none;html=1;rounded=0;exitX=0.5;exitY=0;exitDx=0;exitDy=0;entryX=0;entryY=1;entryDx=0;entryDy=0;" parent="1" source="ZMy1RVDnMmDh1pD7vt_q-14" target="ZMy1RVDnMmDh1pD7vt_q-3" edge="1">
          <mxGeometry width="50" height="50" relative="1" as="geometry">
            <mxPoint x="20" y="480" as="sourcePoint" />
            <mxPoint x="100" y="440" as="targetPoint" />
          </mxGeometry>
        </mxCell>
        <mxCell id="ZMy1RVDnMmDh1pD7vt_q-14" value="ORANGE&lt;br&gt;FUNGUS" style="ellipse;whiteSpace=wrap;html=1;aspect=fixed;fillColor=#e1d5e7;strokeColor=#9673a6;" parent="1" vertex="1">
          <mxGeometry x="80" y="480" width="80" height="80" as="geometry" />
        </mxCell>
        <mxCell id="ZMy1RVDnMmDh1pD7vt_q-15" value="" style="ellipse;whiteSpace=wrap;html=1;aspect=fixed;fillColor=#e1d5e7;strokeColor=#82B366;gradientDirection=north;gradientColor=#D5E8D4;" parent="1" vertex="1">
          <mxGeometry x="260" y="360" width="80" height="80" as="geometry" />
        </mxCell>
        <mxCell id="ZMy1RVDnMmDh1pD7vt_q-16" value="" style="endArrow=none;html=1;rounded=0;exitX=1;exitY=1;exitDx=0;exitDy=0;entryX=0.5;entryY=0;entryDx=0;entryDy=0;" parent="1" source="ZMy1RVDnMmDh1pD7vt_q-3" target="ZMy1RVDnMmDh1pD7vt_q-18" edge="1">
          <mxGeometry width="50" height="50" relative="1" as="geometry">
            <mxPoint x="110" y="440" as="sourcePoint" />
            <mxPoint x="180" y="470" as="targetPoint" />
          </mxGeometry>
        </mxCell>
        <mxCell id="ZMy1RVDnMmDh1pD7vt_q-17" value="" style="endArrow=none;html=1;rounded=0;entryX=0;entryY=1;entryDx=0;entryDy=0;exitX=0.5;exitY=0;exitDx=0;exitDy=0;" parent="1" source="ZMy1RVDnMmDh1pD7vt_q-18" target="ZMy1RVDnMmDh1pD7vt_q-15" edge="1">
          <mxGeometry width="50" height="50" relative="1" as="geometry">
            <mxPoint x="170" y="440" as="sourcePoint" />
            <mxPoint x="220" y="390" as="targetPoint" />
          </mxGeometry>
        </mxCell>
        <mxCell id="ZMy1RVDnMmDh1pD7vt_q-18" value="" style="ellipse;whiteSpace=wrap;html=1;aspect=fixed;fillColor=#e1d5e7;strokeColor=#9673a6;" parent="1" vertex="1">
          <mxGeometry x="200" y="480" width="80" height="80" as="geometry" />
        </mxCell>
        <mxCell id="ZMy1RVDnMmDh1pD7vt_q-19" value="" style="ellipse;whiteSpace=wrap;html=1;aspect=fixed;fillColor=#d5e8d4;strokeColor=#82b366;" parent="1" vertex="1">
          <mxGeometry x="440" y="240" width="80" height="80" as="geometry" />
        </mxCell>
        <mxCell id="ZMy1RVDnMmDh1pD7vt_q-20" value="" style="ellipse;whiteSpace=wrap;html=1;aspect=fixed;fillColor=#d5e8d4;strokeColor=#82b366;" parent="1" vertex="1">
          <mxGeometry x="380" y="360" width="80" height="80" as="geometry" />
        </mxCell>
        <mxCell id="ZMy1RVDnMmDh1pD7vt_q-22" value="" style="endArrow=none;html=1;rounded=0;entryX=0;entryY=1;entryDx=0;entryDy=0;exitX=0.5;exitY=0;exitDx=0;exitDy=0;" parent="1" source="ZMy1RVDnMmDh1pD7vt_q-24" target="ZMy1RVDnMmDh1pD7vt_q-20" edge="1">
          <mxGeometry width="50" height="50" relative="1" as="geometry">
            <mxPoint x="330" y="470" as="sourcePoint" />
            <mxPoint x="380" y="420" as="targetPoint" />
          </mxGeometry>
        </mxCell>
        <mxCell id="ZMy1RVDnMmDh1pD7vt_q-23" value="" style="endArrow=none;html=1;rounded=0;entryX=1;entryY=1;entryDx=0;entryDy=0;exitX=0.5;exitY=0;exitDx=0;exitDy=0;" parent="1" source="ZMy1RVDnMmDh1pD7vt_q-24" target="ZMy1RVDnMmDh1pD7vt_q-15" edge="1">
          <mxGeometry width="50" height="50" relative="1" as="geometry">
            <mxPoint x="310" y="480" as="sourcePoint" />
            <mxPoint x="380" y="420" as="targetPoint" />
          </mxGeometry>
        </mxCell>
        <mxCell id="ZMy1RVDnMmDh1pD7vt_q-24" value="CYAN&lt;br&gt;FUNGUS" style="ellipse;whiteSpace=wrap;html=1;aspect=fixed;fillColor=#e1d5e7;strokeColor=#9673a6;" parent="1" vertex="1">
          <mxGeometry x="320" y="480" width="80" height="80" as="geometry" />
        </mxCell>
        <mxCell id="ZMy1RVDnMmDh1pD7vt_q-29" value="" style="ellipse;whiteSpace=wrap;html=1;aspect=fixed;fillColor=#d5e8d4;strokeColor=#82b366;" parent="1" vertex="1">
          <mxGeometry x="560" y="240" width="80" height="80" as="geometry" />
        </mxCell>
        <mxCell id="ZMy1RVDnMmDh1pD7vt_q-31" value="" style="endArrow=none;html=1;rounded=0;exitX=0.5;exitY=0;exitDx=0;exitDy=0;entryX=0;entryY=1;entryDx=0;entryDy=0;" parent="1" source="ZMy1RVDnMmDh1pD7vt_q-33" target="ZMy1RVDnMmDh1pD7vt_q-29" edge="1">
          <mxGeometry width="50" height="50" relative="1" as="geometry">
            <mxPoint x="620" y="320" as="sourcePoint" />
            <mxPoint x="670" y="270" as="targetPoint" />
          </mxGeometry>
        </mxCell>
        <mxCell id="ZMy1RVDnMmDh1pD7vt_q-32" value="" style="endArrow=none;html=1;rounded=0;entryX=1;entryY=1;entryDx=0;entryDy=0;exitX=0.5;exitY=0;exitDx=0;exitDy=0;" parent="1" source="ZMy1RVDnMmDh1pD7vt_q-33" target="ZMy1RVDnMmDh1pD7vt_q-19" edge="1">
          <mxGeometry width="50" height="50" relative="1" as="geometry">
            <mxPoint x="600" y="340" as="sourcePoint" />
            <mxPoint x="571.7157287525381" y="308.2842712474619" as="targetPoint" />
          </mxGeometry>
        </mxCell>
        <mxCell id="ZMy1RVDnMmDh1pD7vt_q-33" value="" style="ellipse;whiteSpace=wrap;html=1;aspect=fixed;fillColor=#e1d5e7;strokeColor=#9673a6;" parent="1" vertex="1">
          <mxGeometry x="500" y="360" width="80" height="80" as="geometry" />
        </mxCell>
        <mxCell id="ZMy1RVDnMmDh1pD7vt_q-34" value="" style="endArrow=none;html=1;rounded=0;entryX=0;entryY=1;entryDx=0;entryDy=0;exitX=0.5;exitY=0;exitDx=0;exitDy=0;" parent="1" source="ZMy1RVDnMmDh1pD7vt_q-36" target="ZMy1RVDnMmDh1pD7vt_q-33" edge="1">
          <mxGeometry width="50" height="50" relative="1" as="geometry">
            <mxPoint x="560" y="430" as="sourcePoint" />
            <mxPoint x="610" y="380" as="targetPoint" />
          </mxGeometry>
        </mxCell>
        <mxCell id="ZMy1RVDnMmDh1pD7vt_q-35" value="" style="endArrow=none;html=1;rounded=0;entryX=1;entryY=1;entryDx=0;entryDy=0;exitX=0.5;exitY=0;exitDx=0;exitDy=0;" parent="1" source="ZMy1RVDnMmDh1pD7vt_q-36" target="ZMy1RVDnMmDh1pD7vt_q-20" edge="1">
          <mxGeometry width="50" height="50" relative="1" as="geometry">
            <mxPoint x="500" y="460" as="sourcePoint" />
            <mxPoint x="610" y="380" as="targetPoint" />
          </mxGeometry>
        </mxCell>
        <mxCell id="ZMy1RVDnMmDh1pD7vt_q-36" value="LIME&lt;br&gt;FUNGUS&lt;br&gt;&amp;lt;&amp;lt;warped&amp;gt;&amp;gt;" style="ellipse;whiteSpace=wrap;html=1;aspect=fixed;fillColor=#e1d5e7;strokeColor=#9673a6;" parent="1" vertex="1">
          <mxGeometry x="440" y="480" width="80" height="80" as="geometry" />
        </mxCell>
        <mxCell id="ZMy1RVDnMmDh1pD7vt_q-37" value="" style="endArrow=none;html=1;rounded=0;entryX=0.5;entryY=1;entryDx=0;entryDy=0;" parent="1" target="ZMy1RVDnMmDh1pD7vt_q-33" edge="1">
          <mxGeometry width="50" height="50" relative="1" as="geometry">
            <mxPoint x="540" y="700" as="sourcePoint" />
            <mxPoint x="470" y="440" as="targetPoint" />
          </mxGeometry>
        </mxCell>
        <mxCell id="ZMy1RVDnMmDh1pD7vt_q-38" value="" style="endArrow=none;html=1;rounded=0;entryX=0.5;entryY=1;entryDx=0;entryDy=0;" parent="1" target="ZMy1RVDnMmDh1pD7vt_q-15" edge="1">
          <mxGeometry width="50" height="50" relative="1" as="geometry">
            <mxPoint x="300" y="580" as="sourcePoint" />
            <mxPoint x="470" y="440" as="targetPoint" />
          </mxGeometry>
        </mxCell>
        <mxCell id="ZMy1RVDnMmDh1pD7vt_q-39" value="" style="endArrow=none;html=1;rounded=0;" parent="1" edge="1">
          <mxGeometry width="50" height="50" relative="1" as="geometry">
            <mxPoint x="300" y="580" as="sourcePoint" />
            <mxPoint x="540" y="580" as="targetPoint" />
          </mxGeometry>
        </mxCell>
        <mxCell id="ZMy1RVDnMmDh1pD7vt_q-40" value="" style="endArrow=none;html=1;rounded=0;exitX=0.5;exitY=0;exitDx=0;exitDy=0;" parent="1" source="ZMy1RVDnMmDh1pD7vt_q-41" edge="1">
          <mxGeometry width="50" height="50" relative="1" as="geometry">
            <mxPoint x="420" y="610" as="sourcePoint" />
            <mxPoint x="420" y="580" as="targetPoint" />
          </mxGeometry>
        </mxCell>
        <mxCell id="ZMy1RVDnMmDh1pD7vt_q-41" value="" style="ellipse;whiteSpace=wrap;html=1;aspect=fixed;fillColor=#e1d5e7;strokeColor=#9673a6;" parent="1" vertex="1">
          <mxGeometry x="380" y="600" width="80" height="80" as="geometry" />
        </mxCell>
        <mxCell id="ZMy1RVDnMmDh1pD7vt_q-42" value="" style="endArrow=none;html=1;rounded=0;exitX=0.5;exitY=1;exitDx=0;exitDy=0;" parent="1" source="ZMy1RVDnMmDh1pD7vt_q-3" edge="1">
          <mxGeometry width="50" height="50" relative="1" as="geometry">
            <mxPoint x="340" y="520" as="sourcePoint" />
            <mxPoint x="180" y="700" as="targetPoint" />
          </mxGeometry>
        </mxCell>
        <mxCell id="ZMy1RVDnMmDh1pD7vt_q-44" value="" style="endArrow=none;html=1;rounded=0;" parent="1" edge="1">
          <mxGeometry width="50" height="50" relative="1" as="geometry">
            <mxPoint x="180" y="700" as="sourcePoint" />
            <mxPoint x="540" y="700" as="targetPoint" />
          </mxGeometry>
        </mxCell>
        <mxCell id="ZMy1RVDnMmDh1pD7vt_q-45" value="" style="endArrow=none;html=1;rounded=0;exitX=0.5;exitY=0;exitDx=0;exitDy=0;" parent="1" source="ZMy1RVDnMmDh1pD7vt_q-46" edge="1">
          <mxGeometry width="50" height="50" relative="1" as="geometry">
            <mxPoint x="360" y="740" as="sourcePoint" />
            <mxPoint x="360" y="700" as="targetPoint" />
          </mxGeometry>
        </mxCell>
        <mxCell id="ZMy1RVDnMmDh1pD7vt_q-46" value="" style="ellipse;whiteSpace=wrap;html=1;aspect=fixed;fillColor=#e1d5e7;strokeColor=#9673a6;" parent="1" vertex="1">
          <mxGeometry x="320" y="720" width="80" height="80" as="geometry" />
        </mxCell>
        <mxCell id="ZMy1RVDnMmDh1pD7vt_q-47" value="" style="endArrow=none;html=1;rounded=0;entryX=0.5;entryY=1;entryDx=0;entryDy=0;" parent="1" target="ZMy1RVDnMmDh1pD7vt_q-18" edge="1">
          <mxGeometry width="50" height="50" relative="1" as="geometry">
            <mxPoint x="240" y="820" as="sourcePoint" />
            <mxPoint x="250" y="590" as="targetPoint" />
          </mxGeometry>
        </mxCell>
        <mxCell id="ZMy1RVDnMmDh1pD7vt_q-48" value="" style="endArrow=none;html=1;rounded=0;entryX=0.5;entryY=1;entryDx=0;entryDy=0;" parent="1" target="ZMy1RVDnMmDh1pD7vt_q-46" edge="1">
          <mxGeometry width="50" height="50" relative="1" as="geometry">
            <mxPoint x="360" y="820" as="sourcePoint" />
            <mxPoint x="420" y="810" as="targetPoint" />
          </mxGeometry>
        </mxCell>
        <mxCell id="ZMy1RVDnMmDh1pD7vt_q-49" value="" style="endArrow=none;html=1;rounded=0;" parent="1" edge="1">
          <mxGeometry width="50" height="50" relative="1" as="geometry">
            <mxPoint x="240" y="820" as="sourcePoint" />
            <mxPoint x="360" y="820" as="targetPoint" />
          </mxGeometry>
        </mxCell>
        <mxCell id="ZMy1RVDnMmDh1pD7vt_q-50" value="" style="endArrow=none;html=1;rounded=0;exitX=0.5;exitY=0;exitDx=0;exitDy=0;" parent="1" source="ZMy1RVDnMmDh1pD7vt_q-51" edge="1">
          <mxGeometry width="50" height="50" relative="1" as="geometry">
            <mxPoint x="300" y="880" as="sourcePoint" />
            <mxPoint x="300" y="820" as="targetPoint" />
          </mxGeometry>
        </mxCell>
        <mxCell id="ZMy1RVDnMmDh1pD7vt_q-51" value="MAGENTA&lt;br&gt;FUNGUS&lt;br&gt;&amp;lt;&amp;lt;crimson&amp;gt;&amp;gt;" style="ellipse;whiteSpace=wrap;html=1;aspect=fixed;fillColor=#e1d5e7;strokeColor=#9673a6;" parent="1" vertex="1">
          <mxGeometry x="260" y="840" width="80" height="80" as="geometry" />
        </mxCell>
        <mxCell id="ZMy1RVDnMmDh1pD7vt_q-52" value="LIGHTGREY&lt;br&gt;FUNGUS" style="ellipse;whiteSpace=wrap;html=1;aspect=fixed;fillColor=#e1d5e7;strokeColor=#9673a6;" parent="1" vertex="1">
          <mxGeometry x="560" y="480" width="80" height="80" as="geometry" />
        </mxCell>
        <mxCell id="ZMy1RVDnMmDh1pD7vt_q-53" value="GREY&lt;br&gt;FUNGUS" style="ellipse;whiteSpace=wrap;html=1;aspect=fixed;fillColor=#e1d5e7;strokeColor=#9673a6;" parent="1" vertex="1">
          <mxGeometry x="620" y="360" width="80" height="80" as="geometry" />
        </mxCell>
        <mxCell id="ZMy1RVDnMmDh1pD7vt_q-54" value="" style="endArrow=none;html=1;rounded=0;entryX=1;entryY=1;entryDx=0;entryDy=0;exitX=0.5;exitY=0;exitDx=0;exitDy=0;" parent="1" source="ZMy1RVDnMmDh1pD7vt_q-52" target="ZMy1RVDnMmDh1pD7vt_q-33" edge="1">
          <mxGeometry width="50" height="50" relative="1" as="geometry">
            <mxPoint x="599.9999999999998" y="480" as="sourcePoint" />
            <mxPoint x="560" y="480" as="targetPoint" />
          </mxGeometry>
        </mxCell>
        <mxCell id="ZMy1RVDnMmDh1pD7vt_q-55" value="" style="endArrow=none;html=1;rounded=0;entryX=0;entryY=1;entryDx=0;entryDy=0;exitX=0.5;exitY=0;exitDx=0;exitDy=0;" parent="1" source="ZMy1RVDnMmDh1pD7vt_q-52" target="ZMy1RVDnMmDh1pD7vt_q-53" edge="1">
          <mxGeometry width="50" height="50" relative="1" as="geometry">
            <mxPoint x="599.9999999999998" y="480" as="sourcePoint" />
            <mxPoint x="560" y="480" as="targetPoint" />
          </mxGeometry>
        </mxCell>
        <mxCell id="ZMy1RVDnMmDh1pD7vt_q-57" value="" style="ellipse;whiteSpace=wrap;html=1;aspect=fixed;fillColor=#d5e8d4;strokeColor=#82b366;" parent="1" vertex="1">
          <mxGeometry x="314" y="240" width="80" height="80" as="geometry" />
        </mxCell>
        <mxCell id="ZMy1RVDnMmDh1pD7vt_q-58" value="" style="ellipse;whiteSpace=wrap;html=1;aspect=fixed;fillColor=#d5e8d4;strokeColor=#82b366;" parent="1" vertex="1">
          <mxGeometry x="800" y="240" width="80" height="80" as="geometry" />
        </mxCell>
        <mxCell id="ZMy1RVDnMmDh1pD7vt_q-59" value="" style="ellipse;whiteSpace=wrap;html=1;aspect=fixed;fillColor=#d5e8d4;strokeColor=#82b366;" parent="1" vertex="1">
          <mxGeometry x="680" y="240" width="80" height="80" as="geometry" />
        </mxCell>
        <mxCell id="a69XyjW4eeoKky3h_jZg-1" value="Overworld natives" style="rounded=1;whiteSpace=wrap;html=1;fillColor=#d5e8d4;strokeColor=#82b366;" parent="1" vertex="1">
          <mxGeometry x="400" y="960" width="60" height="40" as="geometry" />
        </mxCell>
        <mxCell id="a69XyjW4eeoKky3h_jZg-2" value="Colors branch" style="rounded=1;whiteSpace=wrap;html=1;fillColor=#e1d5e7;strokeColor=#9673a6;" parent="1" vertex="1">
          <mxGeometry x="540" y="960" width="60" height="40" as="geometry" />
        </mxCell>
        <mxCell id="mb0kdLQjRBN_iIwWdxhV-89" value="Chalciporus piperatus" style="shape=image;verticalLabelPosition=top;labelBackgroundColor=none;verticalAlign=bottom;aspect=fixed;imageAspect=0;image=data:image/svg+xml,PHN2ZyB4bWxucz0iaHR0cDovL3d3dy53My5vcmcvMjAwMC9zdmciIGhlaWdodD0iMTYiIHdpZHRoPSIxNiIgdmlld0JveD0iMCAwIDE2IDE2Ij48cmVjdCBmaWxsPSIjNTMyYTA5IiBoZWlnaHQ9IjEiIHdpZHRoPSIxIiB5PSI4IiB4PSIzIi8+PHJlY3QgZmlsbD0iIzQ5MjUwOCIgaGVpZ2h0PSIxIiB3aWR0aD0iMSIgeT0iOSIgeD0iMyIvPjxyZWN0IGZpbGw9IiM3MjNhMGMiIGhlaWdodD0iMSIgd2lkdGg9IjEiIHk9IjgiIHg9IjQiLz48cmVjdCBmaWxsPSIjNTMyYTA5IiBoZWlnaHQ9IjEiIHdpZHRoPSIxIiB5PSI5IiB4PSI0Ii8+PHJlY3QgZmlsbD0iIzQ5MjUwOCIgaGVpZ2h0PSIxIiB3aWR0aD0iMSIgeT0iMTAiIHg9IjQiLz48cmVjdCBmaWxsPSIjOGU2YzI0IiBoZWlnaHQ9IjEiIHdpZHRoPSIxIiB5PSI1IiB4PSI1Ii8+PHJlY3QgZmlsbD0iIzY0MzMwYiIgaGVpZ2h0PSIxIiB3aWR0aD0iMSIgeT0iNiIgeD0iNSIvPjxyZWN0IGZpbGw9IiM1YjJlMDkiIGhlaWdodD0iMSIgd2lkdGg9IjEiIHk9IjciIHg9IjUiLz48cmVjdCBmaWxsPSIjODE0MjBlIiBoZWlnaHQ9IjEiIHdpZHRoPSIxIiB5PSI4IiB4PSI1Ii8+PHJlY3QgZmlsbD0iIzViMmUwOSIgaGVpZ2h0PSIxIiB3aWR0aD0iMSIgeT0iOSIgeD0iNSIvPjxyZWN0IGZpbGw9IiM1MzJhMDkiIGhlaWdodD0iMSIgd2lkdGg9IjEiIHk9IjEwIiB4PSI1Ii8+PHJlY3QgZmlsbD0iIzgxNDIwZSIgaGVpZ2h0PSIxIiB3aWR0aD0iMSIgeT0iNCIgeD0iNiIvPjxyZWN0IGZpbGw9IiM2NDMzMGIiIGhlaWdodD0iMSIgd2lkdGg9IjEiIHk9IjUiIHg9IjYiLz48cmVjdCBmaWxsPSIjNjQzMzBiIiBoZWlnaHQ9IjEiIHdpZHRoPSIxIiB5PSI2IiB4PSI2Ii8+PHJlY3QgZmlsbD0iIzZhMzYwYiIgaGVpZ2h0PSIxIiB3aWR0aD0iMSIgeT0iNyIgeD0iNiIvPjxyZWN0IGZpbGw9IiM4MTQyMGUiIGhlaWdodD0iMSIgd2lkdGg9IjEiIHk9IjgiIHg9IjYiLz48cmVjdCBmaWxsPSIjNWIyZTA5IiBoZWlnaHQ9IjEiIHdpZHRoPSIxIiB5PSI5IiB4PSI2Ii8+PHJlY3QgZmlsbD0iIzUzMmEwOSIgaGVpZ2h0PSIxIiB3aWR0aD0iMSIgeT0iMTAiIHg9IjYiLz48cmVjdCBmaWxsPSIjODE0MjBlIiBoZWlnaHQ9IjEiIHdpZHRoPSIxIiB5PSI0IiB4PSI3Ii8+PHJlY3QgZmlsbD0iIzgxNDIwZSIgaGVpZ2h0PSIxIiB3aWR0aD0iMSIgeT0iNSIgeD0iNyIvPjxyZWN0IGZpbGw9IiM4MTQyMGUiIGhlaWdodD0iMSIgd2lkdGg9IjEiIHk9IjYiIHg9IjciLz48cmVjdCBmaWxsPSIjNmEzNjBiIiBoZWlnaHQ9IjEiIHdpZHRoPSIxIiB5PSI3IiB4PSI3Ii8+PHJlY3QgZmlsbD0iIzcyM2EwYyIgaGVpZ2h0PSIxIiB3aWR0aD0iMSIgeT0iOCIgeD0iNyIvPjxyZWN0IGZpbGw9IiM1YjJlMDkiIGhlaWdodD0iMSIgd2lkdGg9IjEiIHk9IjkiIHg9IjciLz48cmVjdCBmaWxsPSIjNDkyNTA4IiBoZWlnaHQ9IjEiIHdpZHRoPSIxIiB5PSIxMCIgeD0iNyIvPjxyZWN0IGZpbGw9IiM1OTQ1MTYiIGhlaWdodD0iMSIgd2lkdGg9IjEiIHk9IjExIiB4PSI3Ii8+PHJlY3QgZmlsbD0iIzcwNTcxYyIgaGVpZ2h0PSIxIiB3aWR0aD0iMSIgeT0iMTIiIHg9IjciLz48cmVjdCBmaWxsPSIjN2E1ZjFmIiBoZWlnaHQ9IjEiIHdpZHRoPSIxIiB5PSIxMyIgeD0iNyIvPjxyZWN0IGZpbGw9IiM4NjY4MjIiIGhlaWdodD0iMSIgd2lkdGg9IjEiIHk9IjE0IiB4PSI3Ii8+PHJlY3QgZmlsbD0iIzdhNWYxZiIgaGVpZ2h0PSIxIiB3aWR0aD0iMSIgeT0iMTUiIHg9IjciLz48cmVjdCBmaWxsPSIjNzIzYTBjIiBoZWlnaHQ9IjEiIHdpZHRoPSIxIiB5PSI0IiB4PSI4Ii8+PHJlY3QgZmlsbD0iIzcyM2EwYyIgaGVpZ2h0PSIxIiB3aWR0aD0iMSIgeT0iNSIgeD0iOCIvPjxyZWN0IGZpbGw9IiM2NDMzMGIiIGhlaWdodD0iMSIgd2lkdGg9IjEiIHk9IjYiIHg9IjgiLz48cmVjdCBmaWxsPSIjNjQzMzBiIiBoZWlnaHQ9IjEiIHdpZHRoPSIxIiB5PSI3IiB4PSI4Ii8+PHJlY3QgZmlsbD0iIzViMmUwOSIgaGVpZ2h0PSIxIiB3aWR0aD0iMSIgeT0iOCIgeD0iOCIvPjxyZWN0IGZpbGw9IiM1MzJhMDkiIGhlaWdodD0iMSIgd2lkdGg9IjEiIHk9IjkiIHg9IjgiLz48cmVjdCBmaWxsPSIjNDkyNTA4IiBoZWlnaHQ9IjEiIHdpZHRoPSIxIiB5PSIxMCIgeD0iOCIvPjxyZWN0IGZpbGw9IiM2NDRlMTkiIGhlaWdodD0iMSIgd2lkdGg9IjEiIHk9IjExIiB4PSI4Ii8+PHJlY3QgZmlsbD0iIzZlNTUxYyIgaGVpZ2h0PSIxIiB3aWR0aD0iMSIgeT0iMTIiIHg9IjgiLz48cmVjdCBmaWxsPSIjODY2ODIyIiBoZWlnaHQ9IjEiIHdpZHRoPSIxIiB5PSIxMyIgeD0iOCIvPjxyZWN0IGZpbGw9IiM3YTVmMWYiIGhlaWdodD0iMSIgd2lkdGg9IjEiIHk9IjE0IiB4PSI4Ii8+PHJlY3QgZmlsbD0iIzZlNTUxYyIgaGVpZ2h0PSIxIiB3aWR0aD0iMSIgeT0iMTUiIHg9IjgiLz48cmVjdCBmaWxsPSIjOGU2YzI0IiBoZWlnaHQ9IjEiIHdpZHRoPSIxIiB5PSI0IiB4PSI5Ii8+PHJlY3QgZmlsbD0iIzcyM2EwYyIgaGVpZ2h0PSIxIiB3aWR0aD0iMSIgeT0iNSIgeD0iOSIvPjxyZWN0IGZpbGw9IiM4ZTZjMjQiIGhlaWdodD0iMSIgd2lkdGg9IjEiIHk9IjYiIHg9IjkiLz48cmVjdCBmaWxsPSIjNjQzMzBiIiBoZWlnaHQ9IjEiIHdpZHRoPSIxIiB5PSI3IiB4PSI5Ii8+PHJlY3QgZmlsbD0iIzUzMmEwOSIgaGVpZ2h0PSIxIiB3aWR0aD0iMSIgeT0iOCIgeD0iOSIvPjxyZWN0IGZpbGw9IiM1MzJhMDkiIGhlaWdodD0iMSIgd2lkdGg9IjEiIHk9IjkiIHg9IjkiLz48cmVjdCBmaWxsPSIjNTMyYTA5IiBoZWlnaHQ9IjEiIHdpZHRoPSIxIiB5PSIxMCIgeD0iOSIvPjxyZWN0IGZpbGw9IiM2YTM2MGIiIGhlaWdodD0iMSIgd2lkdGg9IjEiIHk9IjUiIHg9IjEwIi8+PHJlY3QgZmlsbD0iIzZhMzYwYiIgaGVpZ2h0PSIxIiB3aWR0aD0iMSIgeT0iNiIgeD0iMTAiLz48cmVjdCBmaWxsPSIjNWIyZTA5IiBoZWlnaHQ9IjEiIHdpZHRoPSIxIiB5PSI3IiB4PSIxMCIvPjxyZWN0IGZpbGw9IiM1MzJhMDkiIGhlaWdodD0iMSIgd2lkdGg9IjEiIHk9IjgiIHg9IjEwIi8+PHJlY3QgZmlsbD0iIzViMmUwOSIgaGVpZ2h0PSIxIiB3aWR0aD0iMSIgeT0iOSIgeD0iMTAiLz48cmVjdCBmaWxsPSIjNTMyYTA5IiBoZWlnaHQ9IjEiIHdpZHRoPSIxIiB5PSIxMCIgeD0iMTAiLz48cmVjdCBmaWxsPSIjN2U0MTBkIiBoZWlnaHQ9IjEiIHdpZHRoPSIxIiB5PSI4IiB4PSIxMSIvPjxyZWN0IGZpbGw9IiM1YjJlMDkiIGhlaWdodD0iMSIgd2lkdGg9IjEiIHk9IjkiIHg9IjExIi8+PHJlY3QgZmlsbD0iIzQ5MjUwOCIgaGVpZ2h0PSIxIiB3aWR0aD0iMSIgeT0iMTAiIHg9IjExIi8+PHJlY3QgZmlsbD0iIzViMmUwOSIgaGVpZ2h0PSIxIiB3aWR0aD0iMSIgeT0iOCIgeD0iMTIiLz48cmVjdCBmaWxsPSIjNDkyNTA4IiBoZWlnaHQ9IjEiIHdpZHRoPSIxIiB5PSI5IiB4PSIxMiIvPjwvc3ZnPg==;labelPosition=center;align=center;spacing=0;" parent="1" vertex="1">
          <mxGeometry x="80" y="240" width="80" height="80" as="geometry" />
        </mxCell>
        <mxCell id="mb0kdLQjRBN_iIwWdxhV-90" value="Amanita muscaria" style="shape=image;verticalLabelPosition=top;labelBackgroundColor=default;verticalAlign=bottom;aspect=fixed;imageAspect=0;image=data:image/svg+xml,PHN2ZyB4bWxucz0iaHR0cDovL3d3dy53My5vcmcvMjAwMC9zdmciIGhlaWdodD0iMTYiIHdpZHRoPSIxNiIgdmlld0JveD0iMCAwIDE2IDE2Ij48cmVjdCBmaWxsPSIjYzEzZTE2IiBoZWlnaHQ9IjEiIHdpZHRoPSIxIiB5PSI3IiB4PSIzIi8+PHJlY3QgZmlsbD0iI2I2M2ExNSIgaGVpZ2h0PSIxIiB3aWR0aD0iMSIgeT0iOCIgeD0iMyIvPjxyZWN0IGZpbGw9IiM5ZjMzMTIiIGhlaWdodD0iMSIgd2lkdGg9IjEiIHk9IjkiIHg9IjMiLz48cmVjdCBmaWxsPSIjOWYzMzEyIiBoZWlnaHQ9IjEiIHdpZHRoPSIxIiB5PSIxMCIgeD0iMyIvPjxyZWN0IGZpbGw9IiNkNTkzNWUiIGhlaWdodD0iMSIgd2lkdGg9IjEiIHk9IjciIHg9IjQiLz48cmVjdCBmaWxsPSIjYzEzZTE2IiBoZWlnaHQ9IjEiIHdpZHRoPSIxIiB5PSI4IiB4PSI0Ii8+PHJlY3QgZmlsbD0iI2I2M2ExNSIgaGVpZ2h0PSIxIiB3aWR0aD0iMSIgeT0iOSIgeD0iNCIvPjxyZWN0IGZpbGw9IiM5ZjMzMTIiIGhlaWdodD0iMSIgd2lkdGg9IjEiIHk9IjEwIiB4PSI0Ii8+PHJlY3QgZmlsbD0iI2QyNDMxOCIgaGVpZ2h0PSIxIiB3aWR0aD0iMSIgeT0iNyIgeD0iNSIvPjxyZWN0IGZpbGw9IiNkMjQzMTgiIGhlaWdodD0iMSIgd2lkdGg9IjEiIHk9IjgiIHg9IjUiLz48cmVjdCBmaWxsPSIjYjYzYTE1IiBoZWlnaHQ9IjEiIHdpZHRoPSIxIiB5PSI5IiB4PSI1Ii8+PHJlY3QgZmlsbD0iIzlmMzMxMiIgaGVpZ2h0PSIxIiB3aWR0aD0iMSIgeT0iMTAiIHg9IjUiLz48cmVjdCBmaWxsPSIjZDI0MzE4IiBoZWlnaHQ9IjEiIHdpZHRoPSIxIiB5PSI3IiB4PSI2Ii8+PHJlY3QgZmlsbD0iI2QyNDMxOCIgaGVpZ2h0PSIxIiB3aWR0aD0iMSIgeT0iOCIgeD0iNiIvPjxyZWN0IGZpbGw9IiNkNTkzNWUiIGhlaWdodD0iMSIgd2lkdGg9IjEiIHk9IjkiIHg9IjYiLz48cmVjdCBmaWxsPSIjZmJmYmZiIiBoZWlnaHQ9IjEiIHdpZHRoPSIxIiB5PSIxMCIgeD0iNiIvPjxyZWN0IGZpbGw9IiNkMjQzMTgiIGhlaWdodD0iMSIgd2lkdGg9IjEiIHk9IjciIHg9IjciLz48cmVjdCBmaWxsPSIjZDI0MzE4IiBoZWlnaHQ9IjEiIHdpZHRoPSIxIiB5PSI4IiB4PSI3Ii8+PHJlY3QgZmlsbD0iI2ZiZmJmYiIgaGVpZ2h0PSIxIiB3aWR0aD0iMSIgeT0iOSIgeD0iNyIvPjxyZWN0IGZpbGw9IiNmYmZiZmIiIGhlaWdodD0iMSIgd2lkdGg9IjEiIHk9IjEwIiB4PSI3Ii8+PHJlY3QgZmlsbD0iI2FiYTg5MSIgaGVpZ2h0PSIxIiB3aWR0aD0iMSIgeT0iMTEiIHg9IjciLz48cmVjdCBmaWxsPSIjYmFiNzllIiBoZWlnaHQ9IjEiIHdpZHRoPSIxIiB5PSIxMiIgeD0iNyIvPjxyZWN0IGZpbGw9IiNjOGM1YWEiIGhlaWdodD0iMSIgd2lkdGg9IjEiIHk9IjEzIiB4PSI3Ii8+PHJlY3QgZmlsbD0iI2JhYjc5ZSIgaGVpZ2h0PSIxIiB3aWR0aD0iMSIgeT0iMTQiIHg9IjciLz48cmVjdCBmaWxsPSIjYzhjNWFhIiBoZWlnaHQ9IjEiIHdpZHRoPSIxIiB5PSIxNSIgeD0iNyIvPjxyZWN0IGZpbGw9IiNkMjQzMTgiIGhlaWdodD0iMSIgd2lkdGg9IjEiIHk9IjciIHg9IjgiLz48cmVjdCBmaWxsPSIjZDI0MzE4IiBoZWlnaHQ9IjEiIHdpZHRoPSIxIiB5PSI4IiB4PSI4Ii8+PHJlY3QgZmlsbD0iI2MxM2UxNiIgaGVpZ2h0PSIxIiB3aWR0aD0iMSIgeT0iOSIgeD0iOCIvPjxyZWN0IGZpbGw9IiNiMzM5MTUiIGhlaWdodD0iMSIgd2lkdGg9IjEiIHk9IjEwIiB4PSI4Ii8+PHJlY3QgZmlsbD0iI2FiYTg5MSIgaGVpZ2h0PSIxIiB3aWR0aD0iMSIgeT0iMTEiIHg9IjgiLz48cmVjdCBmaWxsPSIjYWJhODkxIiBoZWlnaHQ9IjEiIHdpZHRoPSIxIiB5PSIxMiIgeD0iOCIvPjxyZWN0IGZpbGw9IiNiYWI3OWUiIGhlaWdodD0iMSIgd2lkdGg9IjEiIHk9IjEzIiB4PSI4Ii8+PHJlY3QgZmlsbD0iI2M4YzVhYSIgaGVpZ2h0PSIxIiB3aWR0aD0iMSIgeT0iMTQiIHg9IjgiLz48cmVjdCBmaWxsPSIjYmFiNzllIiBoZWlnaHQ9IjEiIHdpZHRoPSIxIiB5PSIxNSIgeD0iOCIvPjxyZWN0IGZpbGw9IiNmZmZmZmYiIGhlaWdodD0iMSIgd2lkdGg9IjEiIHk9IjciIHg9IjkiLz48cmVjdCBmaWxsPSIjZmZmZmZmIiBoZWlnaHQ9IjEiIHdpZHRoPSIxIiB5PSI4IiB4PSI5Ii8+PHJlY3QgZmlsbD0iI2I2M2ExNSIgaGVpZ2h0PSIxIiB3aWR0aD0iMSIgeT0iOSIgeD0iOSIvPjxyZWN0IGZpbGw9IiNiMzM5MTUiIGhlaWdodD0iMSIgd2lkdGg9IjEiIHk9IjEwIiB4PSI5Ii8+PHJlY3QgZmlsbD0iI2ZmYjE3MSIgaGVpZ2h0PSIxIiB3aWR0aD0iMSIgeT0iNyIgeD0iMTAiLz48cmVjdCBmaWxsPSIjZmZmZmZmIiBoZWlnaHQ9IjEiIHdpZHRoPSIxIiB5PSI4IiB4PSIxMCIvPjxyZWN0IGZpbGw9IiNiNjNhMTUiIGhlaWdodD0iMSIgd2lkdGg9IjEiIHk9IjkiIHg9IjEwIi8+PHJlY3QgZmlsbD0iIzlmMzMxMiIgaGVpZ2h0PSIxIiB3aWR0aD0iMSIgeT0iMTAiIHg9IjEwIi8+PHJlY3QgZmlsbD0iI2QyNDMxOCIgaGVpZ2h0PSIxIiB3aWR0aD0iMSIgeT0iNyIgeD0iMTEiLz48cmVjdCBmaWxsPSIjYzEzZTE2IiBoZWlnaHQ9IjEiIHdpZHRoPSIxIiB5PSI4IiB4PSIxMSIvPjxyZWN0IGZpbGw9IiNiNjNhMTUiIGhlaWdodD0iMSIgd2lkdGg9IjEiIHk9IjkiIHg9IjExIi8+PHJlY3QgZmlsbD0iIzlmMzMxMiIgaGVpZ2h0PSIxIiB3aWR0aD0iMSIgeT0iMTAiIHg9IjExIi8+PHJlY3QgZmlsbD0iI2MxM2UxNiIgaGVpZ2h0PSIxIiB3aWR0aD0iMSIgeT0iNyIgeD0iMTIiLz48cmVjdCBmaWxsPSIjYjYzYTE1IiBoZWlnaHQ9IjEiIHdpZHRoPSIxIiB5PSI4IiB4PSIxMiIvPjxyZWN0IGZpbGw9IiM5ZjMzMTIiIGhlaWdodD0iMSIgd2lkdGg9IjEiIHk9IjkiIHg9IjEyIi8+PHJlY3QgZmlsbD0iIzlmMzMxMiIgaGVpZ2h0PSIxIiB3aWR0aD0iMSIgeT0iMTAiIHg9IjEyIi8+PC9zdmc+;labelPosition=center;align=center;spacing=0;" parent="1" vertex="1">
          <mxGeometry x="200" y="240" width="80" height="80" as="geometry" />
        </mxCell>
        <mxCell id="mb0kdLQjRBN_iIwWdxhV-91" value="Amanita&#xa;rubra" style="shape=image;verticalLabelPosition=bottom;labelBackgroundColor=default;verticalAlign=top;aspect=fixed;imageAspect=0;image=data:image/svg+xml,PHN2ZyB4bWxucz0iaHR0cDovL3d3dy53My5vcmcvMjAwMC9zdmciIGhlaWdodD0iMTYiIHdpZHRoPSIxNiIgdmlld0JveD0iMCAwIDE2IDE2Ij48cmVjdCBmaWxsPSIjNTkxMTAwIiBoZWlnaHQ9IjEiIHdpZHRoPSIxIiB5PSI4IiB4PSIzIi8+PHJlY3QgZmlsbD0iIzRmMGYwMCIgaGVpZ2h0PSIxIiB3aWR0aD0iMSIgeT0iOSIgeD0iMyIvPjxyZWN0IGZpbGw9IiM3YjE4MDAiIGhlaWdodD0iMSIgd2lkdGg9IjEiIHk9IjgiIHg9IjQiLz48cmVjdCBmaWxsPSIjNTkxMTAwIiBoZWlnaHQ9IjEiIHdpZHRoPSIxIiB5PSI5IiB4PSI0Ii8+PHJlY3QgZmlsbD0iIzRmMGYwMCIgaGVpZ2h0PSIxIiB3aWR0aD0iMSIgeT0iMTAiIHg9IjQiLz48cmVjdCBmaWxsPSIjZjJmMmYyIiBoZWlnaHQ9IjEiIHdpZHRoPSIxIiB5PSI1IiB4PSI1Ii8+PHJlY3QgZmlsbD0iI2YyZjJmMiIgaGVpZ2h0PSIxIiB3aWR0aD0iMSIgeT0iNiIgeD0iNSIvPjxyZWN0IGZpbGw9IiM2MjEzMDAiIGhlaWdodD0iMSIgd2lkdGg9IjEiIHk9IjciIHg9IjUiLz48cmVjdCBmaWxsPSIjOGIxYjAwIiBoZWlnaHQ9IjEiIHdpZHRoPSIxIiB5PSI4IiB4PSI1Ii8+PHJlY3QgZmlsbD0iIzYyMTMwMCIgaGVpZ2h0PSIxIiB3aWR0aD0iMSIgeT0iOSIgeD0iNSIvPjxyZWN0IGZpbGw9IiM1OTExMDAiIGhlaWdodD0iMSIgd2lkdGg9IjEiIHk9IjEwIiB4PSI1Ii8+PHJlY3QgZmlsbD0iIzhiMWIwMCIgaGVpZ2h0PSIxIiB3aWR0aD0iMSIgeT0iNCIgeD0iNiIvPjxyZWN0IGZpbGw9IiNmMmYyZjIiIGhlaWdodD0iMSIgd2lkdGg9IjEiIHk9IjUiIHg9IjYiLz48cmVjdCBmaWxsPSIjZjJmMmYyIiBoZWlnaHQ9IjEiIHdpZHRoPSIxIiB5PSI2IiB4PSI2Ii8+PHJlY3QgZmlsbD0iIzcyMTYwMCIgaGVpZ2h0PSIxIiB3aWR0aD0iMSIgeT0iNyIgeD0iNiIvPjxyZWN0IGZpbGw9IiM4YjFiMDAiIGhlaWdodD0iMSIgd2lkdGg9IjEiIHk9IjgiIHg9IjYiLz48cmVjdCBmaWxsPSIjNjIxMzAwIiBoZWlnaHQ9IjEiIHdpZHRoPSIxIiB5PSI5IiB4PSI2Ii8+PHJlY3QgZmlsbD0iIzU5MTEwMCIgaGVpZ2h0PSIxIiB3aWR0aD0iMSIgeT0iMTAiIHg9IjYiLz48cmVjdCBmaWxsPSIjOGIxYjAwIiBoZWlnaHQ9IjEiIHdpZHRoPSIxIiB5PSI0IiB4PSI3Ii8+PHJlY3QgZmlsbD0iIzhiMWIwMCIgaGVpZ2h0PSIxIiB3aWR0aD0iMSIgeT0iNSIgeD0iNyIvPjxyZWN0IGZpbGw9IiM4YjFiMDAiIGhlaWdodD0iMSIgd2lkdGg9IjEiIHk9IjYiIHg9IjciLz48cmVjdCBmaWxsPSIjNzIxNjAwIiBoZWlnaHQ9IjEiIHdpZHRoPSIxIiB5PSI3IiB4PSI3Ii8+PHJlY3QgZmlsbD0iIzdiMTgwMCIgaGVpZ2h0PSIxIiB3aWR0aD0iMSIgeT0iOCIgeD0iNyIvPjxyZWN0IGZpbGw9IiM2MjEzMDAiIGhlaWdodD0iMSIgd2lkdGg9IjEiIHk9IjkiIHg9IjciLz48cmVjdCBmaWxsPSIjNGYwZjAwIiBoZWlnaHQ9IjEiIHdpZHRoPSIxIiB5PSIxMCIgeD0iNyIvPjxyZWN0IGZpbGw9IiM1OTU5NDciIGhlaWdodD0iMSIgd2lkdGg9IjEiIHk9IjExIiB4PSI3Ii8+PHJlY3QgZmlsbD0iIzcwNzA1OSIgaGVpZ2h0PSIxIiB3aWR0aD0iMSIgeT0iMTIiIHg9IjciLz48cmVjdCBmaWxsPSIjN2E3YTYxIiBoZWlnaHQ9IjEiIHdpZHRoPSIxIiB5PSIxMyIgeD0iNyIvPjxyZWN0IGZpbGw9IiM4Njg2NmIiIGhlaWdodD0iMSIgd2lkdGg9IjEiIHk9IjE0IiB4PSI3Ii8+PHJlY3QgZmlsbD0iIzdhN2E2MSIgaGVpZ2h0PSIxIiB3aWR0aD0iMSIgeT0iMTUiIHg9IjciLz48cmVjdCBmaWxsPSIjN2IxODAwIiBoZWlnaHQ9IjEiIHdpZHRoPSIxIiB5PSI0IiB4PSI4Ii8+PHJlY3QgZmlsbD0iIzdiMTgwMCIgaGVpZ2h0PSIxIiB3aWR0aD0iMSIgeT0iNSIgeD0iOCIvPjxyZWN0IGZpbGw9IiNmMmYyZjIiIGhlaWdodD0iMSIgd2lkdGg9IjEiIHk9IjYiIHg9IjgiLz48cmVjdCBmaWxsPSIjZjJmMmYyIiBoZWlnaHQ9IjEiIHdpZHRoPSIxIiB5PSI3IiB4PSI4Ii8+PHJlY3QgZmlsbD0iIzYyMTMwMCIgaGVpZ2h0PSIxIiB3aWR0aD0iMSIgeT0iOCIgeD0iOCIvPjxyZWN0IGZpbGw9IiM1OTExMDAiIGhlaWdodD0iMSIgd2lkdGg9IjEiIHk9IjkiIHg9IjgiLz48cmVjdCBmaWxsPSIjNGYwZjAwIiBoZWlnaHQ9IjEiIHdpZHRoPSIxIiB5PSIxMCIgeD0iOCIvPjxyZWN0IGZpbGw9IiM2NDY0NTAiIGhlaWdodD0iMSIgd2lkdGg9IjEiIHk9IjExIiB4PSI4Ii8+PHJlY3QgZmlsbD0iIzZlNmU1OCIgaGVpZ2h0PSIxIiB3aWR0aD0iMSIgeT0iMTIiIHg9IjgiLz48cmVjdCBmaWxsPSIjODY4NjZiIiBoZWlnaHQ9IjEiIHdpZHRoPSIxIiB5PSIxMyIgeD0iOCIvPjxyZWN0IGZpbGw9IiM3YTdhNjEiIGhlaWdodD0iMSIgd2lkdGg9IjEiIHk9IjE0IiB4PSI4Ii8+PHJlY3QgZmlsbD0iIzZlNmU1OCIgaGVpZ2h0PSIxIiB3aWR0aD0iMSIgeT0iMTUiIHg9IjgiLz48cmVjdCBmaWxsPSIjZjJmMmYyIiBoZWlnaHQ9IjEiIHdpZHRoPSIxIiB5PSI0IiB4PSI5Ii8+PHJlY3QgZmlsbD0iIzdiMTgwMCIgaGVpZ2h0PSIxIiB3aWR0aD0iMSIgeT0iNSIgeD0iOSIvPjxyZWN0IGZpbGw9IiNmMmYyZjIiIGhlaWdodD0iMSIgd2lkdGg9IjEiIHk9IjYiIHg9IjkiLz48cmVjdCBmaWxsPSIjZjJmMmYyIiBoZWlnaHQ9IjEiIHdpZHRoPSIxIiB5PSI3IiB4PSI5Ii8+PHJlY3QgZmlsbD0iIzU5MTEwMCIgaGVpZ2h0PSIxIiB3aWR0aD0iMSIgeT0iOCIgeD0iOSIvPjxyZWN0IGZpbGw9IiM1OTExMDAiIGhlaWdodD0iMSIgd2lkdGg9IjEiIHk9IjkiIHg9IjkiLz48cmVjdCBmaWxsPSIjNTkxMTAwIiBoZWlnaHQ9IjEiIHdpZHRoPSIxIiB5PSIxMCIgeD0iOSIvPjxyZWN0IGZpbGw9IiM3MjE2MDAiIGhlaWdodD0iMSIgd2lkdGg9IjEiIHk9IjUiIHg9IjEwIi8+PHJlY3QgZmlsbD0iIzcyMTYwMCIgaGVpZ2h0PSIxIiB3aWR0aD0iMSIgeT0iNiIgeD0iMTAiLz48cmVjdCBmaWxsPSIjNjIxMzAwIiBoZWlnaHQ9IjEiIHdpZHRoPSIxIiB5PSI3IiB4PSIxMCIvPjxyZWN0IGZpbGw9IiM1OTExMDAiIGhlaWdodD0iMSIgd2lkdGg9IjEiIHk9IjgiIHg9IjEwIi8+PHJlY3QgZmlsbD0iIzYyMTMwMCIgaGVpZ2h0PSIxIiB3aWR0aD0iMSIgeT0iOSIgeD0iMTAiLz48cmVjdCBmaWxsPSIjNTkxMTAwIiBoZWlnaHQ9IjEiIHdpZHRoPSIxIiB5PSIxMCIgeD0iMTAiLz48cmVjdCBmaWxsPSIjODgxYjAwIiBoZWlnaHQ9IjEiIHdpZHRoPSIxIiB5PSI4IiB4PSIxMSIvPjxyZWN0IGZpbGw9IiM2MjEzMDAiIGhlaWdodD0iMSIgd2lkdGg9IjEiIHk9IjkiIHg9IjExIi8+PHJlY3QgZmlsbD0iIzRmMGYwMCIgaGVpZ2h0PSIxIiB3aWR0aD0iMSIgeT0iMTAiIHg9IjExIi8+PHJlY3QgZmlsbD0iIzYyMTMwMCIgaGVpZ2h0PSIxIiB3aWR0aD0iMSIgeT0iOCIgeD0iMTIiLz48cmVjdCBmaWxsPSIjNGYwZjAwIiBoZWlnaHQ9IjEiIHdpZHRoPSIxIiB5PSI5IiB4PSIxMiIvPjwvc3ZnPg==;" parent="1" vertex="1">
          <mxGeometry x="140" y="360" width="80" height="80" as="geometry" />
        </mxCell>
        <mxCell id="mb0kdLQjRBN_iIwWdxhV-92" value="Agaricus campestris" style="shape=image;verticalLabelPosition=top;labelBackgroundColor=default;verticalAlign=bottom;aspect=fixed;imageAspect=0;image=data:image/svg+xml,PHN2ZyB4bWxucz0iaHR0cDovL3d3dy53My5vcmcvMjAwMC9zdmciIGhlaWdodD0iMTYiIHdpZHRoPSIxNiIgdmlld0JveD0iMCAwIDE2IDE2Ij48cmVjdCBmaWxsPSIjYzFiYWFlIiBoZWlnaHQ9IjEiIHdpZHRoPSIxIiB5PSI3IiB4PSIzIi8+PHJlY3QgZmlsbD0iI2I2YjBhNCIgaGVpZ2h0PSIxIiB3aWR0aD0iMSIgeT0iOCIgeD0iMyIvPjxyZWN0IGZpbGw9IiM5ZjlhOTAiIGhlaWdodD0iMSIgd2lkdGg9IjEiIHk9IjkiIHg9IjMiLz48cmVjdCBmaWxsPSIjOWY5YTkwIiBoZWlnaHQ9IjEiIHdpZHRoPSIxIiB5PSIxMCIgeD0iMyIvPjxyZWN0IGZpbGw9IiM4Yzg4N2UiIGhlaWdodD0iMSIgd2lkdGg9IjEiIHk9IjciIHg9IjQiLz48cmVjdCBmaWxsPSIjYzFiYWFlIiBoZWlnaHQ9IjEiIHdpZHRoPSIxIiB5PSI4IiB4PSI0Ii8+PHJlY3QgZmlsbD0iI2I2YjBhNCIgaGVpZ2h0PSIxIiB3aWR0aD0iMSIgeT0iOSIgeD0iNCIvPjxyZWN0IGZpbGw9IiM5ZjlhOTAiIGhlaWdodD0iMSIgd2lkdGg9IjEiIHk9IjEwIiB4PSI0Ii8+PHJlY3QgZmlsbD0iI2QyY2JiZSIgaGVpZ2h0PSIxIiB3aWR0aD0iMSIgeT0iNyIgeD0iNSIvPjxyZWN0IGZpbGw9IiNkMmNiYmUiIGhlaWdodD0iMSIgd2lkdGg9IjEiIHk9IjgiIHg9IjUiLz48cmVjdCBmaWxsPSIjYjZiMGE0IiBoZWlnaHQ9IjEiIHdpZHRoPSIxIiB5PSI5IiB4PSI1Ii8+PHJlY3QgZmlsbD0iIzlmOWE5MCIgaGVpZ2h0PSIxIiB3aWR0aD0iMSIgeT0iMTAiIHg9IjUiLz48cmVjdCBmaWxsPSIjZDJjYmJlIiBoZWlnaHQ9IjEiIHdpZHRoPSIxIiB5PSI3IiB4PSI2Ii8+PHJlY3QgZmlsbD0iI2QyY2JiZSIgaGVpZ2h0PSIxIiB3aWR0aD0iMSIgeT0iOCIgeD0iNiIvPjxyZWN0IGZpbGw9IiM4Yzg4N2UiIGhlaWdodD0iMSIgd2lkdGg9IjEiIHk9IjkiIHg9IjYiLz48cmVjdCBmaWxsPSIjYzNiZGIxIiBoZWlnaHQ9IjEiIHdpZHRoPSIxIiB5PSIxMCIgeD0iNiIvPjxyZWN0IGZpbGw9IiNkMmNiYmUiIGhlaWdodD0iMSIgd2lkdGg9IjEiIHk9IjciIHg9IjciLz48cmVjdCBmaWxsPSIjZDJjYmJlIiBoZWlnaHQ9IjEiIHdpZHRoPSIxIiB5PSI4IiB4PSI3Ii8+PHJlY3QgZmlsbD0iI2MzYmRiMSIgaGVpZ2h0PSIxIiB3aWR0aD0iMSIgeT0iOSIgeD0iNyIvPjxyZWN0IGZpbGw9IiNjM2JkYjEiIGhlaWdodD0iMSIgd2lkdGg9IjEiIHk9IjEwIiB4PSI3Ii8+PHJlY3QgZmlsbD0iI2FiYTU5YSIgaGVpZ2h0PSIxIiB3aWR0aD0iMSIgeT0iMTEiIHg9IjciLz48cmVjdCBmaWxsPSIjYmFiNGE4IiBoZWlnaHQ9IjEiIHdpZHRoPSIxIiB5PSIxMiIgeD0iNyIvPjxyZWN0IGZpbGw9IiNjOGMxYjUiIGhlaWdodD0iMSIgd2lkdGg9IjEiIHk9IjEzIiB4PSI3Ii8+PHJlY3QgZmlsbD0iI2JhYjRhOCIgaGVpZ2h0PSIxIiB3aWR0aD0iMSIgeT0iMTQiIHg9IjciLz48cmVjdCBmaWxsPSIjYzhjMWI1IiBoZWlnaHQ9IjEiIHdpZHRoPSIxIiB5PSIxNSIgeD0iNyIvPjxyZWN0IGZpbGw9IiNkMmNiYmUiIGhlaWdodD0iMSIgd2lkdGg9IjEiIHk9IjciIHg9IjgiLz48cmVjdCBmaWxsPSIjZDJjYmJlIiBoZWlnaHQ9IjEiIHdpZHRoPSIxIiB5PSI4IiB4PSI4Ii8+PHJlY3QgZmlsbD0iI2MxYmFhZSIgaGVpZ2h0PSIxIiB3aWR0aD0iMSIgeT0iOSIgeD0iOCIvPjxyZWN0IGZpbGw9IiNiM2FkYTIiIGhlaWdodD0iMSIgd2lkdGg9IjEiIHk9IjEwIiB4PSI4Ii8+PHJlY3QgZmlsbD0iI2FiYTU5YSIgaGVpZ2h0PSIxIiB3aWR0aD0iMSIgeT0iMTEiIHg9IjgiLz48cmVjdCBmaWxsPSIjYWJhNTlhIiBoZWlnaHQ9IjEiIHdpZHRoPSIxIiB5PSIxMiIgeD0iOCIvPjxyZWN0IGZpbGw9IiNiYWI0YTgiIGhlaWdodD0iMSIgd2lkdGg9IjEiIHk9IjEzIiB4PSI4Ii8+PHJlY3QgZmlsbD0iI2M4YzFiNSIgaGVpZ2h0PSIxIiB3aWR0aD0iMSIgeT0iMTQiIHg9IjgiLz48cmVjdCBmaWxsPSIjYmFiNGE4IiBoZWlnaHQ9IjEiIHdpZHRoPSIxIiB5PSIxNSIgeD0iOCIvPjxyZWN0IGZpbGw9IiNjN2MxYjQiIGhlaWdodD0iMSIgd2lkdGg9IjEiIHk9IjciIHg9IjkiLz48cmVjdCBmaWxsPSIjYzdjMWI0IiBoZWlnaHQ9IjEiIHdpZHRoPSIxIiB5PSI4IiB4PSI5Ii8+PHJlY3QgZmlsbD0iI2I2YjBhNCIgaGVpZ2h0PSIxIiB3aWR0aD0iMSIgeT0iOSIgeD0iOSIvPjxyZWN0IGZpbGw9IiNiM2FkYTIiIGhlaWdodD0iMSIgd2lkdGg9IjEiIHk9IjEwIiB4PSI5Ii8+PHJlY3QgZmlsbD0iI2E4YTM5OCIgaGVpZ2h0PSIxIiB3aWR0aD0iMSIgeT0iNyIgeD0iMTAiLz48cmVjdCBmaWxsPSIjYzdjMWI0IiBoZWlnaHQ9IjEiIHdpZHRoPSIxIiB5PSI4IiB4PSIxMCIvPjxyZWN0IGZpbGw9IiNiNmIwYTQiIGhlaWdodD0iMSIgd2lkdGg9IjEiIHk9IjkiIHg9IjEwIi8+PHJlY3QgZmlsbD0iIzlmOWE5MCIgaGVpZ2h0PSIxIiB3aWR0aD0iMSIgeT0iMTAiIHg9IjEwIi8+PHJlY3QgZmlsbD0iI2QyY2JiZSIgaGVpZ2h0PSIxIiB3aWR0aD0iMSIgeT0iNyIgeD0iMTEiLz48cmVjdCBmaWxsPSIjYzFiYWFlIiBoZWlnaHQ9IjEiIHdpZHRoPSIxIiB5PSI4IiB4PSIxMSIvPjxyZWN0IGZpbGw9IiNiNmIwYTQiIGhlaWdodD0iMSIgd2lkdGg9IjEiIHk9IjkiIHg9IjExIi8+PHJlY3QgZmlsbD0iIzlmOWE5MCIgaGVpZ2h0PSIxIiB3aWR0aD0iMSIgeT0iMTAiIHg9IjExIi8+PHJlY3QgZmlsbD0iI2MxYmFhZSIgaGVpZ2h0PSIxIiB3aWR0aD0iMSIgeT0iNyIgeD0iMTIiLz48cmVjdCBmaWxsPSIjYjZiMGE0IiBoZWlnaHQ9IjEiIHdpZHRoPSIxIiB5PSI4IiB4PSIxMiIvPjxyZWN0IGZpbGw9IiM5ZjlhOTAiIGhlaWdodD0iMSIgd2lkdGg9IjEiIHk9IjkiIHg9IjEyIi8+PHJlY3QgZmlsbD0iIzlmOWE5MCIgaGVpZ2h0PSIxIiB3aWR0aD0iMSIgeT0iMTAiIHg9IjEyIi8+PC9zdmc+;labelPosition=center;align=center;spacing=0;" parent="1" vertex="1">
          <mxGeometry x="560" y="240" width="80" height="80" as="geometry" />
        </mxCell>
        <mxCell id="mb0kdLQjRBN_iIwWdxhV-93" value="Leccinum versipelle" style="shape=image;verticalLabelPosition=top;labelBackgroundColor=default;verticalAlign=bottom;aspect=fixed;imageAspect=0;image=data:image/svg+xml,PHN2ZyB4bWxucz0iaHR0cDovL3d3dy53My5vcmcvMjAwMC9zdmciIGhlaWdodD0iMTYiIHdpZHRoPSIxNiIgdmlld0JveD0iMCAwIDE2IDE2Ij48cmVjdCBmaWxsPSIjYzE1ZDIyIiBoZWlnaHQ9IjEiIHdpZHRoPSIxIiB5PSI3IiB4PSIzIi8+PHJlY3QgZmlsbD0iI2I2NTgyMCIgaGVpZ2h0PSIxIiB3aWR0aD0iMSIgeT0iOCIgeD0iMyIvPjxyZWN0IGZpbGw9IiM5ZjRkMWMiIGhlaWdodD0iMSIgd2lkdGg9IjEiIHk9IjkiIHg9IjMiLz48cmVjdCBmaWxsPSIjOWY0ZDFjIiBoZWlnaHQ9IjEiIHdpZHRoPSIxIiB5PSIxMCIgeD0iMyIvPjxyZWN0IGZpbGw9IiM5ZDVlMzciIGhlaWdodD0iMSIgd2lkdGg9IjEiIHk9IjciIHg9IjQiLz48cmVjdCBmaWxsPSIjYzE1ZDIyIiBoZWlnaHQ9IjEiIHdpZHRoPSIxIiB5PSI4IiB4PSI0Ii8+PHJlY3QgZmlsbD0iI2I2NTgyMCIgaGVpZ2h0PSIxIiB3aWR0aD0iMSIgeT0iOSIgeD0iNCIvPjxyZWN0IGZpbGw9IiM5ZjRkMWMiIGhlaWdodD0iMSIgd2lkdGg9IjEiIHk9IjEwIiB4PSI0Ii8+PHJlY3QgZmlsbD0iI2QyNjYyNSIgaGVpZ2h0PSIxIiB3aWR0aD0iMSIgeT0iNyIgeD0iNSIvPjxyZWN0IGZpbGw9IiNkMjY2MjUiIGhlaWdodD0iMSIgd2lkdGg9IjEiIHk9IjgiIHg9IjUiLz48cmVjdCBmaWxsPSIjYjY1ODIwIiBoZWlnaHQ9IjEiIHdpZHRoPSIxIiB5PSI5IiB4PSI1Ii8+PHJlY3QgZmlsbD0iIzlmNGQxYyIgaGVpZ2h0PSIxIiB3aWR0aD0iMSIgeT0iMTAiIHg9IjUiLz48cmVjdCBmaWxsPSIjZDI2NjI1IiBoZWlnaHQ9IjEiIHdpZHRoPSIxIiB5PSI3IiB4PSI2Ii8+PHJlY3QgZmlsbD0iI2QyNjYyNSIgaGVpZ2h0PSIxIiB3aWR0aD0iMSIgeT0iOCIgeD0iNiIvPjxyZWN0IGZpbGw9IiM5ZDVlMzciIGhlaWdodD0iMSIgd2lkdGg9IjEiIHk9IjkiIHg9IjYiLz48cmVjdCBmaWxsPSIjODU1MjMwIiBoZWlnaHQ9IjEiIHdpZHRoPSIxIiB5PSIxMCIgeD0iNiIvPjxyZWN0IGZpbGw9IiNkMjY2MjUiIGhlaWdodD0iMSIgd2lkdGg9IjEiIHk9IjciIHg9IjciLz48cmVjdCBmaWxsPSIjZDI2NjI1IiBoZWlnaHQ9IjEiIHdpZHRoPSIxIiB5PSI4IiB4PSI3Ii8+PHJlY3QgZmlsbD0iIzg1NTIzMCIgaGVpZ2h0PSIxIiB3aWR0aD0iMSIgeT0iOSIgeD0iNyIvPjxyZWN0IGZpbGw9IiM4NTUyMzAiIGhlaWdodD0iMSIgd2lkdGg9IjEiIHk9IjEwIiB4PSI3Ii8+PHJlY3QgZmlsbD0iI2FiYThhOCIgaGVpZ2h0PSIxIiB3aWR0aD0iMSIgeT0iMTEiIHg9IjciLz48cmVjdCBmaWxsPSIjYmFiN2I3IiBoZWlnaHQ9IjEiIHdpZHRoPSIxIiB5PSIxMiIgeD0iNyIvPjxyZWN0IGZpbGw9IiNjOGM0YzQiIGhlaWdodD0iMSIgd2lkdGg9IjEiIHk9IjEzIiB4PSI3Ii8+PHJlY3QgZmlsbD0iI2JhYjdiNyIgaGVpZ2h0PSIxIiB3aWR0aD0iMSIgeT0iMTQiIHg9IjciLz48cmVjdCBmaWxsPSIjYzhjNGM0IiBoZWlnaHQ9IjEiIHdpZHRoPSIxIiB5PSIxNSIgeD0iNyIvPjxyZWN0IGZpbGw9IiNkMjY2MjUiIGhlaWdodD0iMSIgd2lkdGg9IjEiIHk9IjciIHg9IjgiLz48cmVjdCBmaWxsPSIjZDI2NjI1IiBoZWlnaHQ9IjEiIHdpZHRoPSIxIiB5PSI4IiB4PSI4Ii8+PHJlY3QgZmlsbD0iI2MxNWQyMiIgaGVpZ2h0PSIxIiB3aWR0aD0iMSIgeT0iOSIgeD0iOCIvPjxyZWN0IGZpbGw9IiNiMzU3MWYiIGhlaWdodD0iMSIgd2lkdGg9IjEiIHk9IjEwIiB4PSI4Ii8+PHJlY3QgZmlsbD0iI2FiYThhOCIgaGVpZ2h0PSIxIiB3aWR0aD0iMSIgeT0iMTEiIHg9IjgiLz48cmVjdCBmaWxsPSIjYWJhOGE4IiBoZWlnaHQ9IjEiIHdpZHRoPSIxIiB5PSIxMiIgeD0iOCIvPjxyZWN0IGZpbGw9IiNiYWI3YjciIGhlaWdodD0iMSIgd2lkdGg9IjEiIHk9IjEzIiB4PSI4Ii8+PHJlY3QgZmlsbD0iI2M4YzRjNCIgaGVpZ2h0PSIxIiB3aWR0aD0iMSIgeT0iMTQiIHg9IjgiLz48cmVjdCBmaWxsPSIjYmFiN2I3IiBoZWlnaHQ9IjEiIHdpZHRoPSIxIiB5PSIxNSIgeD0iOCIvPjxyZWN0IGZpbGw9IiM4ODU0MzEiIGhlaWdodD0iMSIgd2lkdGg9IjEiIHk9IjciIHg9IjkiLz48cmVjdCBmaWxsPSIjODg1NDMxIiBoZWlnaHQ9IjEiIHdpZHRoPSIxIiB5PSI4IiB4PSI5Ii8+PHJlY3QgZmlsbD0iI2I2NTgyMCIgaGVpZ2h0PSIxIiB3aWR0aD0iMSIgeT0iOSIgeD0iOSIvPjxyZWN0IGZpbGw9IiNiMzU3MWYiIGhlaWdodD0iMSIgd2lkdGg9IjEiIHk9IjEwIiB4PSI5Ii8+PHJlY3QgZmlsbD0iI2JkNzE0MiIgaGVpZ2h0PSIxIiB3aWR0aD0iMSIgeT0iNyIgeD0iMTAiLz48cmVjdCBmaWxsPSIjODg1NDMxIiBoZWlnaHQ9IjEiIHdpZHRoPSIxIiB5PSI4IiB4PSIxMCIvPjxyZWN0IGZpbGw9IiNiNjU4MjAiIGhlaWdodD0iMSIgd2lkdGg9IjEiIHk9IjkiIHg9IjEwIi8+PHJlY3QgZmlsbD0iIzlmNGQxYyIgaGVpZ2h0PSIxIiB3aWR0aD0iMSIgeT0iMTAiIHg9IjEwIi8+PHJlY3QgZmlsbD0iI2QyNjYyNSIgaGVpZ2h0PSIxIiB3aWR0aD0iMSIgeT0iNyIgeD0iMTEiLz48cmVjdCBmaWxsPSIjYzE1ZDIyIiBoZWlnaHQ9IjEiIHdpZHRoPSIxIiB5PSI4IiB4PSIxMSIvPjxyZWN0IGZpbGw9IiNiNjU4MjAiIGhlaWdodD0iMSIgd2lkdGg9IjEiIHk9IjkiIHg9IjExIi8+PHJlY3QgZmlsbD0iIzlmNGQxYyIgaGVpZ2h0PSIxIiB3aWR0aD0iMSIgeT0iMTAiIHg9IjExIi8+PHJlY3QgZmlsbD0iI2MxNWQyMiIgaGVpZ2h0PSIxIiB3aWR0aD0iMSIgeT0iNyIgeD0iMTIiLz48cmVjdCBmaWxsPSIjYjY1ODIwIiBoZWlnaHQ9IjEiIHdpZHRoPSIxIiB5PSI4IiB4PSIxMiIvPjxyZWN0IGZpbGw9IiM5ZjRkMWMiIGhlaWdodD0iMSIgd2lkdGg9IjEiIHk9IjkiIHg9IjEyIi8+PHJlY3QgZmlsbD0iIzlmNGQxYyIgaGVpZ2h0PSIxIiB3aWR0aD0iMSIgeT0iMTAiIHg9IjEyIi8+PC9zdmc+;labelPosition=center;align=center;spacing=0;" parent="1" vertex="1">
          <mxGeometry x="440" y="240" width="80" height="80" as="geometry" />
        </mxCell>
        <mxCell id="mb0kdLQjRBN_iIwWdxhV-94" value="Lactarius viridis" style="shape=image;verticalLabelPosition=top;labelBackgroundColor=default;verticalAlign=bottom;aspect=fixed;imageAspect=0;image=data:image/svg+xml,PHN2ZyB4bWxucz0iaHR0cDovL3d3dy53My5vcmcvMjAwMC9zdmciIGhlaWdodD0iMTYiIHdpZHRoPSIxNiIgdmlld0JveD0iMCAwIDE2IDE2Ij48cmVjdCBmaWxsPSIjNTA4YjJkIiBoZWlnaHQ9IjEiIHdpZHRoPSIxIiB5PSI3IiB4PSIzIi8+PHJlY3QgZmlsbD0iIzRjODMyYSIgaGVpZ2h0PSIxIiB3aWR0aD0iMSIgeT0iOCIgeD0iMyIvPjxyZWN0IGZpbGw9IiM0MjcyMjUiIGhlaWdodD0iMSIgd2lkdGg9IjEiIHk9IjkiIHg9IjMiLz48cmVjdCBmaWxsPSIjNDI3MjI1IiBoZWlnaHQ9IjEiIHdpZHRoPSIxIiB5PSIxMCIgeD0iMyIvPjxyZWN0IGZpbGw9IiNjYzAxYjAiIGhlaWdodD0iMSIgd2lkdGg9IjEiIHk9IjciIHg9IjQiLz48cmVjdCBmaWxsPSIjNTA4YjJkIiBoZWlnaHQ9IjEiIHdpZHRoPSIxIiB5PSI4IiB4PSI0Ii8+PHJlY3QgZmlsbD0iIzRjODMyYSIgaGVpZ2h0PSIxIiB3aWR0aD0iMSIgeT0iOSIgeD0iNCIvPjxyZWN0IGZpbGw9IiM0MjcyMjUiIGhlaWdodD0iMSIgd2lkdGg9IjEiIHk9IjEwIiB4PSI0Ii8+PHJlY3QgZmlsbD0iIzU4OTczMSIgaGVpZ2h0PSIxIiB3aWR0aD0iMSIgeT0iNyIgeD0iNSIvPjxyZWN0IGZpbGw9IiM1ODk3MzEiIGhlaWdodD0iMSIgd2lkdGg9IjEiIHk9IjgiIHg9IjUiLz48cmVjdCBmaWxsPSIjNGM4MzJhIiBoZWlnaHQ9IjEiIHdpZHRoPSIxIiB5PSI5IiB4PSI1Ii8+PHJlY3QgZmlsbD0iIzQyNzIyNSIgaGVpZ2h0PSIxIiB3aWR0aD0iMSIgeT0iMTAiIHg9IjUiLz48cmVjdCBmaWxsPSIjNTg5NzMxIiBoZWlnaHQ9IjEiIHdpZHRoPSIxIiB5PSI3IiB4PSI2Ii8+PHJlY3QgZmlsbD0iIzU4OTczMSIgaGVpZ2h0PSIxIiB3aWR0aD0iMSIgeT0iOCIgeD0iNiIvPjxyZWN0IGZpbGw9IiNjYzAxYjAiIGhlaWdodD0iMSIgd2lkdGg9IjEiIHk9IjkiIHg9IjYiLz48cmVjdCBmaWxsPSIjOTYxMDBlIiBoZWlnaHQ9IjEiIHdpZHRoPSIxIiB5PSIxMCIgeD0iNiIvPjxyZWN0IGZpbGw9IiM1ODk3MzEiIGhlaWdodD0iMSIgd2lkdGg9IjEiIHk9IjciIHg9IjciLz48cmVjdCBmaWxsPSIjNTg5NzMxIiBoZWlnaHQ9IjEiIHdpZHRoPSIxIiB5PSI4IiB4PSI3Ii8+PHJlY3QgZmlsbD0iIzk2MTAwZSIgaGVpZ2h0PSIxIiB3aWR0aD0iMSIgeT0iOSIgeD0iNyIvPjxyZWN0IGZpbGw9IiM5NjEwMGUiIGhlaWdodD0iMSIgd2lkdGg9IjEiIHk9IjEwIiB4PSI3Ii8+PHJlY3QgZmlsbD0iIzgwNjU4MCIgaGVpZ2h0PSIxIiB3aWR0aD0iMSIgeT0iMTEiIHg9IjciLz48cmVjdCBmaWxsPSIjOGI2ZThiIiBoZWlnaHQ9IjEiIHdpZHRoPSIxIiB5PSIxMiIgeD0iNyIvPjxyZWN0IGZpbGw9IiM5NTc3OTUiIGhlaWdodD0iMSIgd2lkdGg9IjEiIHk9IjEzIiB4PSI3Ii8+PHJlY3QgZmlsbD0iIzhiNmU4YiIgaGVpZ2h0PSIxIiB3aWR0aD0iMSIgeT0iMTQiIHg9IjciLz48cmVjdCBmaWxsPSIjOTU3Nzk1IiBoZWlnaHQ9IjEiIHdpZHRoPSIxIiB5PSIxNSIgeD0iNyIvPjxyZWN0IGZpbGw9IiM1ODk3MzEiIGhlaWdodD0iMSIgd2lkdGg9IjEiIHk9IjciIHg9IjgiLz48cmVjdCBmaWxsPSIjNTg5NzMxIiBoZWlnaHQ9IjEiIHdpZHRoPSIxIiB5PSI4IiB4PSI4Ii8+PHJlY3QgZmlsbD0iIzUwOGIyZCIgaGVpZ2h0PSIxIiB3aWR0aD0iMSIgeT0iOSIgeD0iOCIvPjxyZWN0IGZpbGw9IiM0YjgxMmEiIGhlaWdodD0iMSIgd2lkdGg9IjEiIHk9IjEwIiB4PSI4Ii8+PHJlY3QgZmlsbD0iIzgwNjU4MCIgaGVpZ2h0PSIxIiB3aWR0aD0iMSIgeT0iMTEiIHg9IjgiLz48cmVjdCBmaWxsPSIjODA2NTgwIiBoZWlnaHQ9IjEiIHdpZHRoPSIxIiB5PSIxMiIgeD0iOCIvPjxyZWN0IGZpbGw9IiM4YjZlOGIiIGhlaWdodD0iMSIgd2lkdGg9IjEiIHk9IjEzIiB4PSI4Ii8+PHJlY3QgZmlsbD0iIzk1Nzc5NSIgaGVpZ2h0PSIxIiB3aWR0aD0iMSIgeT0iMTQiIHg9IjgiLz48cmVjdCBmaWxsPSIjOGI2ZThiIiBoZWlnaHQ9IjEiIHdpZHRoPSIxIiB5PSIxNSIgeD0iOCIvPjxyZWN0IGZpbGw9IiM5OTExMGYiIGhlaWdodD0iMSIgd2lkdGg9IjEiIHk9IjciIHg9IjkiLz48cmVjdCBmaWxsPSIjOTkxMTBmIiBoZWlnaHQ9IjEiIHdpZHRoPSIxIiB5PSI4IiB4PSI5Ii8+PHJlY3QgZmlsbD0iIzRjODMyYSIgaGVpZ2h0PSIxIiB3aWR0aD0iMSIgeT0iOSIgeD0iOSIvPjxyZWN0IGZpbGw9IiM0YjgxMmEiIGhlaWdodD0iMSIgd2lkdGg9IjEiIHk9IjEwIiB4PSI5Ii8+PHJlY3QgZmlsbD0iI2Y1MDJkMyIgaGVpZ2h0PSIxIiB3aWR0aD0iMSIgeT0iNyIgeD0iMTAiLz48cmVjdCBmaWxsPSIjOTkxMTBmIiBoZWlnaHQ9IjEiIHdpZHRoPSIxIiB5PSI4IiB4PSIxMCIvPjxyZWN0IGZpbGw9IiM0YzgzMmEiIGhlaWdodD0iMSIgd2lkdGg9IjEiIHk9IjkiIHg9IjEwIi8+PHJlY3QgZmlsbD0iIzQyNzIyNSIgaGVpZ2h0PSIxIiB3aWR0aD0iMSIgeT0iMTAiIHg9IjEwIi8+PHJlY3QgZmlsbD0iIzU4OTczMSIgaGVpZ2h0PSIxIiB3aWR0aD0iMSIgeT0iNyIgeD0iMTEiLz48cmVjdCBmaWxsPSIjNTA4YjJkIiBoZWlnaHQ9IjEiIHdpZHRoPSIxIiB5PSI4IiB4PSIxMSIvPjxyZWN0IGZpbGw9IiM0YzgzMmEiIGhlaWdodD0iMSIgd2lkdGg9IjEiIHk9IjkiIHg9IjExIi8+PHJlY3QgZmlsbD0iIzQyNzIyNSIgaGVpZ2h0PSIxIiB3aWR0aD0iMSIgeT0iMTAiIHg9IjExIi8+PHJlY3QgZmlsbD0iIzUwOGIyZCIgaGVpZ2h0PSIxIiB3aWR0aD0iMSIgeT0iNyIgeD0iMTIiLz48cmVjdCBmaWxsPSIjNGM4MzJhIiBoZWlnaHQ9IjEiIHdpZHRoPSIxIiB5PSI4IiB4PSIxMiIvPjxyZWN0IGZpbGw9IiM0MjcyMjUiIGhlaWdodD0iMSIgd2lkdGg9IjEiIHk9IjkiIHg9IjEyIi8+PHJlY3QgZmlsbD0iIzQyNzIyNSIgaGVpZ2h0PSIxIiB3aWR0aD0iMSIgeT0iMTAiIHg9IjEyIi8+PC9zdmc+;labelPosition=center;align=center;spacing=0;" parent="1" vertex="1">
          <mxGeometry x="380" y="360" width="80" height="80" as="geometry" />
        </mxCell>
        <mxCell id="415roH0Z9XJMxvZ8rYO8-1" value="Suillus granulatus" style="shape=image;verticalLabelPosition=top;labelBackgroundColor=default;verticalAlign=bottom;aspect=fixed;imageAspect=0;image=data:image/svg+xml,PHN2ZyB4bWxucz0iaHR0cDovL3d3dy53My5vcmcvMjAwMC9zdmciIGhlaWdodD0iMTYiIHdpZHRoPSIxNiIgdmlld0JveD0iMCAwIDE2IDE2Ij48cmVjdCBmaWxsPSIjYzE3YjU5IiBoZWlnaHQ9IjEiIHdpZHRoPSIxIiB5PSI3IiB4PSIzIi8+PHJlY3QgZmlsbD0iI2I2NzQ1NCIgaGVpZ2h0PSIxIiB3aWR0aD0iMSIgeT0iOCIgeD0iMyIvPjxyZWN0IGZpbGw9IiM5ZjY1NDkiIGhlaWdodD0iMSIgd2lkdGg9IjEiIHk9IjkiIHg9IjMiLz48cmVjdCBmaWxsPSIjOWY2NTQ5IiBoZWlnaHQ9IjEiIHdpZHRoPSIxIiB5PSIxMCIgeD0iMyIvPjxyZWN0IGZpbGw9IiNiNDczNTMiIGhlaWdodD0iMSIgd2lkdGg9IjEiIHk9IjciIHg9IjQiLz48cmVjdCBmaWxsPSIjYzE3YjU5IiBoZWlnaHQ9IjEiIHdpZHRoPSIxIiB5PSI4IiB4PSI0Ii8+PHJlY3QgZmlsbD0iI2I2NzQ1NCIgaGVpZ2h0PSIxIiB3aWR0aD0iMSIgeT0iOSIgeD0iNCIvPjxyZWN0IGZpbGw9IiM5ZjY1NDkiIGhlaWdodD0iMSIgd2lkdGg9IjEiIHk9IjEwIiB4PSI0Ii8+PHJlY3QgZmlsbD0iI2QyODY2MSIgaGVpZ2h0PSIxIiB3aWR0aD0iMSIgeT0iNyIgeD0iNSIvPjxyZWN0IGZpbGw9IiNkMjg2NjEiIGhlaWdodD0iMSIgd2lkdGg9IjEiIHk9IjgiIHg9IjUiLz48cmVjdCBmaWxsPSIjYjY3NDU0IiBoZWlnaHQ9IjEiIHdpZHRoPSIxIiB5PSI5IiB4PSI1Ii8+PHJlY3QgZmlsbD0iIzlmNjU0OSIgaGVpZ2h0PSIxIiB3aWR0aD0iMSIgeT0iMTAiIHg9IjUiLz48cmVjdCBmaWxsPSIjZDI4NjYxIiBoZWlnaHQ9IjEiIHdpZHRoPSIxIiB5PSI3IiB4PSI2Ii8+PHJlY3QgZmlsbD0iI2QyODY2MSIgaGVpZ2h0PSIxIiB3aWR0aD0iMSIgeT0iOCIgeD0iNiIvPjxyZWN0IGZpbGw9IiNiNDczNTMiIGhlaWdodD0iMSIgd2lkdGg9IjEiIHk9IjkiIHg9IjYiLz48cmVjdCBmaWxsPSIjYzA3YjU4IiBoZWlnaHQ9IjEiIHdpZHRoPSIxIiB5PSIxMCIgeD0iNiIvPjxyZWN0IGZpbGw9IiNkMjg2NjEiIGhlaWdodD0iMSIgd2lkdGg9IjEiIHk9IjciIHg9IjciLz48cmVjdCBmaWxsPSIjZDI4NjYxIiBoZWlnaHQ9IjEiIHdpZHRoPSIxIiB5PSI4IiB4PSI3Ii8+PHJlY3QgZmlsbD0iI2MwN2I1OCIgaGVpZ2h0PSIxIiB3aWR0aD0iMSIgeT0iOSIgeD0iNyIvPjxyZWN0IGZpbGw9IiNjMDdiNTgiIGhlaWdodD0iMSIgd2lkdGg9IjEiIHk9IjEwIiB4PSI3Ii8+PHJlY3QgZmlsbD0iI2FiYTU5YSIgaGVpZ2h0PSIxIiB3aWR0aD0iMSIgeT0iMTEiIHg9IjciLz48cmVjdCBmaWxsPSIjYmFiNGE4IiBoZWlnaHQ9IjEiIHdpZHRoPSIxIiB5PSIxMiIgeD0iNyIvPjxyZWN0IGZpbGw9IiNjOGMxYjUiIGhlaWdodD0iMSIgd2lkdGg9IjEiIHk9IjEzIiB4PSI3Ii8+PHJlY3QgZmlsbD0iI2JhYjRhOCIgaGVpZ2h0PSIxIiB3aWR0aD0iMSIgeT0iMTQiIHg9IjciLz48cmVjdCBmaWxsPSIjYzhjMWI1IiBoZWlnaHQ9IjEiIHdpZHRoPSIxIiB5PSIxNSIgeD0iNyIvPjxyZWN0IGZpbGw9IiNkMjg2NjEiIGhlaWdodD0iMSIgd2lkdGg9IjEiIHk9IjciIHg9IjgiLz48cmVjdCBmaWxsPSIjZDI4NjYxIiBoZWlnaHQ9IjEiIHdpZHRoPSIxIiB5PSI4IiB4PSI4Ii8+PHJlY3QgZmlsbD0iI2MxN2I1OSIgaGVpZ2h0PSIxIiB3aWR0aD0iMSIgeT0iOSIgeD0iOCIvPjxyZWN0IGZpbGw9IiNiMzcyNTIiIGhlaWdodD0iMSIgd2lkdGg9IjEiIHk9IjEwIiB4PSI4Ii8+PHJlY3QgZmlsbD0iI2FiYTU5YSIgaGVpZ2h0PSIxIiB3aWR0aD0iMSIgeT0iMTEiIHg9IjgiLz48cmVjdCBmaWxsPSIjYWJhNTlhIiBoZWlnaHQ9IjEiIHdpZHRoPSIxIiB5PSIxMiIgeD0iOCIvPjxyZWN0IGZpbGw9IiNiYWI0YTgiIGhlaWdodD0iMSIgd2lkdGg9IjEiIHk9IjEzIiB4PSI4Ii8+PHJlY3QgZmlsbD0iI2M4YzFiNSIgaGVpZ2h0PSIxIiB3aWR0aD0iMSIgeT0iMTQiIHg9IjgiLz48cmVjdCBmaWxsPSIjYmFiNGE4IiBoZWlnaHQ9IjEiIHdpZHRoPSIxIiB5PSIxNSIgeD0iOCIvPjxyZWN0IGZpbGw9IiNjNDdkNWEiIGhlaWdodD0iMSIgd2lkdGg9IjEiIHk9IjciIHg9IjkiLz48cmVjdCBmaWxsPSIjYzQ3ZDVhIiBoZWlnaHQ9IjEiIHdpZHRoPSIxIiB5PSI4IiB4PSI5Ii8+PHJlY3QgZmlsbD0iI2I2NzQ1NCIgaGVpZ2h0PSIxIiB3aWR0aD0iMSIgeT0iOSIgeD0iOSIvPjxyZWN0IGZpbGw9IiNiMzcyNTIiIGhlaWdodD0iMSIgd2lkdGg9IjEiIHk9IjEwIiB4PSI5Ii8+PHJlY3QgZmlsbD0iI2Q4OGE2NCIgaGVpZ2h0PSIxIiB3aWR0aD0iMSIgeT0iNyIgeD0iMTAiLz48cmVjdCBmaWxsPSIjYzQ3ZDVhIiBoZWlnaHQ9IjEiIHdpZHRoPSIxIiB5PSI4IiB4PSIxMCIvPjxyZWN0IGZpbGw9IiNiNjc0NTQiIGhlaWdodD0iMSIgd2lkdGg9IjEiIHk9IjkiIHg9IjEwIi8+PHJlY3QgZmlsbD0iIzlmNjU0OSIgaGVpZ2h0PSIxIiB3aWR0aD0iMSIgeT0iMTAiIHg9IjEwIi8+PHJlY3QgZmlsbD0iI2QyODY2MSIgaGVpZ2h0PSIxIiB3aWR0aD0iMSIgeT0iNyIgeD0iMTEiLz48cmVjdCBmaWxsPSIjYzE3YjU5IiBoZWlnaHQ9IjEiIHdpZHRoPSIxIiB5PSI4IiB4PSIxMSIvPjxyZWN0IGZpbGw9IiNiNjc0NTQiIGhlaWdodD0iMSIgd2lkdGg9IjEiIHk9IjkiIHg9IjExIi8+PHJlY3QgZmlsbD0iIzlmNjU0OSIgaGVpZ2h0PSIxIiB3aWR0aD0iMSIgeT0iMTAiIHg9IjExIi8+PHJlY3QgZmlsbD0iI2MxN2I1OSIgaGVpZ2h0PSIxIiB3aWR0aD0iMSIgeT0iNyIgeD0iMTIiLz48cmVjdCBmaWxsPSIjYjY3NDU0IiBoZWlnaHQ9IjEiIHdpZHRoPSIxIiB5PSI4IiB4PSIxMiIvPjxyZWN0IGZpbGw9IiM5ZjY1NDkiIGhlaWdodD0iMSIgd2lkdGg9IjEiIHk9IjkiIHg9IjEyIi8+PHJlY3QgZmlsbD0iIzlmNjU0OSIgaGVpZ2h0PSIxIiB3aWR0aD0iMSIgeT0iMTAiIHg9IjEyIi8+PC9zdmc+;labelPosition=center;align=center;" parent="1" vertex="1">
          <mxGeometry x="800" y="240" width="80" height="80" as="geometry" />
        </mxCell>
        <mxCell id="415roH0Z9XJMxvZ8rYO8-2" value="Boletus edulis" style="shape=image;verticalLabelPosition=bottom;labelBackgroundColor=default;verticalAlign=top;aspect=fixed;imageAspect=0;image=data:image/svg+xml,PHN2ZyB4bWxucz0iaHR0cDovL3d3dy53My5vcmcvMjAwMC9zdmciIGhlaWdodD0iMTYiIHdpZHRoPSIxNiIgdmlld0JveD0iMCAwIDE2IDE2Ij48cmVjdCBmaWxsPSIjMzkyZjJiIiBoZWlnaHQ9IjEiIHdpZHRoPSIxIiB5PSI4IiB4PSIzIi8+PHJlY3QgZmlsbD0iIzMzMmEyNiIgaGVpZ2h0PSIxIiB3aWR0aD0iMSIgeT0iOSIgeD0iMyIvPjxyZWN0IGZpbGw9IiM0ZjQxM2MiIGhlaWdodD0iMSIgd2lkdGg9IjEiIHk9IjgiIHg9IjQiLz48cmVjdCBmaWxsPSIjMzkyZjJiIiBoZWlnaHQ9IjEiIHdpZHRoPSIxIiB5PSI5IiB4PSI0Ii8+PHJlY3QgZmlsbD0iIzMzMmEyNiIgaGVpZ2h0PSIxIiB3aWR0aD0iMSIgeT0iMTAiIHg9IjQiLz48cmVjdCBmaWxsPSIjZmZlNmRkIiBoZWlnaHQ9IjEiIHdpZHRoPSIxIiB5PSI1IiB4PSI1Ii8+PHJlY3QgZmlsbD0iI2E1ODg3ZCIgaGVpZ2h0PSIxIiB3aWR0aD0iMSIgeT0iNiIgeD0iNSIvPjxyZWN0IGZpbGw9IiMzZjM0MzAiIGhlaWdodD0iMSIgd2lkdGg9IjEiIHk9IjciIHg9IjUiLz48cmVjdCBmaWxsPSIjNTk0YTQ0IiBoZWlnaHQ9IjEiIHdpZHRoPSIxIiB5PSI4IiB4PSI1Ii8+PHJlY3QgZmlsbD0iIzNmMzQzMCIgaGVpZ2h0PSIxIiB3aWR0aD0iMSIgeT0iOSIgeD0iNSIvPjxyZWN0IGZpbGw9IiMzOTJmMmIiIGhlaWdodD0iMSIgd2lkdGg9IjEiIHk9IjEwIiB4PSI1Ii8+PHJlY3QgZmlsbD0iIzU5NGE0NCIgaGVpZ2h0PSIxIiB3aWR0aD0iMSIgeT0iNCIgeD0iNiIvPjxyZWN0IGZpbGw9IiNhNTg4N2QiIGhlaWdodD0iMSIgd2lkdGg9IjEiIHk9IjUiIHg9IjYiLz48cmVjdCBmaWxsPSIjYTU4ODdkIiBoZWlnaHQ9IjEiIHdpZHRoPSIxIiB5PSI2IiB4PSI2Ii8+PHJlY3QgZmlsbD0iIzQ5M2MzNyIgaGVpZ2h0PSIxIiB3aWR0aD0iMSIgeT0iNyIgeD0iNiIvPjxyZWN0IGZpbGw9IiM1OTRhNDQiIGhlaWdodD0iMSIgd2lkdGg9IjEiIHk9IjgiIHg9IjYiLz48cmVjdCBmaWxsPSIjM2YzNDMwIiBoZWlnaHQ9IjEiIHdpZHRoPSIxIiB5PSI5IiB4PSI2Ii8+PHJlY3QgZmlsbD0iIzM5MmYyYiIgaGVpZ2h0PSIxIiB3aWR0aD0iMSIgeT0iMTAiIHg9IjYiLz48cmVjdCBmaWxsPSIjNTk0YTQ0IiBoZWlnaHQ9IjEiIHdpZHRoPSIxIiB5PSI0IiB4PSI3Ii8+PHJlY3QgZmlsbD0iIzU5NGE0NCIgaGVpZ2h0PSIxIiB3aWR0aD0iMSIgeT0iNSIgeD0iNyIvPjxyZWN0IGZpbGw9IiM1OTRhNDQiIGhlaWdodD0iMSIgd2lkdGg9IjEiIHk9IjYiIHg9IjciLz48cmVjdCBmaWxsPSIjNDkzYzM3IiBoZWlnaHQ9IjEiIHdpZHRoPSIxIiB5PSI3IiB4PSI3Ii8+PHJlY3QgZmlsbD0iIzRmNDEzYyIgaGVpZ2h0PSIxIiB3aWR0aD0iMSIgeT0iOCIgeD0iNyIvPjxyZWN0IGZpbGw9IiMzZjM0MzAiIGhlaWdodD0iMSIgd2lkdGg9IjEiIHk9IjkiIHg9IjciLz48cmVjdCBmaWxsPSIjMzMyYTI2IiBoZWlnaHQ9IjEiIHdpZHRoPSIxIiB5PSIxMCIgeD0iNyIvPjxyZWN0IGZpbGw9IiM1MjRiM2MiIGhlaWdodD0iMSIgd2lkdGg9IjEiIHk9IjExIiB4PSI3Ii8+PHJlY3QgZmlsbD0iIzY3NWU0YyIgaGVpZ2h0PSIxIiB3aWR0aD0iMSIgeT0iMTIiIHg9IjciLz48cmVjdCBmaWxsPSIjNzA2NjUzIiBoZWlnaHQ9IjEiIHdpZHRoPSIxIiB5PSIxMyIgeD0iNyIvPjxyZWN0IGZpbGw9IiM3YzcwNWIiIGhlaWdodD0iMSIgd2lkdGg9IjEiIHk9IjE0IiB4PSI3Ii8+PHJlY3QgZmlsbD0iIzcwNjY1MyIgaGVpZ2h0PSIxIiB3aWR0aD0iMSIgeT0iMTUiIHg9IjciLz48cmVjdCBmaWxsPSIjNGY0MTNjIiBoZWlnaHQ9IjEiIHdpZHRoPSIxIiB5PSI0IiB4PSI4Ii8+PHJlY3QgZmlsbD0iIzRmNDEzYyIgaGVpZ2h0PSIxIiB3aWR0aD0iMSIgeT0iNSIgeD0iOCIvPjxyZWN0IGZpbGw9IiNhNTg4N2QiIGhlaWdodD0iMSIgd2lkdGg9IjEiIHk9IjYiIHg9IjgiLz48cmVjdCBmaWxsPSIjYTU4ODdkIiBoZWlnaHQ9IjEiIHdpZHRoPSIxIiB5PSI3IiB4PSI4Ii8+PHJlY3QgZmlsbD0iIzNmMzQzMCIgaGVpZ2h0PSIxIiB3aWR0aD0iMSIgeT0iOCIgeD0iOCIvPjxyZWN0IGZpbGw9IiMzOTJmMmIiIGhlaWdodD0iMSIgd2lkdGg9IjEiIHk9IjkiIHg9IjgiLz48cmVjdCBmaWxsPSIjMzMyYTI2IiBoZWlnaHQ9IjEiIHdpZHRoPSIxIiB5PSIxMCIgeD0iOCIvPjxyZWN0IGZpbGw9IiM1YzU0NDQiIGhlaWdodD0iMSIgd2lkdGg9IjEiIHk9IjExIiB4PSI4Ii8+PHJlY3QgZmlsbD0iIzY1NWM0YiIgaGVpZ2h0PSIxIiB3aWR0aD0iMSIgeT0iMTIiIHg9IjgiLz48cmVjdCBmaWxsPSIjN2M3MDViIiBoZWlnaHQ9IjEiIHdpZHRoPSIxIiB5PSIxMyIgeD0iOCIvPjxyZWN0IGZpbGw9IiM3MDY2NTMiIGhlaWdodD0iMSIgd2lkdGg9IjEiIHk9IjE0IiB4PSI4Ii8+PHJlY3QgZmlsbD0iIzY1NWM0YiIgaGVpZ2h0PSIxIiB3aWR0aD0iMSIgeT0iMTUiIHg9IjgiLz48cmVjdCBmaWxsPSIjZmZlNmRkIiBoZWlnaHQ9IjEiIHdpZHRoPSIxIiB5PSI0IiB4PSI5Ii8+PHJlY3QgZmlsbD0iIzRmNDEzYyIgaGVpZ2h0PSIxIiB3aWR0aD0iMSIgeT0iNSIgeD0iOSIvPjxyZWN0IGZpbGw9IiNmZmU2ZGQiIGhlaWdodD0iMSIgd2lkdGg9IjEiIHk9IjYiIHg9IjkiLz48cmVjdCBmaWxsPSIjYTU4ODdkIiBoZWlnaHQ9IjEiIHdpZHRoPSIxIiB5PSI3IiB4PSI5Ii8+PHJlY3QgZmlsbD0iIzM5MmYyYiIgaGVpZ2h0PSIxIiB3aWR0aD0iMSIgeT0iOCIgeD0iOSIvPjxyZWN0IGZpbGw9IiMzOTJmMmIiIGhlaWdodD0iMSIgd2lkdGg9IjEiIHk9IjkiIHg9IjkiLz48cmVjdCBmaWxsPSIjMzkyZjJiIiBoZWlnaHQ9IjEiIHdpZHRoPSIxIiB5PSIxMCIgeD0iOSIvPjxyZWN0IGZpbGw9IiM0OTNjMzciIGhlaWdodD0iMSIgd2lkdGg9IjEiIHk9IjUiIHg9IjEwIi8+PHJlY3QgZmlsbD0iIzQ5M2MzNyIgaGVpZ2h0PSIxIiB3aWR0aD0iMSIgeT0iNiIgeD0iMTAiLz48cmVjdCBmaWxsPSIjM2YzNDMwIiBoZWlnaHQ9IjEiIHdpZHRoPSIxIiB5PSI3IiB4PSIxMCIvPjxyZWN0IGZpbGw9IiMzOTJmMmIiIGhlaWdodD0iMSIgd2lkdGg9IjEiIHk9IjgiIHg9IjEwIi8+PHJlY3QgZmlsbD0iIzNmMzQzMCIgaGVpZ2h0PSIxIiB3aWR0aD0iMSIgeT0iOSIgeD0iMTAiLz48cmVjdCBmaWxsPSIjMzkyZjJiIiBoZWlnaHQ9IjEiIHdpZHRoPSIxIiB5PSIxMCIgeD0iMTAiLz48cmVjdCBmaWxsPSIjNTg0ODQyIiBoZWlnaHQ9IjEiIHdpZHRoPSIxIiB5PSI4IiB4PSIxMSIvPjxyZWN0IGZpbGw9IiMzZjM0MzAiIGhlaWdodD0iMSIgd2lkdGg9IjEiIHk9IjkiIHg9IjExIi8+PHJlY3QgZmlsbD0iIzMzMmEyNiIgaGVpZ2h0PSIxIiB3aWR0aD0iMSIgeT0iMTAiIHg9IjExIi8+PHJlY3QgZmlsbD0iIzNmMzQzMCIgaGVpZ2h0PSIxIiB3aWR0aD0iMSIgeT0iOCIgeD0iMTIiLz48cmVjdCBmaWxsPSIjMzMyYTI2IiBoZWlnaHQ9IjEiIHdpZHRoPSIxIiB5PSI5IiB4PSIxMiIvPjwvc3ZnPg==;spacing=0;labelPosition=center;align=center;" parent="1" vertex="1">
          <mxGeometry x="680" y="240" width="80" height="80" as="geometry" />
        </mxCell>
        <mxCell id="415roH0Z9XJMxvZ8rYO8-3" value="" style="endArrow=none;html=1;rounded=0;entryX=1;entryY=1;entryDx=0;entryDy=0;exitX=0.5;exitY=0;exitDx=0;exitDy=0;" parent="1" source="ZMy1RVDnMmDh1pD7vt_q-53" target="ZMy1RVDnMmDh1pD7vt_q-29" edge="1">
          <mxGeometry width="50" height="50" relative="1" as="geometry">
            <mxPoint x="730" y="420" as="sourcePoint" />
            <mxPoint x="780" y="370" as="targetPoint" />
          </mxGeometry>
        </mxCell>
        <mxCell id="415roH0Z9XJMxvZ8rYO8-4" value="" style="endArrow=none;html=1;rounded=0;entryX=0;entryY=1;entryDx=0;entryDy=0;exitX=0.5;exitY=0;exitDx=0;exitDy=0;" parent="1" source="ZMy1RVDnMmDh1pD7vt_q-53" target="ZMy1RVDnMmDh1pD7vt_q-59" edge="1">
          <mxGeometry width="50" height="50" relative="1" as="geometry">
            <mxPoint x="730" y="420" as="sourcePoint" />
            <mxPoint x="780" y="370" as="targetPoint" />
          </mxGeometry>
        </mxCell>
        <mxCell id="tgHhMYTm9GiIJ5HooXK7-1" value="" style="ellipse;whiteSpace=wrap;html=1;aspect=fixed;fillColor=#f8cecc;strokeColor=#b85450;" parent="1" vertex="1">
          <mxGeometry x="1359" y="840" width="80" height="80" as="geometry" />
        </mxCell>
        <mxCell id="tgHhMYTm9GiIJ5HooXK7-2" value="Nether&lt;br&gt;natives" style="rounded=1;whiteSpace=wrap;html=1;fillColor=#f8cecc;strokeColor=#b85450;" parent="1" vertex="1">
          <mxGeometry x="470" y="960" width="60" height="40" as="geometry" />
        </mxCell>
        <mxCell id="tgHhMYTm9GiIJ5HooXK7-4" value="" style="ellipse;whiteSpace=wrap;html=1;aspect=fixed;fillColor=#f8cecc;strokeColor=#b85450;" parent="1" vertex="1">
          <mxGeometry x="1161" y="240" width="80" height="80" as="geometry" />
        </mxCell>
        <mxCell id="qW4fd-eMchWfomqCqG8H-1" value="NETHERITE FUNGUS" style="shape=image;verticalLabelPosition=bottom;labelBackgroundColor=default;verticalAlign=top;aspect=fixed;imageAspect=0;image=data:image/svg+xml,PHN2ZyB4bWxucz0iaHR0cDovL3d3dy53My5vcmcvMjAwMC9zdmciIGhlaWdodD0iMTYiIHdpZHRoPSIxNiIgdmlld0JveD0iMCAwIDE2IDE2Ij48cmVjdCBmaWxsPSIjMTkxNjE0IiBoZWlnaHQ9IjEiIHdpZHRoPSIxIiB5PSI4IiB4PSIzIi8+PHJlY3QgZmlsbD0iIzE2MTQxMiIgaGVpZ2h0PSIxIiB3aWR0aD0iMSIgeT0iOSIgeD0iMyIvPjxyZWN0IGZpbGw9IiMyMjFmMWMiIGhlaWdodD0iMSIgd2lkdGg9IjEiIHk9IjgiIHg9IjQiLz48cmVjdCBmaWxsPSIjMTkxNjE0IiBoZWlnaHQ9IjEiIHdpZHRoPSIxIiB5PSI5IiB4PSI0Ii8+PHJlY3QgZmlsbD0iIzE2MTQxMiIgaGVpZ2h0PSIxIiB3aWR0aD0iMSIgeT0iMTAiIHg9IjQiLz48cmVjdCBmaWxsPSIjNGE0ODRhIiBoZWlnaHQ9IjEiIHdpZHRoPSIxIiB5PSI1IiB4PSI1Ii8+PHJlY3QgZmlsbD0iIzI3MjYyNCIgaGVpZ2h0PSIxIiB3aWR0aD0iMSIgeT0iNiIgeD0iNSIvPjxyZWN0IGZpbGw9IiMxYjE4MTciIGhlaWdodD0iMSIgd2lkdGg9IjEiIHk9IjciIHg9IjUiLz48cmVjdCBmaWxsPSIjMjcyMzIwIiBoZWlnaHQ9IjEiIHdpZHRoPSIxIiB5PSI4IiB4PSI1Ii8+PHJlY3QgZmlsbD0iIzFiMTgxNyIgaGVpZ2h0PSIxIiB3aWR0aD0iMSIgeT0iOSIgeD0iNSIvPjxyZWN0IGZpbGw9IiMxOTE2MTQiIGhlaWdodD0iMSIgd2lkdGg9IjEiIHk9IjEwIiB4PSI1Ii8+PHJlY3QgZmlsbD0iIzI3MjMyMCIgaGVpZ2h0PSIxIiB3aWR0aD0iMSIgeT0iNCIgeD0iNiIvPjxyZWN0IGZpbGw9IiMyNzI2MjQiIGhlaWdodD0iMSIgd2lkdGg9IjEiIHk9IjUiIHg9IjYiLz48cmVjdCBmaWxsPSIjMjcyNjI0IiBoZWlnaHQ9IjEiIHdpZHRoPSIxIiB5PSI2IiB4PSI2Ii8+PHJlY3QgZmlsbD0iIzIwMWQxYSIgaGVpZ2h0PSIxIiB3aWR0aD0iMSIgeT0iNyIgeD0iNiIvPjxyZWN0IGZpbGw9IiMyNzIzMjAiIGhlaWdodD0iMSIgd2lkdGg9IjEiIHk9IjgiIHg9IjYiLz48cmVjdCBmaWxsPSIjMWIxODE3IiBoZWlnaHQ9IjEiIHdpZHRoPSIxIiB5PSI5IiB4PSI2Ii8+PHJlY3QgZmlsbD0iIzE5MTYxNCIgaGVpZ2h0PSIxIiB3aWR0aD0iMSIgeT0iMTAiIHg9IjYiLz48cmVjdCBmaWxsPSIjMjcyMzIwIiBoZWlnaHQ9IjEiIHdpZHRoPSIxIiB5PSI0IiB4PSI3Ii8+PHJlY3QgZmlsbD0iIzI3MjMyMCIgaGVpZ2h0PSIxIiB3aWR0aD0iMSIgeT0iNSIgeD0iNyIvPjxyZWN0IGZpbGw9IiMyNzIzMjAiIGhlaWdodD0iMSIgd2lkdGg9IjEiIHk9IjYiIHg9IjciLz48cmVjdCBmaWxsPSIjMjAxZDFhIiBoZWlnaHQ9IjEiIHdpZHRoPSIxIiB5PSI3IiB4PSI3Ii8+PHJlY3QgZmlsbD0iIzIyMWYxYyIgaGVpZ2h0PSIxIiB3aWR0aD0iMSIgeT0iOCIgeD0iNyIvPjxyZWN0IGZpbGw9IiMxYjE4MTciIGhlaWdodD0iMSIgd2lkdGg9IjEiIHk9IjkiIHg9IjciLz48cmVjdCBmaWxsPSIjMTYxNDEyIiBoZWlnaHQ9IjEiIHdpZHRoPSIxIiB5PSIxMCIgeD0iNyIvPjxyZWN0IGZpbGw9IiMyYTI3MjYiIGhlaWdodD0iMSIgd2lkdGg9IjEiIHk9IjExIiB4PSI3Ii8+PHJlY3QgZmlsbD0iIzM2MzEyZiIgaGVpZ2h0PSIxIiB3aWR0aD0iMSIgeT0iMTIiIHg9IjciLz48cmVjdCBmaWxsPSIjM2EzNjM0IiBoZWlnaHQ9IjEiIHdpZHRoPSIxIiB5PSIxMyIgeD0iNyIvPjxyZWN0IGZpbGw9IiM0MDNiMzkiIGhlaWdodD0iMSIgd2lkdGg9IjEiIHk9IjE0IiB4PSI3Ii8+PHJlY3QgZmlsbD0iIzNhMzYzNCIgaGVpZ2h0PSIxIiB3aWR0aD0iMSIgeT0iMTUiIHg9IjciLz48cmVjdCBmaWxsPSIjMjIxZjFjIiBoZWlnaHQ9IjEiIHdpZHRoPSIxIiB5PSI0IiB4PSI4Ii8+PHJlY3QgZmlsbD0iIzIyMWYxYyIgaGVpZ2h0PSIxIiB3aWR0aD0iMSIgeT0iNSIgeD0iOCIvPjxyZWN0IGZpbGw9IiMyNzI2MjQiIGhlaWdodD0iMSIgd2lkdGg9IjEiIHk9IjYiIHg9IjgiLz48cmVjdCBmaWxsPSIjMjcyNjI0IiBoZWlnaHQ9IjEiIHdpZHRoPSIxIiB5PSI3IiB4PSI4Ii8+PHJlY3QgZmlsbD0iIzFiMTgxNyIgaGVpZ2h0PSIxIiB3aWR0aD0iMSIgeT0iOCIgeD0iOCIvPjxyZWN0IGZpbGw9IiMxOTE2MTQiIGhlaWdodD0iMSIgd2lkdGg9IjEiIHk9IjkiIHg9IjgiLz48cmVjdCBmaWxsPSIjMTYxNDEyIiBoZWlnaHQ9IjEiIHdpZHRoPSIxIiB5PSIxMCIgeD0iOCIvPjxyZWN0IGZpbGw9IiMzMDJjMmEiIGhlaWdodD0iMSIgd2lkdGg9IjEiIHk9IjExIiB4PSI4Ii8+PHJlY3QgZmlsbD0iIzM1MzAyZiIgaGVpZ2h0PSIxIiB3aWR0aD0iMSIgeT0iMTIiIHg9IjgiLz48cmVjdCBmaWxsPSIjNDAzYjM5IiBoZWlnaHQ9IjEiIHdpZHRoPSIxIiB5PSIxMyIgeD0iOCIvPjxyZWN0IGZpbGw9IiMzYTM2MzQiIGhlaWdodD0iMSIgd2lkdGg9IjEiIHk9IjE0IiB4PSI4Ii8+PHJlY3QgZmlsbD0iIzM1MzAyZiIgaGVpZ2h0PSIxIiB3aWR0aD0iMSIgeT0iMTUiIHg9IjgiLz48cmVjdCBmaWxsPSIjNGE0ODRhIiBoZWlnaHQ9IjEiIHdpZHRoPSIxIiB5PSI0IiB4PSI5Ii8+PHJlY3QgZmlsbD0iIzIyMWYxYyIgaGVpZ2h0PSIxIiB3aWR0aD0iMSIgeT0iNSIgeD0iOSIvPjxyZWN0IGZpbGw9IiM0YTQ4NGEiIGhlaWdodD0iMSIgd2lkdGg9IjEiIHk9IjYiIHg9IjkiLz48cmVjdCBmaWxsPSIjMjcyNjI0IiBoZWlnaHQ9IjEiIHdpZHRoPSIxIiB5PSI3IiB4PSI5Ii8+PHJlY3QgZmlsbD0iIzE5MTYxNCIgaGVpZ2h0PSIxIiB3aWR0aD0iMSIgeT0iOCIgeD0iOSIvPjxyZWN0IGZpbGw9IiMxOTE2MTQiIGhlaWdodD0iMSIgd2lkdGg9IjEiIHk9IjkiIHg9IjkiLz48cmVjdCBmaWxsPSIjMTkxNjE0IiBoZWlnaHQ9IjEiIHdpZHRoPSIxIiB5PSIxMCIgeD0iOSIvPjxyZWN0IGZpbGw9IiMyMDFkMWEiIGhlaWdodD0iMSIgd2lkdGg9IjEiIHk9IjUiIHg9IjEwIi8+PHJlY3QgZmlsbD0iIzIwMWQxYSIgaGVpZ2h0PSIxIiB3aWR0aD0iMSIgeT0iNiIgeD0iMTAiLz48cmVjdCBmaWxsPSIjMWIxODE3IiBoZWlnaHQ9IjEiIHdpZHRoPSIxIiB5PSI3IiB4PSIxMCIvPjxyZWN0IGZpbGw9IiMxOTE2MTQiIGhlaWdodD0iMSIgd2lkdGg9IjEiIHk9IjgiIHg9IjEwIi8+PHJlY3QgZmlsbD0iIzFiMTgxNyIgaGVpZ2h0PSIxIiB3aWR0aD0iMSIgeT0iOSIgeD0iMTAiLz48cmVjdCBmaWxsPSIjMTkxNjE0IiBoZWlnaHQ9IjEiIHdpZHRoPSIxIiB5PSIxMCIgeD0iMTAiLz48cmVjdCBmaWxsPSIjMjYyMjIwIiBoZWlnaHQ9IjEiIHdpZHRoPSIxIiB5PSI4IiB4PSIxMSIvPjxyZWN0IGZpbGw9IiMxYjE4MTciIGhlaWdodD0iMSIgd2lkdGg9IjEiIHk9IjkiIHg9IjExIi8+PHJlY3QgZmlsbD0iIzE2MTQxMiIgaGVpZ2h0PSIxIiB3aWR0aD0iMSIgeT0iMTAiIHg9IjExIi8+PHJlY3QgZmlsbD0iIzFiMTgxNyIgaGVpZ2h0PSIxIiB3aWR0aD0iMSIgeT0iOCIgeD0iMTIiLz48cmVjdCBmaWxsPSIjMTYxNDEyIiBoZWlnaHQ9IjEiIHdpZHRoPSIxIiB5PSI5IiB4PSIxMiIvPjwvc3ZnPg==;labelPosition=center;align=center;spacing=0;fontColor=default;labelBorderColor=none;" parent="1" vertex="1">
          <mxGeometry x="980" y="920" width="80" height="80" as="geometry" />
        </mxCell>
        <mxCell id="qW4fd-eMchWfomqCqG8H-6" value="" style="ellipse;whiteSpace=wrap;html=1;aspect=fixed;fillColor=#ffe6cc;strokeColor=#d79b00;" parent="1" vertex="1">
          <mxGeometry x="920" y="800" width="80" height="80" as="geometry" />
        </mxCell>
        <mxCell id="qW4fd-eMchWfomqCqG8H-7" value="" style="ellipse;whiteSpace=wrap;html=1;aspect=fixed;fillColor=#ffe6cc;strokeColor=#d79b00;" parent="1" vertex="1">
          <mxGeometry x="1040" y="800" width="80" height="80" as="geometry" />
        </mxCell>
        <mxCell id="qW4fd-eMchWfomqCqG8H-4" value="Polyporus antiquus" style="shape=image;verticalLabelPosition=top;labelBackgroundColor=default;verticalAlign=bottom;aspect=fixed;imageAspect=0;image=data:image/svg+xml,PHN2ZyB4bWxucz0iaHR0cDovL3d3dy53My5vcmcvMjAwMC9zdmciIGhlaWdodD0iMTYiIHdpZHRoPSIxNiIgdmlld0JveD0iMCAwIDE2IDE2Ij48cmVjdCBmaWxsPSIjMWMxMjEwIiBoZWlnaHQ9IjEiIHdpZHRoPSIxIiB5PSI4IiB4PSIzIi8+PHJlY3QgZmlsbD0iIzE5MTAwZSIgaGVpZ2h0PSIxIiB3aWR0aD0iMSIgeT0iOSIgeD0iMyIvPjxyZWN0IGZpbGw9IiMyNzFhMTYiIGhlaWdodD0iMSIgd2lkdGg9IjEiIHk9IjgiIHg9IjQiLz48cmVjdCBmaWxsPSIjMWMxMjEwIiBoZWlnaHQ9IjEiIHdpZHRoPSIxIiB5PSI5IiB4PSI0Ii8+PHJlY3QgZmlsbD0iIzE5MTAwZSIgaGVpZ2h0PSIxIiB3aWR0aD0iMSIgeT0iMTAiIHg9IjQiLz48cmVjdCBmaWxsPSIjNTIzNjJmIiBoZWlnaHQ9IjEiIHdpZHRoPSIxIiB5PSI1IiB4PSI1Ii8+PHJlY3QgZmlsbD0iIzI5MTMwZCIgaGVpZ2h0PSIxIiB3aWR0aD0iMSIgeT0iNiIgeD0iNSIvPjxyZWN0IGZpbGw9IiMxZjE0MTIiIGhlaWdodD0iMSIgd2lkdGg9IjEiIHk9IjciIHg9IjUiLz48cmVjdCBmaWxsPSIjMmMxZDE5IiBoZWlnaHQ9IjEiIHdpZHRoPSIxIiB5PSI4IiB4PSI1Ii8+PHJlY3QgZmlsbD0iIzFmMTQxMiIgaGVpZ2h0PSIxIiB3aWR0aD0iMSIgeT0iOSIgeD0iNSIvPjxyZWN0IGZpbGw9IiMxYzEyMTAiIGhlaWdodD0iMSIgd2lkdGg9IjEiIHk9IjEwIiB4PSI1Ii8+PHJlY3QgZmlsbD0iIzJjMWQxOSIgaGVpZ2h0PSIxIiB3aWR0aD0iMSIgeT0iNCIgeD0iNiIvPjxyZWN0IGZpbGw9IiMyOTEzMGQiIGhlaWdodD0iMSIgd2lkdGg9IjEiIHk9IjUiIHg9IjYiLz48cmVjdCBmaWxsPSIjMjkxMzBkIiBoZWlnaHQ9IjEiIHdpZHRoPSIxIiB5PSI2IiB4PSI2Ii8+PHJlY3QgZmlsbD0iIzI0MTgxNSIgaGVpZ2h0PSIxIiB3aWR0aD0iMSIgeT0iNyIgeD0iNiIvPjxyZWN0IGZpbGw9IiMyYzFkMTkiIGhlaWdodD0iMSIgd2lkdGg9IjEiIHk9IjgiIHg9IjYiLz48cmVjdCBmaWxsPSIjMWYxNDEyIiBoZWlnaHQ9IjEiIHdpZHRoPSIxIiB5PSI5IiB4PSI2Ii8+PHJlY3QgZmlsbD0iIzFjMTIxMCIgaGVpZ2h0PSIxIiB3aWR0aD0iMSIgeT0iMTAiIHg9IjYiLz48cmVjdCBmaWxsPSIjMmMxZDE5IiBoZWlnaHQ9IjEiIHdpZHRoPSIxIiB5PSI0IiB4PSI3Ii8+PHJlY3QgZmlsbD0iIzJjMWQxOSIgaGVpZ2h0PSIxIiB3aWR0aD0iMSIgeT0iNSIgeD0iNyIvPjxyZWN0IGZpbGw9IiMyYzFkMTkiIGhlaWdodD0iMSIgd2lkdGg9IjEiIHk9IjYiIHg9IjciLz48cmVjdCBmaWxsPSIjMjQxODE1IiBoZWlnaHQ9IjEiIHdpZHRoPSIxIiB5PSI3IiB4PSI3Ii8+PHJlY3QgZmlsbD0iIzI3MWExNiIgaGVpZ2h0PSIxIiB3aWR0aD0iMSIgeT0iOCIgeD0iNyIvPjxyZWN0IGZpbGw9IiMxZjE0MTIiIGhlaWdodD0iMSIgd2lkdGg9IjEiIHk9IjkiIHg9IjciLz48cmVjdCBmaWxsPSIjMTkxMDBlIiBoZWlnaHQ9IjEiIHdpZHRoPSIxIiB5PSIxMCIgeD0iNyIvPjxyZWN0IGZpbGw9IiMxYzEyMTAiIGhlaWdodD0iMSIgd2lkdGg9IjEiIHk9IjExIiB4PSI3Ii8+PHJlY3QgZmlsbD0iIzI0MTcxNCIgaGVpZ2h0PSIxIiB3aWR0aD0iMSIgeT0iMTIiIHg9IjciLz48cmVjdCBmaWxsPSIjMjcxOTE2IiBoZWlnaHQ9IjEiIHdpZHRoPSIxIiB5PSIxMyIgeD0iNyIvPjxyZWN0IGZpbGw9IiMyYjFjMTgiIGhlaWdodD0iMSIgd2lkdGg9IjEiIHk9IjE0IiB4PSI3Ii8+PHJlY3QgZmlsbD0iIzI3MTkxNiIgaGVpZ2h0PSIxIiB3aWR0aD0iMSIgeT0iMTUiIHg9IjciLz48cmVjdCBmaWxsPSIjMjcxYTE2IiBoZWlnaHQ9IjEiIHdpZHRoPSIxIiB5PSI0IiB4PSI4Ii8+PHJlY3QgZmlsbD0iIzI3MWExNiIgaGVpZ2h0PSIxIiB3aWR0aD0iMSIgeT0iNSIgeD0iOCIvPjxyZWN0IGZpbGw9IiMyOTEzMGQiIGhlaWdodD0iMSIgd2lkdGg9IjEiIHk9IjYiIHg9IjgiLz48cmVjdCBmaWxsPSIjMjkxMzBkIiBoZWlnaHQ9IjEiIHdpZHRoPSIxIiB5PSI3IiB4PSI4Ii8+PHJlY3QgZmlsbD0iIzFmMTQxMiIgaGVpZ2h0PSIxIiB3aWR0aD0iMSIgeT0iOCIgeD0iOCIvPjxyZWN0IGZpbGw9IiMxYzEyMTAiIGhlaWdodD0iMSIgd2lkdGg9IjEiIHk9IjkiIHg9IjgiLz48cmVjdCBmaWxsPSIjMTkxMDBlIiBoZWlnaHQ9IjEiIHdpZHRoPSIxIiB5PSIxMCIgeD0iOCIvPjxyZWN0IGZpbGw9IiMyMDE1MTIiIGhlaWdodD0iMSIgd2lkdGg9IjEiIHk9IjExIiB4PSI4Ii8+PHJlY3QgZmlsbD0iIzIzMTcxNCIgaGVpZ2h0PSIxIiB3aWR0aD0iMSIgeT0iMTIiIHg9IjgiLz48cmVjdCBmaWxsPSIjMmIxYzE4IiBoZWlnaHQ9IjEiIHdpZHRoPSIxIiB5PSIxMyIgeD0iOCIvPjxyZWN0IGZpbGw9IiMyNzE5MTYiIGhlaWdodD0iMSIgd2lkdGg9IjEiIHk9IjE0IiB4PSI4Ii8+PHJlY3QgZmlsbD0iIzIzMTcxNCIgaGVpZ2h0PSIxIiB3aWR0aD0iMSIgeT0iMTUiIHg9IjgiLz48cmVjdCBmaWxsPSIjNTIzNjJmIiBoZWlnaHQ9IjEiIHdpZHRoPSIxIiB5PSI0IiB4PSI5Ii8+PHJlY3QgZmlsbD0iIzI3MWExNiIgaGVpZ2h0PSIxIiB3aWR0aD0iMSIgeT0iNSIgeD0iOSIvPjxyZWN0IGZpbGw9IiM1MjM2MmYiIGhlaWdodD0iMSIgd2lkdGg9IjEiIHk9IjYiIHg9IjkiLz48cmVjdCBmaWxsPSIjMjkxMzBkIiBoZWlnaHQ9IjEiIHdpZHRoPSIxIiB5PSI3IiB4PSI5Ii8+PHJlY3QgZmlsbD0iIzFjMTIxMCIgaGVpZ2h0PSIxIiB3aWR0aD0iMSIgeT0iOCIgeD0iOSIvPjxyZWN0IGZpbGw9IiMxYzEyMTAiIGhlaWdodD0iMSIgd2lkdGg9IjEiIHk9IjkiIHg9IjkiLz48cmVjdCBmaWxsPSIjMWMxMjEwIiBoZWlnaHQ9IjEiIHdpZHRoPSIxIiB5PSIxMCIgeD0iOSIvPjxyZWN0IGZpbGw9IiMyNDE4MTUiIGhlaWdodD0iMSIgd2lkdGg9IjEiIHk9IjUiIHg9IjEwIi8+PHJlY3QgZmlsbD0iIzI0MTgxNSIgaGVpZ2h0PSIxIiB3aWR0aD0iMSIgeT0iNiIgeD0iMTAiLz48cmVjdCBmaWxsPSIjMWYxNDEyIiBoZWlnaHQ9IjEiIHdpZHRoPSIxIiB5PSI3IiB4PSIxMCIvPjxyZWN0IGZpbGw9IiMxYzEyMTAiIGhlaWdodD0iMSIgd2lkdGg9IjEiIHk9IjgiIHg9IjEwIi8+PHJlY3QgZmlsbD0iIzFmMTQxMiIgaGVpZ2h0PSIxIiB3aWR0aD0iMSIgeT0iOSIgeD0iMTAiLz48cmVjdCBmaWxsPSIjMWMxMjEwIiBoZWlnaHQ9IjEiIHdpZHRoPSIxIiB5PSIxMCIgeD0iMTAiLz48cmVjdCBmaWxsPSIjMmIxYzE5IiBoZWlnaHQ9IjEiIHdpZHRoPSIxIiB5PSI4IiB4PSIxMSIvPjxyZWN0IGZpbGw9IiMxZjE0MTIiIGhlaWdodD0iMSIgd2lkdGg9IjEiIHk9IjkiIHg9IjExIi8+PHJlY3QgZmlsbD0iIzE5MTAwZSIgaGVpZ2h0PSIxIiB3aWR0aD0iMSIgeT0iMTAiIHg9IjExIi8+PHJlY3QgZmlsbD0iIzFmMTQxMiIgaGVpZ2h0PSIxIiB3aWR0aD0iMSIgeT0iOCIgeD0iMTIiLz48cmVjdCBmaWxsPSIjMTkxMDBlIiBoZWlnaHQ9IjEiIHdpZHRoPSIxIiB5PSI5IiB4PSIxMiIvPjwvc3ZnPg==;spacing=0;labelPosition=center;align=center;" parent="1" vertex="1">
          <mxGeometry x="1040" y="800" width="80" height="80" as="geometry" />
        </mxCell>
        <mxCell id="qW4fd-eMchWfomqCqG8H-8" value="" style="endArrow=none;html=1;rounded=0;exitX=1;exitY=1;exitDx=0;exitDy=0;entryX=0.5;entryY=0;entryDx=0;entryDy=0;" parent="1" source="qW4fd-eMchWfomqCqG8H-6" target="qW4fd-eMchWfomqCqG8H-5" edge="1">
          <mxGeometry width="50" height="50" relative="1" as="geometry">
            <mxPoint x="899" y="830" as="sourcePoint" />
            <mxPoint x="959" y="890" as="targetPoint" />
          </mxGeometry>
        </mxCell>
        <mxCell id="qW4fd-eMchWfomqCqG8H-9" value="" style="endArrow=none;html=1;rounded=0;entryX=0;entryY=1;entryDx=0;entryDy=0;exitX=0.5;exitY=0;exitDx=0;exitDy=0;" parent="1" source="qW4fd-eMchWfomqCqG8H-5" target="qW4fd-eMchWfomqCqG8H-7" edge="1">
          <mxGeometry width="50" height="50" relative="1" as="geometry">
            <mxPoint x="1009" y="870" as="sourcePoint" />
            <mxPoint x="1059" y="820" as="targetPoint" />
          </mxGeometry>
        </mxCell>
        <mxCell id="qW4fd-eMchWfomqCqG8H-10" value="Nether branch" style="rounded=1;whiteSpace=wrap;html=1;fillColor=#fff2cc;strokeColor=#d6b656;" parent="1" vertex="1">
          <mxGeometry x="610" y="960" width="60" height="40" as="geometry" />
        </mxCell>
        <mxCell id="Hz89KFCYKQkw7Tc9vpXd-1" value="" style="ellipse;whiteSpace=wrap;html=1;aspect=fixed;fillColor=#d5e8d4;strokeColor=#82b366;" parent="1" vertex="1">
          <mxGeometry x="920" y="360" width="80" height="80" as="geometry" />
        </mxCell>
        <mxCell id="Hz89KFCYKQkw7Tc9vpXd-3" value="" style="ellipse;whiteSpace=wrap;html=1;aspect=fixed;fillColor=#fad7ac;strokeColor=#b46504;" parent="1" vertex="1">
          <mxGeometry x="740" y="360" width="80" height="80" as="geometry" />
        </mxCell>
        <mxCell id="Hz89KFCYKQkw7Tc9vpXd-4" value="Minerals branch" style="rounded=1;whiteSpace=wrap;html=1;fillColor=#f5f5f5;strokeColor=#666666;fontColor=#333333;" parent="1" vertex="1">
          <mxGeometry x="680" y="960" width="60" height="40" as="geometry" />
        </mxCell>
        <mxCell id="Hz89KFCYKQkw7Tc9vpXd-5" value="" style="ellipse;whiteSpace=wrap;html=1;aspect=fixed;fillColor=#f5f5f5;fontColor=#333333;strokeColor=#666666;" parent="1" vertex="1">
          <mxGeometry x="800" y="560" width="80" height="80" as="geometry" />
        </mxCell>
        <mxCell id="Hz89KFCYKQkw7Tc9vpXd-6" value="" style="endArrow=none;html=1;rounded=0;entryX=0.5;entryY=1;entryDx=0;entryDy=0;" parent="1" target="Hz89KFCYKQkw7Tc9vpXd-3" edge="1">
          <mxGeometry width="50" height="50" relative="1" as="geometry">
            <mxPoint x="780" y="540" as="sourcePoint" />
            <mxPoint x="930" y="520" as="targetPoint" />
          </mxGeometry>
        </mxCell>
        <mxCell id="Hz89KFCYKQkw7Tc9vpXd-7" value="" style="endArrow=none;html=1;rounded=0;entryX=0.5;entryY=1;entryDx=0;entryDy=0;exitX=0.5;exitY=0;exitDx=0;exitDy=0;" parent="1" target="Hz89KFCYKQkw7Tc9vpXd-1" edge="1" source="Hz89KFCYKQkw7Tc9vpXd-10">
          <mxGeometry width="50" height="50" relative="1" as="geometry">
            <mxPoint x="960" y="560" as="sourcePoint" />
            <mxPoint x="990" y="520" as="targetPoint" />
            <Array as="points">
              <mxPoint x="960" y="560" />
            </Array>
          </mxGeometry>
        </mxCell>
        <mxCell id="Hz89KFCYKQkw7Tc9vpXd-8" value="" style="endArrow=none;html=1;rounded=0;entryX=0;entryY=1;entryDx=0;entryDy=0;exitX=0.5;exitY=0;exitDx=0;exitDy=0;" parent="1" source="Hz89KFCYKQkw7Tc9vpXd-3" target="ZMy1RVDnMmDh1pD7vt_q-58" edge="1">
          <mxGeometry width="50" height="50" relative="1" as="geometry">
            <mxPoint x="720" y="400" as="sourcePoint" />
            <mxPoint x="820" y="350" as="targetPoint" />
          </mxGeometry>
        </mxCell>
        <mxCell id="Hz89KFCYKQkw7Tc9vpXd-9" value="" style="endArrow=none;html=1;rounded=0;entryX=1;entryY=1;entryDx=0;entryDy=0;exitX=0.5;exitY=0;exitDx=0;exitDy=0;" parent="1" source="Hz89KFCYKQkw7Tc9vpXd-3" target="ZMy1RVDnMmDh1pD7vt_q-59" edge="1">
          <mxGeometry width="50" height="50" relative="1" as="geometry">
            <mxPoint x="820" y="370" as="sourcePoint" />
            <mxPoint x="870" y="320" as="targetPoint" />
          </mxGeometry>
        </mxCell>
        <mxCell id="Hz89KFCYKQkw7Tc9vpXd-10" value="" style="ellipse;whiteSpace=wrap;html=1;aspect=fixed;fillColor=#f5f5f5;fontColor=#333333;strokeColor=#666666;" parent="1" vertex="1">
          <mxGeometry x="860" y="680" width="80" height="80" as="geometry" />
        </mxCell>
        <mxCell id="Hz89KFCYKQkw7Tc9vpXd-11" value="" style="endArrow=none;html=1;rounded=0;entryX=1;entryY=1;entryDx=0;entryDy=0;exitX=0.5;exitY=0;exitDx=0;exitDy=0;" parent="1" source="Hz89KFCYKQkw7Tc9vpXd-10" target="Hz89KFCYKQkw7Tc9vpXd-5" edge="1">
          <mxGeometry width="50" height="50" relative="1" as="geometry">
            <mxPoint x="920" y="630" as="sourcePoint" />
            <mxPoint x="970" y="580" as="targetPoint" />
          </mxGeometry>
        </mxCell>
        <mxCell id="ENFvi0ErVI7SxLKDfdE1-1" value="" style="ellipse;whiteSpace=wrap;html=1;aspect=fixed;fillColor=#f5f5f5;fontColor=#333333;strokeColor=#666666;" parent="1" vertex="1">
          <mxGeometry x="980" y="680" width="80" height="80" as="geometry" />
        </mxCell>
        <mxCell id="ENFvi0ErVI7SxLKDfdE1-2" value="" style="endArrow=none;html=1;rounded=0;entryX=1;entryY=1;entryDx=0;entryDy=0;exitX=0.5;exitY=0;exitDx=0;exitDy=0;" parent="1" source="qW4fd-eMchWfomqCqG8H-6" target="Hz89KFCYKQkw7Tc9vpXd-10" edge="1">
          <mxGeometry width="50" height="50" relative="1" as="geometry">
            <mxPoint x="1050" y="770" as="sourcePoint" />
            <mxPoint x="1100" y="720" as="targetPoint" />
          </mxGeometry>
        </mxCell>
        <mxCell id="ENFvi0ErVI7SxLKDfdE1-3" value="" style="endArrow=none;html=1;rounded=0;entryX=0;entryY=1;entryDx=0;entryDy=0;exitX=0.5;exitY=0;exitDx=0;exitDy=0;" parent="1" source="qW4fd-eMchWfomqCqG8H-6" target="ENFvi0ErVI7SxLKDfdE1-1" edge="1">
          <mxGeometry width="50" height="50" relative="1" as="geometry">
            <mxPoint x="1050" y="770" as="sourcePoint" />
            <mxPoint x="1100" y="720" as="targetPoint" />
          </mxGeometry>
        </mxCell>
        <mxCell id="qW4fd-eMchWfomqCqG8H-3" value="Galerina aurata" style="shape=image;verticalLabelPosition=bottom;labelBackgroundColor=default;verticalAlign=top;aspect=fixed;imageAspect=0;image=data:image/svg+xml,PHN2ZyB4bWxucz0iaHR0cDovL3d3dy53My5vcmcvMjAwMC9zdmciIGhlaWdodD0iMTYiIHdpZHRoPSIxNiIgdmlld0JveD0iMCAwIDE2IDE2Ij48cmVjdCBmaWxsPSIjYzE5MjEzIiBoZWlnaHQ9IjEiIHdpZHRoPSIxIiB5PSI3IiB4PSIzIi8+PHJlY3QgZmlsbD0iI2I2OGExMiIgaGVpZ2h0PSIxIiB3aWR0aD0iMSIgeT0iOCIgeD0iMyIvPjxyZWN0IGZpbGw9IiM5Zjc4MTAiIGhlaWdodD0iMSIgd2lkdGg9IjEiIHk9IjkiIHg9IjMiLz48cmVjdCBmaWxsPSIjOWY3ODEwIiBoZWlnaHQ9IjEiIHdpZHRoPSIxIiB5PSIxMCIgeD0iMyIvPjxyZWN0IGZpbGw9IiNkNWNjODQiIGhlaWdodD0iMSIgd2lkdGg9IjEiIHk9IjciIHg9IjQiLz48cmVjdCBmaWxsPSIjYzE5MjEzIiBoZWlnaHQ9IjEiIHdpZHRoPSIxIiB5PSI4IiB4PSI0Ii8+PHJlY3QgZmlsbD0iI2I2OGExMiIgaGVpZ2h0PSIxIiB3aWR0aD0iMSIgeT0iOSIgeD0iNCIvPjxyZWN0IGZpbGw9IiM5Zjc4MTAiIGhlaWdodD0iMSIgd2lkdGg9IjEiIHk9IjEwIiB4PSI0Ii8+PHJlY3QgZmlsbD0iI2QyOWYxNSIgaGVpZ2h0PSIxIiB3aWR0aD0iMSIgeT0iNyIgeD0iNSIvPjxyZWN0IGZpbGw9IiNkMjlmMTUiIGhlaWdodD0iMSIgd2lkdGg9IjEiIHk9IjgiIHg9IjUiLz48cmVjdCBmaWxsPSIjYjY4YTEyIiBoZWlnaHQ9IjEiIHdpZHRoPSIxIiB5PSI5IiB4PSI1Ii8+PHJlY3QgZmlsbD0iIzlmNzgxMCIgaGVpZ2h0PSIxIiB3aWR0aD0iMSIgeT0iMTAiIHg9IjUiLz48cmVjdCBmaWxsPSIjZDI5ZjE1IiBoZWlnaHQ9IjEiIHdpZHRoPSIxIiB5PSI3IiB4PSI2Ii8+PHJlY3QgZmlsbD0iI2QyOWYxNSIgaGVpZ2h0PSIxIiB3aWR0aD0iMSIgeT0iOCIgeD0iNiIvPjxyZWN0IGZpbGw9IiNkNWNjODQiIGhlaWdodD0iMSIgd2lkdGg9IjEiIHk9IjkiIHg9IjYiLz48cmVjdCBmaWxsPSIjZmJjNTZhIiBoZWlnaHQ9IjEiIHdpZHRoPSIxIiB5PSIxMCIgeD0iNiIvPjxyZWN0IGZpbGw9IiNkMjlmMTUiIGhlaWdodD0iMSIgd2lkdGg9IjEiIHk9IjciIHg9IjciLz48cmVjdCBmaWxsPSIjZDI5ZjE1IiBoZWlnaHQ9IjEiIHdpZHRoPSIxIiB5PSI4IiB4PSI3Ii8+PHJlY3QgZmlsbD0iI2ZiYzU2YSIgaGVpZ2h0PSIxIiB3aWR0aD0iMSIgeT0iOSIgeD0iNyIvPjxyZWN0IGZpbGw9IiNmYmM1NmEiIGhlaWdodD0iMSIgd2lkdGg9IjEiIHk9IjEwIiB4PSI3Ii8+PHJlY3QgZmlsbD0iIzlmOGU1OCIgaGVpZ2h0PSIxIiB3aWR0aD0iMSIgeT0iMTEiIHg9IjciLz48cmVjdCBmaWxsPSIjYWQ5YTYwIiBoZWlnaHQ9IjEiIHdpZHRoPSIxIiB5PSIxMiIgeD0iNyIvPjxyZWN0IGZpbGw9IiNiYWE2NjciIGhlaWdodD0iMSIgd2lkdGg9IjEiIHk9IjEzIiB4PSI3Ii8+PHJlY3QgZmlsbD0iI2FkOWE2MCIgaGVpZ2h0PSIxIiB3aWR0aD0iMSIgeT0iMTQiIHg9IjciLz48cmVjdCBmaWxsPSIjYmFhNjY3IiBoZWlnaHQ9IjEiIHdpZHRoPSIxIiB5PSIxNSIgeD0iNyIvPjxyZWN0IGZpbGw9IiNkMjlmMTUiIGhlaWdodD0iMSIgd2lkdGg9IjEiIHk9IjciIHg9IjgiLz48cmVjdCBmaWxsPSIjZDI5ZjE1IiBoZWlnaHQ9IjEiIHdpZHRoPSIxIiB5PSI4IiB4PSI4Ii8+PHJlY3QgZmlsbD0iI2MxOTIxMyIgaGVpZ2h0PSIxIiB3aWR0aD0iMSIgeT0iOSIgeD0iOCIvPjxyZWN0IGZpbGw9IiNiMzg4MTIiIGhlaWdodD0iMSIgd2lkdGg9IjEiIHk9IjEwIiB4PSI4Ii8+PHJlY3QgZmlsbD0iIzlmOGU1OCIgaGVpZ2h0PSIxIiB3aWR0aD0iMSIgeT0iMTEiIHg9IjgiLz48cmVjdCBmaWxsPSIjOWY4ZTU4IiBoZWlnaHQ9IjEiIHdpZHRoPSIxIiB5PSIxMiIgeD0iOCIvPjxyZWN0IGZpbGw9IiNhZDlhNjAiIGhlaWdodD0iMSIgd2lkdGg9IjEiIHk9IjEzIiB4PSI4Ii8+PHJlY3QgZmlsbD0iI2JhYTY2NyIgaGVpZ2h0PSIxIiB3aWR0aD0iMSIgeT0iMTQiIHg9IjgiLz48cmVjdCBmaWxsPSIjYWQ5YTYwIiBoZWlnaHQ9IjEiIHdpZHRoPSIxIiB5PSIxNSIgeD0iOCIvPjxyZWN0IGZpbGw9IiNmZmM5NmMiIGhlaWdodD0iMSIgd2lkdGg9IjEiIHk9IjciIHg9IjkiLz48cmVjdCBmaWxsPSIjZmZjOTZjIiBoZWlnaHQ9IjEiIHdpZHRoPSIxIiB5PSI4IiB4PSI5Ii8+PHJlY3QgZmlsbD0iI2I2OGExMiIgaGVpZ2h0PSIxIiB3aWR0aD0iMSIgeT0iOSIgeD0iOSIvPjxyZWN0IGZpbGw9IiNiMzg4MTIiIGhlaWdodD0iMSIgd2lkdGg9IjEiIHk9IjEwIiB4PSI5Ii8+PHJlY3QgZmlsbD0iI2ZmZjU5ZiIgaGVpZ2h0PSIxIiB3aWR0aD0iMSIgeT0iNyIgeD0iMTAiLz48cmVjdCBmaWxsPSIjZmZjOTZjIiBoZWlnaHQ9IjEiIHdpZHRoPSIxIiB5PSI4IiB4PSIxMCIvPjxyZWN0IGZpbGw9IiNiNjhhMTIiIGhlaWdodD0iMSIgd2lkdGg9IjEiIHk9IjkiIHg9IjEwIi8+PHJlY3QgZmlsbD0iIzlmNzgxMCIgaGVpZ2h0PSIxIiB3aWR0aD0iMSIgeT0iMTAiIHg9IjEwIi8+PHJlY3QgZmlsbD0iI2QyOWYxNSIgaGVpZ2h0PSIxIiB3aWR0aD0iMSIgeT0iNyIgeD0iMTEiLz48cmVjdCBmaWxsPSIjYzE5MjEzIiBoZWlnaHQ9IjEiIHdpZHRoPSIxIiB5PSI4IiB4PSIxMSIvPjxyZWN0IGZpbGw9IiNiNjhhMTIiIGhlaWdodD0iMSIgd2lkdGg9IjEiIHk9IjkiIHg9IjExIi8+PHJlY3QgZmlsbD0iIzlmNzgxMCIgaGVpZ2h0PSIxIiB3aWR0aD0iMSIgeT0iMTAiIHg9IjExIi8+PHJlY3QgZmlsbD0iI2MxOTIxMyIgaGVpZ2h0PSIxIiB3aWR0aD0iMSIgeT0iNyIgeD0iMTIiLz48cmVjdCBmaWxsPSIjYjY4YTEyIiBoZWlnaHQ9IjEiIHdpZHRoPSIxIiB5PSI4IiB4PSIxMiIvPjxyZWN0IGZpbGw9IiM5Zjc4MTAiIGhlaWdodD0iMSIgd2lkdGg9IjEiIHk9IjkiIHg9IjEyIi8+PHJlY3QgZmlsbD0iIzlmNzgxMCIgaGVpZ2h0PSIxIiB3aWR0aD0iMSIgeT0iMTAiIHg9IjEyIi8+PC9zdmc+;labelPosition=center;align=center;spacing=0;imageBackground=none;labelBorderColor=none;" parent="1" vertex="1">
          <mxGeometry x="920" y="800" width="80" height="80" as="geometry" />
        </mxCell>
        <mxCell id="pd0Liio7iAFK_N_1mTRH-2" value="Amanita cuprea" style="shape=image;verticalLabelPosition=top;labelBackgroundColor=default;verticalAlign=bottom;aspect=fixed;imageAspect=0;image=data:image/svg+xml,PHN2ZyB4bWxucz0iaHR0cDovL3d3dy53My5vcmcvMjAwMC9zdmciIGhlaWdodD0iMTYiIHdpZHRoPSIxNiIgdmlld0JveD0iMCAwIDE2IDE2Ij48cmVjdCBmaWxsPSIjYWY0ZjJlIiBoZWlnaHQ9IjEiIHdpZHRoPSIxIiB5PSI3IiB4PSIzIi8+PHJlY3QgZmlsbD0iI2E1NGEyYiIgaGVpZ2h0PSIxIiB3aWR0aD0iMSIgeT0iOCIgeD0iMyIvPjxyZWN0IGZpbGw9IiM5MDQxMjYiIGhlaWdodD0iMSIgd2lkdGg9IjEiIHk9IjkiIHg9IjMiLz48cmVjdCBmaWxsPSIjOTA0MTI2IiBoZWlnaHQ9IjEiIHdpZHRoPSIxIiB5PSIxMCIgeD0iMyIvPjxyZWN0IGZpbGw9IiMxYTg4NzAiIGhlaWdodD0iMSIgd2lkdGg9IjEiIHk9IjciIHg9IjQiLz48cmVjdCBmaWxsPSIjYWY0ZjJlIiBoZWlnaHQ9IjEiIHdpZHRoPSIxIiB5PSI4IiB4PSI0Ii8+PHJlY3QgZmlsbD0iI2E1NGEyYiIgaGVpZ2h0PSIxIiB3aWR0aD0iMSIgeT0iOSIgeD0iNCIvPjxyZWN0IGZpbGw9IiM5MDQxMjYiIGhlaWdodD0iMSIgd2lkdGg9IjEiIHk9IjEwIiB4PSI0Ii8+PHJlY3QgZmlsbD0iI2JmNTYzMiIgaGVpZ2h0PSIxIiB3aWR0aD0iMSIgeT0iNyIgeD0iNSIvPjxyZWN0IGZpbGw9IiNiZjU2MzIiIGhlaWdodD0iMSIgd2lkdGg9IjEiIHk9IjgiIHg9IjUiLz48cmVjdCBmaWxsPSIjYTU0YTJiIiBoZWlnaHQ9IjEiIHdpZHRoPSIxIiB5PSI5IiB4PSI1Ii8+PHJlY3QgZmlsbD0iIzkwNDEyNiIgaGVpZ2h0PSIxIiB3aWR0aD0iMSIgeT0iMTAiIHg9IjUiLz48cmVjdCBmaWxsPSIjYmY1NjMyIiBoZWlnaHQ9IjEiIHdpZHRoPSIxIiB5PSI3IiB4PSI2Ii8+PHJlY3QgZmlsbD0iI2JmNTYzMiIgaGVpZ2h0PSIxIiB3aWR0aD0iMSIgeT0iOCIgeD0iNiIvPjxyZWN0IGZpbGw9IiMxYTg4NzAiIGhlaWdodD0iMSIgd2lkdGg9IjEiIHk9IjkiIHg9IjYiLz48cmVjdCBmaWxsPSIjMWY3ZDY2IiBoZWlnaHQ9IjEiIHdpZHRoPSIxIiB5PSIxMCIgeD0iNiIvPjxyZWN0IGZpbGw9IiNiZjU2MzIiIGhlaWdodD0iMSIgd2lkdGg9IjEiIHk9IjciIHg9IjciLz48cmVjdCBmaWxsPSIjYmY1NjMyIiBoZWlnaHQ9IjEiIHdpZHRoPSIxIiB5PSI4IiB4PSI3Ii8+PHJlY3QgZmlsbD0iIzFmN2Q2NiIgaGVpZ2h0PSIxIiB3aWR0aD0iMSIgeT0iOSIgeD0iNyIvPjxyZWN0IGZpbGw9IiMxZjdkNjYiIGhlaWdodD0iMSIgd2lkdGg9IjEiIHk9IjEwIiB4PSI3Ii8+PHJlY3QgZmlsbD0iIzdkNjE0ZCIgaGVpZ2h0PSIxIiB3aWR0aD0iMSIgeT0iMTEiIHg9IjciLz48cmVjdCBmaWxsPSIjODg2OTUzIiBoZWlnaHQ9IjEiIHdpZHRoPSIxIiB5PSIxMiIgeD0iNyIvPjxyZWN0IGZpbGw9IiM5MjcxNWEiIGhlaWdodD0iMSIgd2lkdGg9IjEiIHk9IjEzIiB4PSI3Ii8+PHJlY3QgZmlsbD0iIzg4Njk1MyIgaGVpZ2h0PSIxIiB3aWR0aD0iMSIgeT0iMTQiIHg9IjciLz48cmVjdCBmaWxsPSIjOTI3MTVhIiBoZWlnaHQ9IjEiIHdpZHRoPSIxIiB5PSIxNSIgeD0iNyIvPjxyZWN0IGZpbGw9IiNiZjU2MzIiIGhlaWdodD0iMSIgd2lkdGg9IjEiIHk9IjciIHg9IjgiLz48cmVjdCBmaWxsPSIjYmY1NjMyIiBoZWlnaHQ9IjEiIHdpZHRoPSIxIiB5PSI4IiB4PSI4Ii8+PHJlY3QgZmlsbD0iI2FmNGYyZSIgaGVpZ2h0PSIxIiB3aWR0aD0iMSIgeT0iOSIgeD0iOCIvPjxyZWN0IGZpbGw9IiNhMjQ5MmEiIGhlaWdodD0iMSIgd2lkdGg9IjEiIHk9IjEwIiB4PSI4Ii8+PHJlY3QgZmlsbD0iIzdkNjE0ZCIgaGVpZ2h0PSIxIiB3aWR0aD0iMSIgeT0iMTEiIHg9IjgiLz48cmVjdCBmaWxsPSIjN2Q2MTRkIiBoZWlnaHQ9IjEiIHdpZHRoPSIxIiB5PSIxMiIgeD0iOCIvPjxyZWN0IGZpbGw9IiM4ODY5NTMiIGhlaWdodD0iMSIgd2lkdGg9IjEiIHk9IjEzIiB4PSI4Ii8+PHJlY3QgZmlsbD0iIzkyNzE1YSIgaGVpZ2h0PSIxIiB3aWR0aD0iMSIgeT0iMTQiIHg9IjgiLz48cmVjdCBmaWxsPSIjODg2OTUzIiBoZWlnaHQ9IjEiIHdpZHRoPSIxIiB5PSIxNSIgeD0iOCIvPjxyZWN0IGZpbGw9IiMyMDgwNjgiIGhlaWdodD0iMSIgd2lkdGg9IjEiIHk9IjciIHg9IjkiLz48cmVjdCBmaWxsPSIjMjA4MDY4IiBoZWlnaHQ9IjEiIHdpZHRoPSIxIiB5PSI4IiB4PSI5Ii8+PHJlY3QgZmlsbD0iI2E1NGEyYiIgaGVpZ2h0PSIxIiB3aWR0aD0iMSIgeT0iOSIgeD0iOSIvPjxyZWN0IGZpbGw9IiNhMjQ5MmEiIGhlaWdodD0iMSIgd2lkdGg9IjEiIHk9IjEwIiB4PSI5Ii8+PHJlY3QgZmlsbD0iIzIwYTM4NyIgaGVpZ2h0PSIxIiB3aWR0aD0iMSIgeT0iNyIgeD0iMTAiLz48cmVjdCBmaWxsPSIjMjA4MDY4IiBoZWlnaHQ9IjEiIHdpZHRoPSIxIiB5PSI4IiB4PSIxMCIvPjxyZWN0IGZpbGw9IiNhNTRhMmIiIGhlaWdodD0iMSIgd2lkdGg9IjEiIHk9IjkiIHg9IjEwIi8+PHJlY3QgZmlsbD0iIzkwNDEyNiIgaGVpZ2h0PSIxIiB3aWR0aD0iMSIgeT0iMTAiIHg9IjEwIi8+PHJlY3QgZmlsbD0iI2JmNTYzMiIgaGVpZ2h0PSIxIiB3aWR0aD0iMSIgeT0iNyIgeD0iMTEiLz48cmVjdCBmaWxsPSIjYWY0ZjJlIiBoZWlnaHQ9IjEiIHdpZHRoPSIxIiB5PSI4IiB4PSIxMSIvPjxyZWN0IGZpbGw9IiNhNTRhMmIiIGhlaWdodD0iMSIgd2lkdGg9IjEiIHk9IjkiIHg9IjExIi8+PHJlY3QgZmlsbD0iIzkwNDEyNiIgaGVpZ2h0PSIxIiB3aWR0aD0iMSIgeT0iMTAiIHg9IjExIi8+PHJlY3QgZmlsbD0iI2FmNGYyZSIgaGVpZ2h0PSIxIiB3aWR0aD0iMSIgeT0iNyIgeD0iMTIiLz48cmVjdCBmaWxsPSIjYTU0YTJiIiBoZWlnaHQ9IjEiIHdpZHRoPSIxIiB5PSI4IiB4PSIxMiIvPjxyZWN0IGZpbGw9IiM5MDQxMjYiIGhlaWdodD0iMSIgd2lkdGg9IjEiIHk9IjkiIHg9IjEyIi8+PHJlY3QgZmlsbD0iIzkwNDEyNiIgaGVpZ2h0PSIxIiB3aWR0aD0iMSIgeT0iMTAiIHg9IjEyIi8+PC9zdmc+;spacing=0;labelPosition=center;align=center;" parent="1" vertex="1">
          <mxGeometry x="980" y="680" width="80" height="80" as="geometry" />
        </mxCell>
        <mxCell id="pd0Liio7iAFK_N_1mTRH-3" value="Xerocomus&#xa;ferrugineus" style="shape=image;verticalLabelPosition=bottom;labelBackgroundColor=default;verticalAlign=top;aspect=fixed;imageAspect=0;image=data:image/svg+xml,PHN2ZyB4bWxucz0iaHR0cDovL3d3dy53My5vcmcvMjAwMC9zdmciIGhlaWdodD0iMTYiIHdpZHRoPSIxNiIgdmlld0JveD0iMCAwIDE2IDE2Ij48cmVjdCBmaWxsPSIjNzA2NTVmIiBoZWlnaHQ9IjEiIHdpZHRoPSIxIiB5PSI3IiB4PSIzIi8+PHJlY3QgZmlsbD0iIzZhNWY1OSIgaGVpZ2h0PSIxIiB3aWR0aD0iMSIgeT0iOCIgeD0iMyIvPjxyZWN0IGZpbGw9IiM1YzUzNGUiIGhlaWdodD0iMSIgd2lkdGg9IjEiIHk9IjkiIHg9IjMiLz48cmVjdCBmaWxsPSIjNWM1MzRlIiBoZWlnaHQ9IjEiIHdpZHRoPSIxIiB5PSIxMCIgeD0iMyIvPjxyZWN0IGZpbGw9IiNkMWIwOTkiIGhlaWdodD0iMSIgd2lkdGg9IjEiIHk9IjciIHg9IjQiLz48cmVjdCBmaWxsPSIjNzA2NTVmIiBoZWlnaHQ9IjEiIHdpZHRoPSIxIiB5PSI4IiB4PSI0Ii8+PHJlY3QgZmlsbD0iIzZhNWY1OSIgaGVpZ2h0PSIxIiB3aWR0aD0iMSIgeT0iOSIgeD0iNCIvPjxyZWN0IGZpbGw9IiM1YzUzNGUiIGhlaWdodD0iMSIgd2lkdGg9IjEiIHk9IjEwIiB4PSI0Ii8+PHJlY3QgZmlsbD0iIzdhNmU2NyIgaGVpZ2h0PSIxIiB3aWR0aD0iMSIgeT0iNyIgeD0iNSIvPjxyZWN0IGZpbGw9IiM3YTZlNjciIGhlaWdodD0iMSIgd2lkdGg9IjEiIHk9IjgiIHg9IjUiLz48cmVjdCBmaWxsPSIjNmE1ZjU5IiBoZWlnaHQ9IjEiIHdpZHRoPSIxIiB5PSI5IiB4PSI1Ii8+PHJlY3QgZmlsbD0iIzVjNTM0ZSIgaGVpZ2h0PSIxIiB3aWR0aD0iMSIgeT0iMTAiIHg9IjUiLz48cmVjdCBmaWxsPSIjN2E2ZTY3IiBoZWlnaHQ9IjEiIHdpZHRoPSIxIiB5PSI3IiB4PSI2Ii8+PHJlY3QgZmlsbD0iIzdhNmU2NyIgaGVpZ2h0PSIxIiB3aWR0aD0iMSIgeT0iOCIgeD0iNiIvPjxyZWN0IGZpbGw9IiNkMWIwOTkiIGhlaWdodD0iMSIgd2lkdGg9IjEiIHk9IjkiIHg9IjYiLz48cmVjdCBmaWxsPSIjYmM5NjdkIiBoZWlnaHQ9IjEiIHdpZHRoPSIxIiB5PSIxMCIgeD0iNiIvPjxyZWN0IGZpbGw9IiM3YTZlNjciIGhlaWdodD0iMSIgd2lkdGg9IjEiIHk9IjciIHg9IjciLz48cmVjdCBmaWxsPSIjN2E2ZTY3IiBoZWlnaHQ9IjEiIHdpZHRoPSIxIiB5PSI4IiB4PSI3Ii8+PHJlY3QgZmlsbD0iI2JjOTY3ZCIgaGVpZ2h0PSIxIiB3aWR0aD0iMSIgeT0iOSIgeD0iNyIvPjxyZWN0IGZpbGw9IiNiYzk2N2QiIGhlaWdodD0iMSIgd2lkdGg9IjEiIHk9IjEwIiB4PSI3Ii8+PHJlY3QgZmlsbD0iI2FiYWI4OCIgaGVpZ2h0PSIxIiB3aWR0aD0iMSIgeT0iMTEiIHg9IjciLz48cmVjdCBmaWxsPSIjYmFiYTk0IiBoZWlnaHQ9IjEiIHdpZHRoPSIxIiB5PSIxMiIgeD0iNyIvPjxyZWN0IGZpbGw9IiNjOGM4YTAiIGhlaWdodD0iMSIgd2lkdGg9IjEiIHk9IjEzIiB4PSI3Ii8+PHJlY3QgZmlsbD0iI2JhYmE5NCIgaGVpZ2h0PSIxIiB3aWR0aD0iMSIgeT0iMTQiIHg9IjciLz48cmVjdCBmaWxsPSIjYzhjOGEwIiBoZWlnaHQ9IjEiIHdpZHRoPSIxIiB5PSIxNSIgeD0iNyIvPjxyZWN0IGZpbGw9IiM3YTZlNjciIGhlaWdodD0iMSIgd2lkdGg9IjEiIHk9IjciIHg9IjgiLz48cmVjdCBmaWxsPSIjN2E2ZTY3IiBoZWlnaHQ9IjEiIHdpZHRoPSIxIiB5PSI4IiB4PSI4Ii8+PHJlY3QgZmlsbD0iIzcwNjU1ZiIgaGVpZ2h0PSIxIiB3aWR0aD0iMSIgeT0iOSIgeD0iOCIvPjxyZWN0IGZpbGw9IiM2ODVlNTgiIGhlaWdodD0iMSIgd2lkdGg9IjEiIHk9IjEwIiB4PSI4Ii8+PHJlY3QgZmlsbD0iI2FiYWI4OCIgaGVpZ2h0PSIxIiB3aWR0aD0iMSIgeT0iMTEiIHg9IjgiLz48cmVjdCBmaWxsPSIjYWJhYjg4IiBoZWlnaHQ9IjEiIHdpZHRoPSIxIiB5PSIxMiIgeD0iOCIvPjxyZWN0IGZpbGw9IiNiYWJhOTQiIGhlaWdodD0iMSIgd2lkdGg9IjEiIHk9IjEzIiB4PSI4Ii8+PHJlY3QgZmlsbD0iI2M4YzhhMCIgaGVpZ2h0PSIxIiB3aWR0aD0iMSIgeT0iMTQiIHg9IjgiLz48cmVjdCBmaWxsPSIjYmFiYTk0IiBoZWlnaHQ9IjEiIHdpZHRoPSIxIiB5PSIxNSIgeD0iOCIvPjxyZWN0IGZpbGw9IiNjMDk5N2YiIGhlaWdodD0iMSIgd2lkdGg9IjEiIHk9IjciIHg9IjkiLz48cmVjdCBmaWxsPSIjYzA5OTdmIiBoZWlnaHQ9IjEiIHdpZHRoPSIxIiB5PSI4IiB4PSI5Ii8+PHJlY3QgZmlsbD0iIzZhNWY1OSIgaGVpZ2h0PSIxIiB3aWR0aD0iMSIgeT0iOSIgeD0iOSIvPjxyZWN0IGZpbGw9IiM2ODVlNTgiIGhlaWdodD0iMSIgd2lkdGg9IjEiIHk9IjEwIiB4PSI5Ii8+PHJlY3QgZmlsbD0iI2ZiZDNiOCIgaGVpZ2h0PSIxIiB3aWR0aD0iMSIgeT0iNyIgeD0iMTAiLz48cmVjdCBmaWxsPSIjYzA5OTdmIiBoZWlnaHQ9IjEiIHdpZHRoPSIxIiB5PSI4IiB4PSIxMCIvPjxyZWN0IGZpbGw9IiM2YTVmNTkiIGhlaWdodD0iMSIgd2lkdGg9IjEiIHk9IjkiIHg9IjEwIi8+PHJlY3QgZmlsbD0iIzVjNTM0ZSIgaGVpZ2h0PSIxIiB3aWR0aD0iMSIgeT0iMTAiIHg9IjEwIi8+PHJlY3QgZmlsbD0iIzdhNmU2NyIgaGVpZ2h0PSIxIiB3aWR0aD0iMSIgeT0iNyIgeD0iMTEiLz48cmVjdCBmaWxsPSIjNzA2NTVmIiBoZWlnaHQ9IjEiIHdpZHRoPSIxIiB5PSI4IiB4PSIxMSIvPjxyZWN0IGZpbGw9IiM2YTVmNTkiIGhlaWdodD0iMSIgd2lkdGg9IjEiIHk9IjkiIHg9IjExIi8+PHJlY3QgZmlsbD0iIzVjNTM0ZSIgaGVpZ2h0PSIxIiB3aWR0aD0iMSIgeT0iMTAiIHg9IjExIi8+PHJlY3QgZmlsbD0iIzcwNjU1ZiIgaGVpZ2h0PSIxIiB3aWR0aD0iMSIgeT0iNyIgeD0iMTIiLz48cmVjdCBmaWxsPSIjNmE1ZjU5IiBoZWlnaHQ9IjEiIHdpZHRoPSIxIiB5PSI4IiB4PSIxMiIvPjxyZWN0IGZpbGw9IiM1YzUzNGUiIGhlaWdodD0iMSIgd2lkdGg9IjEiIHk9IjkiIHg9IjEyIi8+PHJlY3QgZmlsbD0iIzVjNTM0ZSIgaGVpZ2h0PSIxIiB3aWR0aD0iMSIgeT0iMTAiIHg9IjEyIi8+PC9zdmc+;spacing=0;labelPosition=center;align=center;" parent="1" vertex="1">
          <mxGeometry x="860" y="680" width="80" height="80" as="geometry" />
        </mxCell>
        <mxCell id="FFgzYFozdzFY0kPiAkdk-1" value="Bolbitius profundorum" style="shape=image;verticalLabelPosition=top;labelBackgroundColor=default;verticalAlign=bottom;aspect=fixed;imageAspect=0;image=data:image/svg+xml,PHN2ZyB4bWxucz0iaHR0cDovL3d3dy53My5vcmcvMjAwMC9zdmciIGhlaWdodD0iMTYiIHdpZHRoPSIxNiIgdmlld0JveD0iMCAwIDE2IDE2Ij48cmVjdCBmaWxsPSIjNDY0ODRjIiBoZWlnaHQ9IjEiIHdpZHRoPSIxIiB5PSI4IiB4PSIzIi8+PHJlY3QgZmlsbD0iIzNlNDA0MyIgaGVpZ2h0PSIxIiB3aWR0aD0iMSIgeT0iOSIgeD0iMyIvPjxyZWN0IGZpbGw9IiM2MTY0NjkiIGhlaWdodD0iMSIgd2lkdGg9IjEiIHk9IjgiIHg9IjQiLz48cmVjdCBmaWxsPSIjNDY0ODRjIiBoZWlnaHQ9IjEiIHdpZHRoPSIxIiB5PSI5IiB4PSI0Ii8+PHJlY3QgZmlsbD0iIzNlNDA0MyIgaGVpZ2h0PSIxIiB3aWR0aD0iMSIgeT0iMTAiIHg9IjQiLz48cmVjdCBmaWxsPSIjMmIyZDMxIiBoZWlnaHQ9IjEiIHdpZHRoPSIxIiB5PSI1IiB4PSI1Ii8+PHJlY3QgZmlsbD0iIzNmNDA0NSIgaGVpZ2h0PSIxIiB3aWR0aD0iMSIgeT0iNiIgeD0iNSIvPjxyZWN0IGZpbGw9IiM0ZTRmNTQiIGhlaWdodD0iMSIgd2lkdGg9IjEiIHk9IjciIHg9IjUiLz48cmVjdCBmaWxsPSIjNmU3MTc3IiBoZWlnaHQ9IjEiIHdpZHRoPSIxIiB5PSI4IiB4PSI1Ii8+PHJlY3QgZmlsbD0iIzRlNGY1NCIgaGVpZ2h0PSIxIiB3aWR0aD0iMSIgeT0iOSIgeD0iNSIvPjxyZWN0IGZpbGw9IiM0NjQ4NGMiIGhlaWdodD0iMSIgd2lkdGg9IjEiIHk9IjEwIiB4PSI1Ii8+PHJlY3QgZmlsbD0iIzZlNzE3NyIgaGVpZ2h0PSIxIiB3aWR0aD0iMSIgeT0iNCIgeD0iNiIvPjxyZWN0IGZpbGw9IiMzZjQwNDUiIGhlaWdodD0iMSIgd2lkdGg9IjEiIHk9IjUiIHg9IjYiLz48cmVjdCBmaWxsPSIjM2Y0MDQ1IiBoZWlnaHQ9IjEiIHdpZHRoPSIxIiB5PSI2IiB4PSI2Ii8+PHJlY3QgZmlsbD0iIzVhNWM2MSIgaGVpZ2h0PSIxIiB3aWR0aD0iMSIgeT0iNyIgeD0iNiIvPjxyZWN0IGZpbGw9IiM2ZTcxNzciIGhlaWdodD0iMSIgd2lkdGg9IjEiIHk9IjgiIHg9IjYiLz48cmVjdCBmaWxsPSIjNGU0ZjU0IiBoZWlnaHQ9IjEiIHdpZHRoPSIxIiB5PSI5IiB4PSI2Ii8+PHJlY3QgZmlsbD0iIzQ2NDg0YyIgaGVpZ2h0PSIxIiB3aWR0aD0iMSIgeT0iMTAiIHg9IjYiLz48cmVjdCBmaWxsPSIjNmU3MTc3IiBoZWlnaHQ9IjEiIHdpZHRoPSIxIiB5PSI0IiB4PSI3Ii8+PHJlY3QgZmlsbD0iIzZlNzE3NyIgaGVpZ2h0PSIxIiB3aWR0aD0iMSIgeT0iNSIgeD0iNyIvPjxyZWN0IGZpbGw9IiM2ZTcxNzciIGhlaWdodD0iMSIgd2lkdGg9IjEiIHk9IjYiIHg9IjciLz48cmVjdCBmaWxsPSIjNWE1YzYxIiBoZWlnaHQ9IjEiIHdpZHRoPSIxIiB5PSI3IiB4PSI3Ii8+PHJlY3QgZmlsbD0iIzYxNjQ2OSIgaGVpZ2h0PSIxIiB3aWR0aD0iMSIgeT0iOCIgeD0iNyIvPjxyZWN0IGZpbGw9IiM0ZTRmNTQiIGhlaWdodD0iMSIgd2lkdGg9IjEiIHk9IjkiIHg9IjciLz48cmVjdCBmaWxsPSIjM2U0MDQzIiBoZWlnaHQ9IjEiIHdpZHRoPSIxIiB5PSIxMCIgeD0iNyIvPjxyZWN0IGZpbGw9IiMzMDMyMzYiIGhlaWdodD0iMSIgd2lkdGg9IjEiIHk9IjExIiB4PSI3Ii8+PHJlY3QgZmlsbD0iIzNkM2Y0NCIgaGVpZ2h0PSIxIiB3aWR0aD0iMSIgeT0iMTIiIHg9IjciLz48cmVjdCBmaWxsPSIjNDI0NDRhIiBoZWlnaHQ9IjEiIHdpZHRoPSIxIiB5PSIxMyIgeD0iNyIvPjxyZWN0IGZpbGw9IiM0OTRiNTEiIGhlaWdodD0iMSIgd2lkdGg9IjEiIHk9IjE0IiB4PSI3Ii8+PHJlY3QgZmlsbD0iIzQyNDQ0YSIgaGVpZ2h0PSIxIiB3aWR0aD0iMSIgeT0iMTUiIHg9IjciLz48cmVjdCBmaWxsPSIjNjE2NDY5IiBoZWlnaHQ9IjEiIHdpZHRoPSIxIiB5PSI0IiB4PSI4Ii8+PHJlY3QgZmlsbD0iIzYxNjQ2OSIgaGVpZ2h0PSIxIiB3aWR0aD0iMSIgeT0iNSIgeD0iOCIvPjxyZWN0IGZpbGw9IiMzZjQwNDUiIGhlaWdodD0iMSIgd2lkdGg9IjEiIHk9IjYiIHg9IjgiLz48cmVjdCBmaWxsPSIjM2Y0MDQ1IiBoZWlnaHQ9IjEiIHdpZHRoPSIxIiB5PSI3IiB4PSI4Ii8+PHJlY3QgZmlsbD0iIzRlNGY1NCIgaGVpZ2h0PSIxIiB3aWR0aD0iMSIgeT0iOCIgeD0iOCIvPjxyZWN0IGZpbGw9IiM0NjQ4NGMiIGhlaWdodD0iMSIgd2lkdGg9IjEiIHk9IjkiIHg9IjgiLz48cmVjdCBmaWxsPSIjM2U0MDQzIiBoZWlnaHQ9IjEiIHdpZHRoPSIxIiB5PSIxMCIgeD0iOCIvPjxyZWN0IGZpbGw9IiMzNjM4M2QiIGhlaWdodD0iMSIgd2lkdGg9IjEiIHk9IjExIiB4PSI4Ii8+PHJlY3QgZmlsbD0iIzNjM2U0MyIgaGVpZ2h0PSIxIiB3aWR0aD0iMSIgeT0iMTIiIHg9IjgiLz48cmVjdCBmaWxsPSIjNDk0YjUxIiBoZWlnaHQ9IjEiIHdpZHRoPSIxIiB5PSIxMyIgeD0iOCIvPjxyZWN0IGZpbGw9IiM0MjQ0NGEiIGhlaWdodD0iMSIgd2lkdGg9IjEiIHk9IjE0IiB4PSI4Ii8+PHJlY3QgZmlsbD0iIzNjM2U0MyIgaGVpZ2h0PSIxIiB3aWR0aD0iMSIgeT0iMTUiIHg9IjgiLz48cmVjdCBmaWxsPSIjMmIyZDMxIiBoZWlnaHQ9IjEiIHdpZHRoPSIxIiB5PSI0IiB4PSI5Ii8+PHJlY3QgZmlsbD0iIzYxNjQ2OSIgaGVpZ2h0PSIxIiB3aWR0aD0iMSIgeT0iNSIgeD0iOSIvPjxyZWN0IGZpbGw9IiMyYjJkMzEiIGhlaWdodD0iMSIgd2lkdGg9IjEiIHk9IjYiIHg9IjkiLz48cmVjdCBmaWxsPSIjM2Y0MDQ1IiBoZWlnaHQ9IjEiIHdpZHRoPSIxIiB5PSI3IiB4PSI5Ii8+PHJlY3QgZmlsbD0iIzQ2NDg0YyIgaGVpZ2h0PSIxIiB3aWR0aD0iMSIgeT0iOCIgeD0iOSIvPjxyZWN0IGZpbGw9IiM0NjQ4NGMiIGhlaWdodD0iMSIgd2lkdGg9IjEiIHk9IjkiIHg9IjkiLz48cmVjdCBmaWxsPSIjNDY0ODRjIiBoZWlnaHQ9IjEiIHdpZHRoPSIxIiB5PSIxMCIgeD0iOSIvPjxyZWN0IGZpbGw9IiM1YTVjNjEiIGhlaWdodD0iMSIgd2lkdGg9IjEiIHk9IjUiIHg9IjEwIi8+PHJlY3QgZmlsbD0iIzVhNWM2MSIgaGVpZ2h0PSIxIiB3aWR0aD0iMSIgeT0iNiIgeD0iMTAiLz48cmVjdCBmaWxsPSIjNGU0ZjU0IiBoZWlnaHQ9IjEiIHdpZHRoPSIxIiB5PSI3IiB4PSIxMCIvPjxyZWN0IGZpbGw9IiM0NjQ4NGMiIGhlaWdodD0iMSIgd2lkdGg9IjEiIHk9IjgiIHg9IjEwIi8+PHJlY3QgZmlsbD0iIzRlNGY1NCIgaGVpZ2h0PSIxIiB3aWR0aD0iMSIgeT0iOSIgeD0iMTAiLz48cmVjdCBmaWxsPSIjNDY0ODRjIiBoZWlnaHQ9IjEiIHdpZHRoPSIxIiB5PSIxMCIgeD0iMTAiLz48cmVjdCBmaWxsPSIjNmM2ZTc0IiBoZWlnaHQ9IjEiIHdpZHRoPSIxIiB5PSI4IiB4PSIxMSIvPjxyZWN0IGZpbGw9IiM0ZTRmNTQiIGhlaWdodD0iMSIgd2lkdGg9IjEiIHk9IjkiIHg9IjExIi8+PHJlY3QgZmlsbD0iIzNlNDA0MyIgaGVpZ2h0PSIxIiB3aWR0aD0iMSIgeT0iMTAiIHg9IjExIi8+PHJlY3QgZmlsbD0iIzRlNGY1NCIgaGVpZ2h0PSIxIiB3aWR0aD0iMSIgeT0iOCIgeD0iMTIiLz48cmVjdCBmaWxsPSIjM2U0MDQzIiBoZWlnaHQ9IjEiIHdpZHRoPSIxIiB5PSI5IiB4PSIxMiIvPjwvc3ZnPg==;spacing=0;labelPosition=center;align=center;" parent="1" vertex="1">
          <mxGeometry x="920" y="360" width="80" height="80" as="geometry" />
        </mxCell>
        <mxCell id="FFgzYFozdzFY0kPiAkdk-3" value="" style="ellipse;whiteSpace=wrap;html=1;aspect=fixed;fillColor=#d5e8d4;strokeColor=#82b366;" parent="1" vertex="1">
          <mxGeometry x="920" y="240" width="80" height="80" as="geometry" />
        </mxCell>
        <mxCell id="FFgzYFozdzFY0kPiAkdk-2" value="Amanita phalloides" style="shape=image;verticalLabelPosition=top;labelBackgroundColor=default;verticalAlign=bottom;aspect=fixed;imageAspect=0;image=data:image/svg+xml,PHN2ZyB4bWxucz0iaHR0cDovL3d3dy53My5vcmcvMjAwMC9zdmciIGhlaWdodD0iMTYiIHdpZHRoPSIxNiIgdmlld0JveD0iMCAwIDE2IDE2Ij48cmVjdCBmaWxsPSIjNDUwOTA2IiBoZWlnaHQ9IjEiIHdpZHRoPSIxIiB5PSI4IiB4PSIzIi8+PHJlY3QgZmlsbD0iIzNkMDgwNSIgaGVpZ2h0PSIxIiB3aWR0aD0iMSIgeT0iOSIgeD0iMyIvPjxyZWN0IGZpbGw9IiM1ZjBkMDgiIGhlaWdodD0iMSIgd2lkdGg9IjEiIHk9IjgiIHg9IjQiLz48cmVjdCBmaWxsPSIjNDUwOTA2IiBoZWlnaHQ9IjEiIHdpZHRoPSIxIiB5PSI5IiB4PSI0Ii8+PHJlY3QgZmlsbD0iIzNkMDgwNSIgaGVpZ2h0PSIxIiB3aWR0aD0iMSIgeT0iMTAiIHg9IjQiLz48cmVjdCBmaWxsPSIjZjJmMmYyIiBoZWlnaHQ9IjEiIHdpZHRoPSIxIiB5PSI1IiB4PSI1Ii8+PHJlY3QgZmlsbD0iI2U4ZThlOCIgaGVpZ2h0PSIxIiB3aWR0aD0iMSIgeT0iNiIgeD0iNSIvPjxyZWN0IGZpbGw9IiM0YzBhMDYiIGhlaWdodD0iMSIgd2lkdGg9IjEiIHk9IjciIHg9IjUiLz48cmVjdCBmaWxsPSIjNmMwZjA5IiBoZWlnaHQ9IjEiIHdpZHRoPSIxIiB5PSI4IiB4PSI1Ii8+PHJlY3QgZmlsbD0iIzRjMGEwNiIgaGVpZ2h0PSIxIiB3aWR0aD0iMSIgeT0iOSIgeD0iNSIvPjxyZWN0IGZpbGw9IiM0NTA5MDYiIGhlaWdodD0iMSIgd2lkdGg9IjEiIHk9IjEwIiB4PSI1Ii8+PHJlY3QgZmlsbD0iIzZjMGYwOSIgaGVpZ2h0PSIxIiB3aWR0aD0iMSIgeT0iNCIgeD0iNiIvPjxyZWN0IGZpbGw9IiNlOGU4ZTgiIGhlaWdodD0iMSIgd2lkdGg9IjEiIHk9IjUiIHg9IjYiLz48cmVjdCBmaWxsPSIjZThlOGU4IiBoZWlnaHQ9IjEiIHdpZHRoPSIxIiB5PSI2IiB4PSI2Ii8+PHJlY3QgZmlsbD0iIzU4MGMwOCIgaGVpZ2h0PSIxIiB3aWR0aD0iMSIgeT0iNyIgeD0iNiIvPjxyZWN0IGZpbGw9IiM2YzBmMDkiIGhlaWdodD0iMSIgd2lkdGg9IjEiIHk9IjgiIHg9IjYiLz48cmVjdCBmaWxsPSIjNGMwYTA2IiBoZWlnaHQ9IjEiIHdpZHRoPSIxIiB5PSI5IiB4PSI2Ii8+PHJlY3QgZmlsbD0iIzQ1MDkwNiIgaGVpZ2h0PSIxIiB3aWR0aD0iMSIgeT0iMTAiIHg9IjYiLz48cmVjdCBmaWxsPSIjNmMwZjA5IiBoZWlnaHQ9IjEiIHdpZHRoPSIxIiB5PSI0IiB4PSI3Ii8+PHJlY3QgZmlsbD0iIzZjMGYwOSIgaGVpZ2h0PSIxIiB3aWR0aD0iMSIgeT0iNSIgeD0iNyIvPjxyZWN0IGZpbGw9IiM2YzBmMDkiIGhlaWdodD0iMSIgd2lkdGg9IjEiIHk9IjYiIHg9IjciLz48cmVjdCBmaWxsPSIjNTgwYzA4IiBoZWlnaHQ9IjEiIHdpZHRoPSIxIiB5PSI3IiB4PSI3Ii8+PHJlY3QgZmlsbD0iIzVmMGQwOCIgaGVpZ2h0PSIxIiB3aWR0aD0iMSIgeT0iOCIgeD0iNyIvPjxyZWN0IGZpbGw9IiM0YzBhMDYiIGhlaWdodD0iMSIgd2lkdGg9IjEiIHk9IjkiIHg9IjciLz48cmVjdCBmaWxsPSIjM2QwODA1IiBoZWlnaHQ9IjEiIHdpZHRoPSIxIiB5PSIxMCIgeD0iNyIvPjxyZWN0IGZpbGw9IiM1OTRjMzMiIGhlaWdodD0iMSIgd2lkdGg9IjEiIHk9IjExIiB4PSI3Ii8+PHJlY3QgZmlsbD0iIzcwNjA0MSIgaGVpZ2h0PSIxIiB3aWR0aD0iMSIgeT0iMTIiIHg9IjciLz48cmVjdCBmaWxsPSIjN2E2ODQ2IiBoZWlnaHQ9IjEiIHdpZHRoPSIxIiB5PSIxMyIgeD0iNyIvPjxyZWN0IGZpbGw9IiM4NjczNGQiIGhlaWdodD0iMSIgd2lkdGg9IjEiIHk9IjE0IiB4PSI3Ii8+PHJlY3QgZmlsbD0iIzdhNjg0NiIgaGVpZ2h0PSIxIiB3aWR0aD0iMSIgeT0iMTUiIHg9IjciLz48cmVjdCBmaWxsPSIjNWYwZDA4IiBoZWlnaHQ9IjEiIHdpZHRoPSIxIiB5PSI0IiB4PSI4Ii8+PHJlY3QgZmlsbD0iIzVmMGQwOCIgaGVpZ2h0PSIxIiB3aWR0aD0iMSIgeT0iNSIgeD0iOCIvPjxyZWN0IGZpbGw9IiNlOGU4ZTgiIGhlaWdodD0iMSIgd2lkdGg9IjEiIHk9IjYiIHg9IjgiLz48cmVjdCBmaWxsPSIjZThlOGU4IiBoZWlnaHQ9IjEiIHdpZHRoPSIxIiB5PSI3IiB4PSI4Ii8+PHJlY3QgZmlsbD0iIzRjMGEwNiIgaGVpZ2h0PSIxIiB3aWR0aD0iMSIgeT0iOCIgeD0iOCIvPjxyZWN0IGZpbGw9IiM0NTA5MDYiIGhlaWdodD0iMSIgd2lkdGg9IjEiIHk9IjkiIHg9IjgiLz48cmVjdCBmaWxsPSIjM2QwODA1IiBoZWlnaHQ9IjEiIHdpZHRoPSIxIiB5PSIxMCIgeD0iOCIvPjxyZWN0IGZpbGw9IiM2NDU1M2EiIGhlaWdodD0iMSIgd2lkdGg9IjEiIHk9IjExIiB4PSI4Ii8+PHJlY3QgZmlsbD0iIzZlNWUzZiIgaGVpZ2h0PSIxIiB3aWR0aD0iMSIgeT0iMTIiIHg9IjgiLz48cmVjdCBmaWxsPSIjODY3MzRkIiBoZWlnaHQ9IjEiIHdpZHRoPSIxIiB5PSIxMyIgeD0iOCIvPjxyZWN0IGZpbGw9IiM3YTY4NDYiIGhlaWdodD0iMSIgd2lkdGg9IjEiIHk9IjE0IiB4PSI4Ii8+PHJlY3QgZmlsbD0iIzZlNWUzZiIgaGVpZ2h0PSIxIiB3aWR0aD0iMSIgeT0iMTUiIHg9IjgiLz48cmVjdCBmaWxsPSIjZjJmMmYyIiBoZWlnaHQ9IjEiIHdpZHRoPSIxIiB5PSI0IiB4PSI5Ii8+PHJlY3QgZmlsbD0iIzVmMGQwOCIgaGVpZ2h0PSIxIiB3aWR0aD0iMSIgeT0iNSIgeD0iOSIvPjxyZWN0IGZpbGw9IiNmMmYyZjIiIGhlaWdodD0iMSIgd2lkdGg9IjEiIHk9IjYiIHg9IjkiLz48cmVjdCBmaWxsPSIjZThlOGU4IiBoZWlnaHQ9IjEiIHdpZHRoPSIxIiB5PSI3IiB4PSI5Ii8+PHJlY3QgZmlsbD0iIzQ1MDkwNiIgaGVpZ2h0PSIxIiB3aWR0aD0iMSIgeT0iOCIgeD0iOSIvPjxyZWN0IGZpbGw9IiM0NTA5MDYiIGhlaWdodD0iMSIgd2lkdGg9IjEiIHk9IjkiIHg9IjkiLz48cmVjdCBmaWxsPSIjNDUwOTA2IiBoZWlnaHQ9IjEiIHdpZHRoPSIxIiB5PSIxMCIgeD0iOSIvPjxyZWN0IGZpbGw9IiM1ODBjMDgiIGhlaWdodD0iMSIgd2lkdGg9IjEiIHk9IjUiIHg9IjEwIi8+PHJlY3QgZmlsbD0iIzU4MGMwOCIgaGVpZ2h0PSIxIiB3aWR0aD0iMSIgeT0iNiIgeD0iMTAiLz48cmVjdCBmaWxsPSIjNGMwYTA2IiBoZWlnaHQ9IjEiIHdpZHRoPSIxIiB5PSI3IiB4PSIxMCIvPjxyZWN0IGZpbGw9IiM0NTA5MDYiIGhlaWdodD0iMSIgd2lkdGg9IjEiIHk9IjgiIHg9IjEwIi8+PHJlY3QgZmlsbD0iIzRjMGEwNiIgaGVpZ2h0PSIxIiB3aWR0aD0iMSIgeT0iOSIgeD0iMTAiLz48cmVjdCBmaWxsPSIjNDUwOTA2IiBoZWlnaHQ9IjEiIHdpZHRoPSIxIiB5PSIxMCIgeD0iMTAiLz48cmVjdCBmaWxsPSIjNmEwZTA5IiBoZWlnaHQ9IjEiIHdpZHRoPSIxIiB5PSI4IiB4PSIxMSIvPjxyZWN0IGZpbGw9IiM0YzBhMDYiIGhlaWdodD0iMSIgd2lkdGg9IjEiIHk9IjkiIHg9IjExIi8+PHJlY3QgZmlsbD0iIzNkMDgwNSIgaGVpZ2h0PSIxIiB3aWR0aD0iMSIgeT0iMTAiIHg9IjExIi8+PHJlY3QgZmlsbD0iIzRjMGEwNiIgaGVpZ2h0PSIxIiB3aWR0aD0iMSIgeT0iOCIgeD0iMTIiLz48cmVjdCBmaWxsPSIjM2QwODA1IiBoZWlnaHQ9IjEiIHdpZHRoPSIxIiB5PSI5IiB4PSIxMiIvPjwvc3ZnPg==;spacing=0;labelPosition=center;align=center;" parent="1" vertex="1">
          <mxGeometry x="920" y="240" width="80" height="80" as="geometry" />
        </mxCell>
        <mxCell id="FvxJhPj69iw1D5Hr3AZj-1" value="Agaricus animi" style="shape=image;verticalLabelPosition=top;labelBackgroundColor=default;verticalAlign=bottom;aspect=fixed;imageAspect=0;image=data:image/svg+xml,PHN2ZyB4bWxucz0iaHR0cDovL3d3dy53My5vcmcvMjAwMC9zdmciIGhlaWdodD0iMTYiIHdpZHRoPSIxNiIgdmlld0JveD0iMCAwIDE2IDE2Ij48cmVjdCBmaWxsPSIjMmYyNzIxIiBoZWlnaHQ9IjEiIHdpZHRoPSIxIiB5PSI4IiB4PSIzIi8+PHJlY3QgZmlsbD0iIzJhMjMxZCIgaGVpZ2h0PSIxIiB3aWR0aD0iMSIgeT0iOSIgeD0iMyIvPjxyZWN0IGZpbGw9IiM0MjM2MmUiIGhlaWdodD0iMSIgd2lkdGg9IjEiIHk9IjgiIHg9IjQiLz48cmVjdCBmaWxsPSIjMmYyNzIxIiBoZWlnaHQ9IjEiIHdpZHRoPSIxIiB5PSI5IiB4PSI0Ii8+PHJlY3QgZmlsbD0iIzJhMjMxZCIgaGVpZ2h0PSIxIiB3aWR0aD0iMSIgeT0iMTAiIHg9IjQiLz48cmVjdCBmaWxsPSIjODg3MjY1IiBoZWlnaHQ9IjEiIHdpZHRoPSIxIiB5PSI1IiB4PSI1Ii8+PHJlY3QgZmlsbD0iIzYxNGU0MyIgaGVpZ2h0PSIxIiB3aWR0aD0iMSIgeT0iNiIgeD0iNSIvPjxyZWN0IGZpbGw9IiMzNDJiMjQiIGhlaWdodD0iMSIgd2lkdGg9IjEiIHk9IjciIHg9IjUiLz48cmVjdCBmaWxsPSIjNGEzZDM0IiBoZWlnaHQ9IjEiIHdpZHRoPSIxIiB5PSI4IiB4PSI1Ii8+PHJlY3QgZmlsbD0iIzM0MmIyNCIgaGVpZ2h0PSIxIiB3aWR0aD0iMSIgeT0iOSIgeD0iNSIvPjxyZWN0IGZpbGw9IiMyZjI3MjEiIGhlaWdodD0iMSIgd2lkdGg9IjEiIHk9IjEwIiB4PSI1Ii8+PHJlY3QgZmlsbD0iIzRhM2QzNCIgaGVpZ2h0PSIxIiB3aWR0aD0iMSIgeT0iNCIgeD0iNiIvPjxyZWN0IGZpbGw9IiM2MTRlNDMiIGhlaWdodD0iMSIgd2lkdGg9IjEiIHk9IjUiIHg9IjYiLz48cmVjdCBmaWxsPSIjNjE0ZTQzIiBoZWlnaHQ9IjEiIHdpZHRoPSIxIiB5PSI2IiB4PSI2Ii8+PHJlY3QgZmlsbD0iIzNkMzIyYSIgaGVpZ2h0PSIxIiB3aWR0aD0iMSIgeT0iNyIgeD0iNiIvPjxyZWN0IGZpbGw9IiM0YTNkMzQiIGhlaWdodD0iMSIgd2lkdGg9IjEiIHk9IjgiIHg9IjYiLz48cmVjdCBmaWxsPSIjMzQyYjI0IiBoZWlnaHQ9IjEiIHdpZHRoPSIxIiB5PSI5IiB4PSI2Ii8+PHJlY3QgZmlsbD0iIzJmMjcyMSIgaGVpZ2h0PSIxIiB3aWR0aD0iMSIgeT0iMTAiIHg9IjYiLz48cmVjdCBmaWxsPSIjNGEzZDM0IiBoZWlnaHQ9IjEiIHdpZHRoPSIxIiB5PSI0IiB4PSI3Ii8+PHJlY3QgZmlsbD0iIzRhM2QzNCIgaGVpZ2h0PSIxIiB3aWR0aD0iMSIgeT0iNSIgeD0iNyIvPjxyZWN0IGZpbGw9IiM0YTNkMzQiIGhlaWdodD0iMSIgd2lkdGg9IjEiIHk9IjYiIHg9IjciLz48cmVjdCBmaWxsPSIjM2QzMjJhIiBoZWlnaHQ9IjEiIHdpZHRoPSIxIiB5PSI3IiB4PSI3Ii8+PHJlY3QgZmlsbD0iIzQyMzYyZSIgaGVpZ2h0PSIxIiB3aWR0aD0iMSIgeT0iOCIgeD0iNyIvPjxyZWN0IGZpbGw9IiMzNDJiMjQiIGhlaWdodD0iMSIgd2lkdGg9IjEiIHk9IjkiIHg9IjciLz48cmVjdCBmaWxsPSIjMmEyMzFkIiBoZWlnaHQ9IjEiIHdpZHRoPSIxIiB5PSIxMCIgeD0iNyIvPjxyZWN0IGZpbGw9IiMyYTMyMzYiIGhlaWdodD0iMSIgd2lkdGg9IjEiIHk9IjExIiB4PSI3Ii8+PHJlY3QgZmlsbD0iIzM2NDA0NCIgaGVpZ2h0PSIxIiB3aWR0aD0iMSIgeT0iMTIiIHg9IjciLz48cmVjdCBmaWxsPSIjM2E0NTRhIiBoZWlnaHQ9IjEiIHdpZHRoPSIxIiB5PSIxMyIgeD0iNyIvPjxyZWN0IGZpbGw9IiM0MDRjNTEiIGhlaWdodD0iMSIgd2lkdGg9IjEiIHk9IjE0IiB4PSI3Ii8+PHJlY3QgZmlsbD0iIzNhNDU0YSIgaGVpZ2h0PSIxIiB3aWR0aD0iMSIgeT0iMTUiIHg9IjciLz48cmVjdCBmaWxsPSIjNDIzNjJlIiBoZWlnaHQ9IjEiIHdpZHRoPSIxIiB5PSI0IiB4PSI4Ii8+PHJlY3QgZmlsbD0iIzQyMzYyZSIgaGVpZ2h0PSIxIiB3aWR0aD0iMSIgeT0iNSIgeD0iOCIvPjxyZWN0IGZpbGw9IiM2MTRlNDMiIGhlaWdodD0iMSIgd2lkdGg9IjEiIHk9IjYiIHg9IjgiLz48cmVjdCBmaWxsPSIjNjE0ZTQzIiBoZWlnaHQ9IjEiIHdpZHRoPSIxIiB5PSI3IiB4PSI4Ii8+PHJlY3QgZmlsbD0iIzM0MmIyNCIgaGVpZ2h0PSIxIiB3aWR0aD0iMSIgeT0iOCIgeD0iOCIvPjxyZWN0IGZpbGw9IiMyZjI3MjEiIGhlaWdodD0iMSIgd2lkdGg9IjEiIHk9IjkiIHg9IjgiLz48cmVjdCBmaWxsPSIjMmEyMzFkIiBoZWlnaHQ9IjEiIHdpZHRoPSIxIiB5PSIxMCIgeD0iOCIvPjxyZWN0IGZpbGw9IiMzMDM5M2QiIGhlaWdodD0iMSIgd2lkdGg9IjEiIHk9IjExIiB4PSI4Ii8+PHJlY3QgZmlsbD0iIzM1M2U0MyIgaGVpZ2h0PSIxIiB3aWR0aD0iMSIgeT0iMTIiIHg9IjgiLz48cmVjdCBmaWxsPSIjNDA0YzUxIiBoZWlnaHQ9IjEiIHdpZHRoPSIxIiB5PSIxMyIgeD0iOCIvPjxyZWN0IGZpbGw9IiMzYTQ1NGEiIGhlaWdodD0iMSIgd2lkdGg9IjEiIHk9IjE0IiB4PSI4Ii8+PHJlY3QgZmlsbD0iIzM1M2U0MyIgaGVpZ2h0PSIxIiB3aWR0aD0iMSIgeT0iMTUiIHg9IjgiLz48cmVjdCBmaWxsPSIjODg3MjY1IiBoZWlnaHQ9IjEiIHdpZHRoPSIxIiB5PSI0IiB4PSI5Ii8+PHJlY3QgZmlsbD0iIzQyMzYyZSIgaGVpZ2h0PSIxIiB3aWR0aD0iMSIgeT0iNSIgeD0iOSIvPjxyZWN0IGZpbGw9IiM4ODcyNjUiIGhlaWdodD0iMSIgd2lkdGg9IjEiIHk9IjYiIHg9IjkiLz48cmVjdCBmaWxsPSIjNjE0ZTQzIiBoZWlnaHQ9IjEiIHdpZHRoPSIxIiB5PSI3IiB4PSI5Ii8+PHJlY3QgZmlsbD0iIzJmMjcyMSIgaGVpZ2h0PSIxIiB3aWR0aD0iMSIgeT0iOCIgeD0iOSIvPjxyZWN0IGZpbGw9IiMyZjI3MjEiIGhlaWdodD0iMSIgd2lkdGg9IjEiIHk9IjkiIHg9IjkiLz48cmVjdCBmaWxsPSIjMmYyNzIxIiBoZWlnaHQ9IjEiIHdpZHRoPSIxIiB5PSIxMCIgeD0iOSIvPjxyZWN0IGZpbGw9IiMzZDMyMmEiIGhlaWdodD0iMSIgd2lkdGg9IjEiIHk9IjUiIHg9IjEwIi8+PHJlY3QgZmlsbD0iIzNkMzIyYSIgaGVpZ2h0PSIxIiB3aWR0aD0iMSIgeT0iNiIgeD0iMTAiLz48cmVjdCBmaWxsPSIjMzQyYjI0IiBoZWlnaHQ9IjEiIHdpZHRoPSIxIiB5PSI3IiB4PSIxMCIvPjxyZWN0IGZpbGw9IiMyZjI3MjEiIGhlaWdodD0iMSIgd2lkdGg9IjEiIHk9IjgiIHg9IjEwIi8+PHJlY3QgZmlsbD0iIzM0MmIyNCIgaGVpZ2h0PSIxIiB3aWR0aD0iMSIgeT0iOSIgeD0iMTAiLz48cmVjdCBmaWxsPSIjMmYyNzIxIiBoZWlnaHQ9IjEiIHdpZHRoPSIxIiB5PSIxMCIgeD0iMTAiLz48cmVjdCBmaWxsPSIjNDkzYzMzIiBoZWlnaHQ9IjEiIHdpZHRoPSIxIiB5PSI4IiB4PSIxMSIvPjxyZWN0IGZpbGw9IiMzNDJiMjQiIGhlaWdodD0iMSIgd2lkdGg9IjEiIHk9IjkiIHg9IjExIi8+PHJlY3QgZmlsbD0iIzJhMjMxZCIgaGVpZ2h0PSIxIiB3aWR0aD0iMSIgeT0iMTAiIHg9IjExIi8+PHJlY3QgZmlsbD0iIzM0MmIyNCIgaGVpZ2h0PSIxIiB3aWR0aD0iMSIgeT0iOCIgeD0iMTIiLz48cmVjdCBmaWxsPSIjMmEyMzFkIiBoZWlnaHQ9IjEiIHdpZHRoPSIxIiB5PSI5IiB4PSIxMiIvPjwvc3ZnPg==;spacing=0;labelPosition=center;align=center;" parent="1" vertex="1">
          <mxGeometry x="1161" y="240" width="80" height="80" as="geometry" />
        </mxCell>
        <mxCell id="FvxJhPj69iw1D5Hr3AZj-2" value="Chalciporus infernalis" style="shape=image;verticalLabelPosition=top;labelBackgroundColor=default;verticalAlign=bottom;aspect=fixed;imageAspect=0;image=data:image/svg+xml,PHN2ZyB4bWxucz0iaHR0cDovL3d3dy53My5vcmcvMjAwMC9zdmciIGhlaWdodD0iMTYiIHdpZHRoPSIxNiIgdmlld0JveD0iMCAwIDE2IDE2Ij48cmVjdCBmaWxsPSIjNTkxNDExIiBoZWlnaHQ9IjEiIHdpZHRoPSIxIiB5PSI4IiB4PSIzIi8+PHJlY3QgZmlsbD0iIzRmMTEwZiIgaGVpZ2h0PSIxIiB3aWR0aD0iMSIgeT0iOSIgeD0iMyIvPjxyZWN0IGZpbGw9IiM3YjFiMTciIGhlaWdodD0iMSIgd2lkdGg9IjEiIHk9IjgiIHg9IjQiLz48cmVjdCBmaWxsPSIjNTkxNDExIiBoZWlnaHQ9IjEiIHdpZHRoPSIxIiB5PSI5IiB4PSI0Ii8+PHJlY3QgZmlsbD0iIzRmMTEwZiIgaGVpZ2h0PSIxIiB3aWR0aD0iMSIgeT0iMTAiIHg9IjQiLz48cmVjdCBmaWxsPSIjZmZhNDY4IiBoZWlnaHQ9IjEiIHdpZHRoPSIxIiB5PSI1IiB4PSI1Ii8+PHJlY3QgZmlsbD0iI2ZmNjUwMCIgaGVpZ2h0PSIxIiB3aWR0aD0iMSIgeT0iNiIgeD0iNSIvPjxyZWN0IGZpbGw9IiM2MjE2MTIiIGhlaWdodD0iMSIgd2lkdGg9IjEiIHk9IjciIHg9IjUiLz48cmVjdCBmaWxsPSIjOGIxZjFhIiBoZWlnaHQ9IjEiIHdpZHRoPSIxIiB5PSI4IiB4PSI1Ii8+PHJlY3QgZmlsbD0iIzYyMTYxMiIgaGVpZ2h0PSIxIiB3aWR0aD0iMSIgeT0iOSIgeD0iNSIvPjxyZWN0IGZpbGw9IiM1OTE0MTEiIGhlaWdodD0iMSIgd2lkdGg9IjEiIHk9IjEwIiB4PSI1Ii8+PHJlY3QgZmlsbD0iIzhiMWYxYSIgaGVpZ2h0PSIxIiB3aWR0aD0iMSIgeT0iNCIgeD0iNiIvPjxyZWN0IGZpbGw9IiNmZjY1MDAiIGhlaWdodD0iMSIgd2lkdGg9IjEiIHk9IjUiIHg9IjYiLz48cmVjdCBmaWxsPSIjZmY2NTAwIiBoZWlnaHQ9IjEiIHdpZHRoPSIxIiB5PSI2IiB4PSI2Ii8+PHJlY3QgZmlsbD0iIzcyMTkxNSIgaGVpZ2h0PSIxIiB3aWR0aD0iMSIgeT0iNyIgeD0iNiIvPjxyZWN0IGZpbGw9IiM4YjFmMWEiIGhlaWdodD0iMSIgd2lkdGg9IjEiIHk9IjgiIHg9IjYiLz48cmVjdCBmaWxsPSIjNjIxNjEyIiBoZWlnaHQ9IjEiIHdpZHRoPSIxIiB5PSI5IiB4PSI2Ii8+PHJlY3QgZmlsbD0iIzU5MTQxMSIgaGVpZ2h0PSIxIiB3aWR0aD0iMSIgeT0iMTAiIHg9IjYiLz48cmVjdCBmaWxsPSIjOGIxZjFhIiBoZWlnaHQ9IjEiIHdpZHRoPSIxIiB5PSI0IiB4PSI3Ii8+PHJlY3QgZmlsbD0iIzhiMWYxYSIgaGVpZ2h0PSIxIiB3aWR0aD0iMSIgeT0iNSIgeD0iNyIvPjxyZWN0IGZpbGw9IiM4YjFmMWEiIGhlaWdodD0iMSIgd2lkdGg9IjEiIHk9IjYiIHg9IjciLz48cmVjdCBmaWxsPSIjNzIxOTE1IiBoZWlnaHQ9IjEiIHdpZHRoPSIxIiB5PSI3IiB4PSI3Ii8+PHJlY3QgZmlsbD0iIzdiMWIxNyIgaGVpZ2h0PSIxIiB3aWR0aD0iMSIgeT0iOCIgeD0iNyIvPjxyZWN0IGZpbGw9IiM2MjE2MTIiIGhlaWdodD0iMSIgd2lkdGg9IjEiIHk9IjkiIHg9IjciLz48cmVjdCBmaWxsPSIjNGYxMTBmIiBoZWlnaHQ9IjEiIHdpZHRoPSIxIiB5PSIxMCIgeD0iNyIvPjxyZWN0IGZpbGw9IiMzZjMyMmEiIGhlaWdodD0iMSIgd2lkdGg9IjEiIHk9IjExIiB4PSI3Ii8+PHJlY3QgZmlsbD0iIzRmM2YzNSIgaGVpZ2h0PSIxIiB3aWR0aD0iMSIgeT0iMTIiIHg9IjciLz48cmVjdCBmaWxsPSIjNTY0NTNhIiBoZWlnaHQ9IjEiIHdpZHRoPSIxIiB5PSIxMyIgeD0iNyIvPjxyZWN0IGZpbGw9IiM1ZjRjNDAiIGhlaWdodD0iMSIgd2lkdGg9IjEiIHk9IjE0IiB4PSI3Ii8+PHJlY3QgZmlsbD0iIzU2NDUzYSIgaGVpZ2h0PSIxIiB3aWR0aD0iMSIgeT0iMTUiIHg9IjciLz48cmVjdCBmaWxsPSIjN2IxYjE3IiBoZWlnaHQ9IjEiIHdpZHRoPSIxIiB5PSI0IiB4PSI4Ii8+PHJlY3QgZmlsbD0iIzdiMWIxNyIgaGVpZ2h0PSIxIiB3aWR0aD0iMSIgeT0iNSIgeD0iOCIvPjxyZWN0IGZpbGw9IiNmZjY1MDAiIGhlaWdodD0iMSIgd2lkdGg9IjEiIHk9IjYiIHg9IjgiLz48cmVjdCBmaWxsPSIjZmY2NTAwIiBoZWlnaHQ9IjEiIHdpZHRoPSIxIiB5PSI3IiB4PSI4Ii8+PHJlY3QgZmlsbD0iIzYyMTYxMiIgaGVpZ2h0PSIxIiB3aWR0aD0iMSIgeT0iOCIgeD0iOCIvPjxyZWN0IGZpbGw9IiM1OTE0MTEiIGhlaWdodD0iMSIgd2lkdGg9IjEiIHk9IjkiIHg9IjgiLz48cmVjdCBmaWxsPSIjNGYxMTBmIiBoZWlnaHQ9IjEiIHdpZHRoPSIxIiB5PSIxMCIgeD0iOCIvPjxyZWN0IGZpbGw9IiM0NjM4MmYiIGhlaWdodD0iMSIgd2lkdGg9IjEiIHk9IjExIiB4PSI4Ii8+PHJlY3QgZmlsbD0iIzRlM2UzNCIgaGVpZ2h0PSIxIiB3aWR0aD0iMSIgeT0iMTIiIHg9IjgiLz48cmVjdCBmaWxsPSIjNWY0YzQwIiBoZWlnaHQ9IjEiIHdpZHRoPSIxIiB5PSIxMyIgeD0iOCIvPjxyZWN0IGZpbGw9IiM1NjQ1M2EiIGhlaWdodD0iMSIgd2lkdGg9IjEiIHk9IjE0IiB4PSI4Ii8+PHJlY3QgZmlsbD0iIzRlM2UzNCIgaGVpZ2h0PSIxIiB3aWR0aD0iMSIgeT0iMTUiIHg9IjgiLz48cmVjdCBmaWxsPSIjZmZhNDY4IiBoZWlnaHQ9IjEiIHdpZHRoPSIxIiB5PSI0IiB4PSI5Ii8+PHJlY3QgZmlsbD0iIzdiMWIxNyIgaGVpZ2h0PSIxIiB3aWR0aD0iMSIgeT0iNSIgeD0iOSIvPjxyZWN0IGZpbGw9IiNmZmE0NjgiIGhlaWdodD0iMSIgd2lkdGg9IjEiIHk9IjYiIHg9IjkiLz48cmVjdCBmaWxsPSIjZmY2NTAwIiBoZWlnaHQ9IjEiIHdpZHRoPSIxIiB5PSI3IiB4PSI5Ii8+PHJlY3QgZmlsbD0iIzU5MTQxMSIgaGVpZ2h0PSIxIiB3aWR0aD0iMSIgeT0iOCIgeD0iOSIvPjxyZWN0IGZpbGw9IiM1OTE0MTEiIGhlaWdodD0iMSIgd2lkdGg9IjEiIHk9IjkiIHg9IjkiLz48cmVjdCBmaWxsPSIjNTkxNDExIiBoZWlnaHQ9IjEiIHdpZHRoPSIxIiB5PSIxMCIgeD0iOSIvPjxyZWN0IGZpbGw9IiM3MjE5MTUiIGhlaWdodD0iMSIgd2lkdGg9IjEiIHk9IjUiIHg9IjEwIi8+PHJlY3QgZmlsbD0iIzcyMTkxNSIgaGVpZ2h0PSIxIiB3aWR0aD0iMSIgeT0iNiIgeD0iMTAiLz48cmVjdCBmaWxsPSIjNjIxNjEyIiBoZWlnaHQ9IjEiIHdpZHRoPSIxIiB5PSI3IiB4PSIxMCIvPjxyZWN0IGZpbGw9IiM1OTE0MTEiIGhlaWdodD0iMSIgd2lkdGg9IjEiIHk9IjgiIHg9IjEwIi8+PHJlY3QgZmlsbD0iIzYyMTYxMiIgaGVpZ2h0PSIxIiB3aWR0aD0iMSIgeT0iOSIgeD0iMTAiLz48cmVjdCBmaWxsPSIjNTkxNDExIiBoZWlnaHQ9IjEiIHdpZHRoPSIxIiB5PSIxMCIgeD0iMTAiLz48cmVjdCBmaWxsPSIjODgxZTFhIiBoZWlnaHQ9IjEiIHdpZHRoPSIxIiB5PSI4IiB4PSIxMSIvPjxyZWN0IGZpbGw9IiM2MjE2MTIiIGhlaWdodD0iMSIgd2lkdGg9IjEiIHk9IjkiIHg9IjExIi8+PHJlY3QgZmlsbD0iIzRmMTEwZiIgaGVpZ2h0PSIxIiB3aWR0aD0iMSIgeT0iMTAiIHg9IjExIi8+PHJlY3QgZmlsbD0iIzYyMTYxMiIgaGVpZ2h0PSIxIiB3aWR0aD0iMSIgeT0iOCIgeD0iMTIiLz48cmVjdCBmaWxsPSIjNGYxMTBmIiBoZWlnaHQ9IjEiIHdpZHRoPSIxIiB5PSI5IiB4PSIxMiIvPjwvc3ZnPg==;spacing=0;labelPosition=center;align=center;" parent="1" vertex="1">
          <mxGeometry x="1359" y="840" width="80" height="80" as="geometry" />
        </mxCell>
        <mxCell id="e6NpG6qJWJl4L8qyxp-1-3" value="Leccinum&#xa;carbonis" style="shape=image;verticalLabelPosition=bottom;labelBackgroundColor=default;verticalAlign=top;aspect=fixed;imageAspect=0;image=data:image/svg+xml,PHN2ZyB4bWxucz0iaHR0cDovL3d3dy53My5vcmcvMjAwMC9zdmciIGhlaWdodD0iMTYiIHdpZHRoPSIxNiIgdmlld0JveD0iMCAwIDE2IDE2Ij48cmVjdCBmaWxsPSIjNjg2ODY4IiBoZWlnaHQ9IjEiIHdpZHRoPSIxIiB5PSI3IiB4PSIzIi8+PHJlY3QgZmlsbD0iIzYyNjI2MiIgaGVpZ2h0PSIxIiB3aWR0aD0iMSIgeT0iOCIgeD0iMyIvPjxyZWN0IGZpbGw9IiM1NjU2NTYiIGhlaWdodD0iMSIgd2lkdGg9IjEiIHk9IjkiIHg9IjMiLz48cmVjdCBmaWxsPSIjNTY1NjU2IiBoZWlnaHQ9IjEiIHdpZHRoPSIxIiB5PSIxMCIgeD0iMyIvPjxyZWN0IGZpbGw9IiMyNjI2MjYiIGhlaWdodD0iMSIgd2lkdGg9IjEiIHk9IjciIHg9IjQiLz48cmVjdCBmaWxsPSIjNjg2ODY4IiBoZWlnaHQ9IjEiIHdpZHRoPSIxIiB5PSI4IiB4PSI0Ii8+PHJlY3QgZmlsbD0iIzYyNjI2MiIgaGVpZ2h0PSIxIiB3aWR0aD0iMSIgeT0iOSIgeD0iNCIvPjxyZWN0IGZpbGw9IiM1NjU2NTYiIGhlaWdodD0iMSIgd2lkdGg9IjEiIHk9IjEwIiB4PSI0Ii8+PHJlY3QgZmlsbD0iIzcxNzE3MSIgaGVpZ2h0PSIxIiB3aWR0aD0iMSIgeT0iNyIgeD0iNSIvPjxyZWN0IGZpbGw9IiM3MTcxNzEiIGhlaWdodD0iMSIgd2lkdGg9IjEiIHk9IjgiIHg9IjUiLz48cmVjdCBmaWxsPSIjNjI2MjYyIiBoZWlnaHQ9IjEiIHdpZHRoPSIxIiB5PSI5IiB4PSI1Ii8+PHJlY3QgZmlsbD0iIzU2NTY1NiIgaGVpZ2h0PSIxIiB3aWR0aD0iMSIgeT0iMTAiIHg9IjUiLz48cmVjdCBmaWxsPSIjNzE3MTcxIiBoZWlnaHQ9IjEiIHdpZHRoPSIxIiB5PSI3IiB4PSI2Ii8+PHJlY3QgZmlsbD0iIzcxNzE3MSIgaGVpZ2h0PSIxIiB3aWR0aD0iMSIgeT0iOCIgeD0iNiIvPjxyZWN0IGZpbGw9IiMyNjI2MjYiIGhlaWdodD0iMSIgd2lkdGg9IjEiIHk9IjkiIHg9IjYiLz48cmVjdCBmaWxsPSIjMzczNzM3IiBoZWlnaHQ9IjEiIHdpZHRoPSIxIiB5PSIxMCIgeD0iNiIvPjxyZWN0IGZpbGw9IiM3MTcxNzEiIGhlaWdodD0iMSIgd2lkdGg9IjEiIHk9IjciIHg9IjciLz48cmVjdCBmaWxsPSIjNzE3MTcxIiBoZWlnaHQ9IjEiIHdpZHRoPSIxIiB5PSI4IiB4PSI3Ii8+PHJlY3QgZmlsbD0iIzM3MzczNyIgaGVpZ2h0PSIxIiB3aWR0aD0iMSIgeT0iOSIgeD0iNyIvPjxyZWN0IGZpbGw9IiMzNzM3MzciIGhlaWdodD0iMSIgd2lkdGg9IjEiIHk9IjEwIiB4PSI3Ii8+PHJlY3QgZmlsbD0iIzZiNjc1YiIgaGVpZ2h0PSIxIiB3aWR0aD0iMSIgeT0iMTEiIHg9IjciLz48cmVjdCBmaWxsPSIjNzU3MTYzIiBoZWlnaHQ9IjEiIHdpZHRoPSIxIiB5PSIxMiIgeD0iNyIvPjxyZWN0IGZpbGw9IiM3ZTc5NmEiIGhlaWdodD0iMSIgd2lkdGg9IjEiIHk9IjEzIiB4PSI3Ii8+PHJlY3QgZmlsbD0iIzc1NzE2MyIgaGVpZ2h0PSIxIiB3aWR0aD0iMSIgeT0iMTQiIHg9IjciLz48cmVjdCBmaWxsPSIjN2U3OTZhIiBoZWlnaHQ9IjEiIHdpZHRoPSIxIiB5PSIxNSIgeD0iNyIvPjxyZWN0IGZpbGw9IiM3MTcxNzEiIGhlaWdodD0iMSIgd2lkdGg9IjEiIHk9IjciIHg9IjgiLz48cmVjdCBmaWxsPSIjNzE3MTcxIiBoZWlnaHQ9IjEiIHdpZHRoPSIxIiB5PSI4IiB4PSI4Ii8+PHJlY3QgZmlsbD0iIzY4Njg2OCIgaGVpZ2h0PSIxIiB3aWR0aD0iMSIgeT0iOSIgeD0iOCIvPjxyZWN0IGZpbGw9IiM2MDYwNjAiIGhlaWdodD0iMSIgd2lkdGg9IjEiIHk9IjEwIiB4PSI4Ii8+PHJlY3QgZmlsbD0iIzZiNjc1YiIgaGVpZ2h0PSIxIiB3aWR0aD0iMSIgeT0iMTEiIHg9IjgiLz48cmVjdCBmaWxsPSIjNmI2NzViIiBoZWlnaHQ9IjEiIHdpZHRoPSIxIiB5PSIxMiIgeD0iOCIvPjxyZWN0IGZpbGw9IiM3NTcxNjMiIGhlaWdodD0iMSIgd2lkdGg9IjEiIHk9IjEzIiB4PSI4Ii8+PHJlY3QgZmlsbD0iIzdlNzk2YSIgaGVpZ2h0PSIxIiB3aWR0aD0iMSIgeT0iMTQiIHg9IjgiLz48cmVjdCBmaWxsPSIjNzU3MTYzIiBoZWlnaHQ9IjEiIHdpZHRoPSIxIiB5PSIxNSIgeD0iOCIvPjxyZWN0IGZpbGw9IiMzODM4MzgiIGhlaWdodD0iMSIgd2lkdGg9IjEiIHk9IjciIHg9IjkiLz48cmVjdCBmaWxsPSIjMzgzODM4IiBoZWlnaHQ9IjEiIHdpZHRoPSIxIiB5PSI4IiB4PSI5Ii8+PHJlY3QgZmlsbD0iIzYyNjI2MiIgaGVpZ2h0PSIxIiB3aWR0aD0iMSIgeT0iOSIgeD0iOSIvPjxyZWN0IGZpbGw9IiM2MDYwNjAiIGhlaWdodD0iMSIgd2lkdGg9IjEiIHk9IjEwIiB4PSI5Ii8+PHJlY3QgZmlsbD0iIzJlMmUyZSIgaGVpZ2h0PSIxIiB3aWR0aD0iMSIgeT0iNyIgeD0iMTAiLz48cmVjdCBmaWxsPSIjMzgzODM4IiBoZWlnaHQ9IjEiIHdpZHRoPSIxIiB5PSI4IiB4PSIxMCIvPjxyZWN0IGZpbGw9IiM2MjYyNjIiIGhlaWdodD0iMSIgd2lkdGg9IjEiIHk9IjkiIHg9IjEwIi8+PHJlY3QgZmlsbD0iIzU2NTY1NiIgaGVpZ2h0PSIxIiB3aWR0aD0iMSIgeT0iMTAiIHg9IjEwIi8+PHJlY3QgZmlsbD0iIzcxNzE3MSIgaGVpZ2h0PSIxIiB3aWR0aD0iMSIgeT0iNyIgeD0iMTEiLz48cmVjdCBmaWxsPSIjNjg2ODY4IiBoZWlnaHQ9IjEiIHdpZHRoPSIxIiB5PSI4IiB4PSIxMSIvPjxyZWN0IGZpbGw9IiM2MjYyNjIiIGhlaWdodD0iMSIgd2lkdGg9IjEiIHk9IjkiIHg9IjExIi8+PHJlY3QgZmlsbD0iIzU2NTY1NiIgaGVpZ2h0PSIxIiB3aWR0aD0iMSIgeT0iMTAiIHg9IjExIi8+PHJlY3QgZmlsbD0iIzY4Njg2OCIgaGVpZ2h0PSIxIiB3aWR0aD0iMSIgeT0iNyIgeD0iMTIiLz48cmVjdCBmaWxsPSIjNjI2MjYyIiBoZWlnaHQ9IjEiIHdpZHRoPSIxIiB5PSI4IiB4PSIxMiIvPjxyZWN0IGZpbGw9IiM1NjU2NTYiIGhlaWdodD0iMSIgd2lkdGg9IjEiIHk9IjkiIHg9IjEyIi8+PHJlY3QgZmlsbD0iIzU2NTY1NiIgaGVpZ2h0PSIxIiB3aWR0aD0iMSIgeT0iMTAiIHg9IjEyIi8+PC9zdmc+;spacing=0;" parent="1" vertex="1">
          <mxGeometry x="800" y="560" width="80" height="80" as="geometry" />
        </mxCell>
        <mxCell id="ZMcWy08n0i6IzzEiBIe1-2" value="PINK FUNGUS" style="shape=image;verticalLabelPosition=top;labelBackgroundColor=default;verticalAlign=bottom;aspect=fixed;imageAspect=0;image=data:image/svg+xml,PHN2ZyB4bWxucz0iaHR0cDovL3d3dy53My5vcmcvMjAwMC9zdmciIGhlaWdodD0iMTYiIHdpZHRoPSIxNiIgdmlld0JveD0iMCAwIDE2IDE2Ij48cmVjdCBmaWxsPSIjN2I1YzYxIiBoZWlnaHQ9IjEiIHdpZHRoPSIxIiB5PSI4IiB4PSIzIi8+PHJlY3QgZmlsbD0iIzZlNTI1NyIgaGVpZ2h0PSIxIiB3aWR0aD0iMSIgeT0iOSIgeD0iMyIvPjxyZWN0IGZpbGw9IiNhOTdmODYiIGhlaWdodD0iMSIgd2lkdGg9IjEiIHk9IjgiIHg9IjQiLz48cmVjdCBmaWxsPSIjN2I1YzYxIiBoZWlnaHQ9IjEiIHdpZHRoPSIxIiB5PSI5IiB4PSI0Ii8+PHJlY3QgZmlsbD0iIzZlNTI1NyIgaGVpZ2h0PSIxIiB3aWR0aD0iMSIgeT0iMTAiIHg9IjQiLz48cmVjdCBmaWxsPSIjZmZlZWYwIiBoZWlnaHQ9IjEiIHdpZHRoPSIxIiB5PSI1IiB4PSI1Ii8+PHJlY3QgZmlsbD0iI2ZmYzBjYiIgaGVpZ2h0PSIxIiB3aWR0aD0iMSIgeT0iNiIgeD0iNSIvPjxyZWN0IGZpbGw9IiM4ODY2NmMiIGhlaWdodD0iMSIgd2lkdGg9IjEiIHk9IjciIHg9IjUiLz48cmVjdCBmaWxsPSIjYmU4Zjk3IiBoZWlnaHQ9IjEiIHdpZHRoPSIxIiB5PSI4IiB4PSI1Ii8+PHJlY3QgZmlsbD0iIzg4NjY2YyIgaGVpZ2h0PSIxIiB3aWR0aD0iMSIgeT0iOSIgeD0iNSIvPjxyZWN0IGZpbGw9IiM3YjVjNjEiIGhlaWdodD0iMSIgd2lkdGg9IjEiIHk9IjEwIiB4PSI1Ii8+PHJlY3QgZmlsbD0iI2JlOGY5NyIgaGVpZ2h0PSIxIiB3aWR0aD0iMSIgeT0iNCIgeD0iNiIvPjxyZWN0IGZpbGw9IiNmZmMwY2IiIGhlaWdodD0iMSIgd2lkdGg9IjEiIHk9IjUiIHg9IjYiLz48cmVjdCBmaWxsPSIjZmZjMGNiIiBoZWlnaHQ9IjEiIHdpZHRoPSIxIiB5PSI2IiB4PSI2Ii8+PHJlY3QgZmlsbD0iIzlkNzY3YyIgaGVpZ2h0PSIxIiB3aWR0aD0iMSIgeT0iNyIgeD0iNiIvPjxyZWN0IGZpbGw9IiNiZThmOTciIGhlaWdodD0iMSIgd2lkdGg9IjEiIHk9IjgiIHg9IjYiLz48cmVjdCBmaWxsPSIjODg2NjZjIiBoZWlnaHQ9IjEiIHdpZHRoPSIxIiB5PSI5IiB4PSI2Ii8+PHJlY3QgZmlsbD0iIzdiNWM2MSIgaGVpZ2h0PSIxIiB3aWR0aD0iMSIgeT0iMTAiIHg9IjYiLz48cmVjdCBmaWxsPSIjYmU4Zjk3IiBoZWlnaHQ9IjEiIHdpZHRoPSIxIiB5PSI0IiB4PSI3Ii8+PHJlY3QgZmlsbD0iI2JlOGY5NyIgaGVpZ2h0PSIxIiB3aWR0aD0iMSIgeT0iNSIgeD0iNyIvPjxyZWN0IGZpbGw9IiNiZThmOTciIGhlaWdodD0iMSIgd2lkdGg9IjEiIHk9IjYiIHg9IjciLz48cmVjdCBmaWxsPSIjOWQ3NjdjIiBoZWlnaHQ9IjEiIHdpZHRoPSIxIiB5PSI3IiB4PSI3Ii8+PHJlY3QgZmlsbD0iI2E5N2Y4NiIgaGVpZ2h0PSIxIiB3aWR0aD0iMSIgeT0iOCIgeD0iNyIvPjxyZWN0IGZpbGw9IiM4ODY2NmMiIGhlaWdodD0iMSIgd2lkdGg9IjEiIHk9IjkiIHg9IjciLz48cmVjdCBmaWxsPSIjNmU1MjU3IiBoZWlnaHQ9IjEiIHdpZHRoPSIxIiB5PSIxMCIgeD0iNyIvPjxyZWN0IGZpbGw9IiM1NTRkM2YiIGhlaWdodD0iMSIgd2lkdGg9IjEiIHk9IjExIiB4PSI3Ii8+PHJlY3QgZmlsbD0iIzZjNjE0ZiIgaGVpZ2h0PSIxIiB3aWR0aD0iMSIgeT0iMTIiIHg9IjciLz48cmVjdCBmaWxsPSIjNzU2YTU2IiBoZWlnaHQ9IjEiIHdpZHRoPSIxIiB5PSIxMyIgeD0iNyIvPjxyZWN0IGZpbGw9IiM4MTc1NWYiIGhlaWdodD0iMSIgd2lkdGg9IjEiIHk9IjE0IiB4PSI3Ii8+PHJlY3QgZmlsbD0iIzc1NmE1NiIgaGVpZ2h0PSIxIiB3aWR0aD0iMSIgeT0iMTUiIHg9IjciLz48cmVjdCBmaWxsPSIjYTk3Zjg2IiBoZWlnaHQ9IjEiIHdpZHRoPSIxIiB5PSI0IiB4PSI4Ii8+PHJlY3QgZmlsbD0iI2E5N2Y4NiIgaGVpZ2h0PSIxIiB3aWR0aD0iMSIgeT0iNSIgeD0iOCIvPjxyZWN0IGZpbGw9IiNmZmMwY2IiIGhlaWdodD0iMSIgd2lkdGg9IjEiIHk9IjYiIHg9IjgiLz48cmVjdCBmaWxsPSIjZmZjMGNiIiBoZWlnaHQ9IjEiIHdpZHRoPSIxIiB5PSI3IiB4PSI4Ii8+PHJlY3QgZmlsbD0iIzg4NjY2YyIgaGVpZ2h0PSIxIiB3aWR0aD0iMSIgeT0iOCIgeD0iOCIvPjxyZWN0IGZpbGw9IiM3YjVjNjEiIGhlaWdodD0iMSIgd2lkdGg9IjEiIHk9IjkiIHg9IjgiLz48cmVjdCBmaWxsPSIjNmU1MjU3IiBoZWlnaHQ9IjEiIHdpZHRoPSIxIiB5PSIxMCIgeD0iOCIvPjxyZWN0IGZpbGw9IiM2MDU3NDYiIGhlaWdodD0iMSIgd2lkdGg9IjEiIHk9IjExIiB4PSI4Ii8+PHJlY3QgZmlsbD0iIzZhNjA0ZSIgaGVpZ2h0PSIxIiB3aWR0aD0iMSIgeT0iMTIiIHg9IjgiLz48cmVjdCBmaWxsPSIjODE3NTVmIiBoZWlnaHQ9IjEiIHdpZHRoPSIxIiB5PSIxMyIgeD0iOCIvPjxyZWN0IGZpbGw9IiM3NTZhNTYiIGhlaWdodD0iMSIgd2lkdGg9IjEiIHk9IjE0IiB4PSI4Ii8+PHJlY3QgZmlsbD0iIzZhNjA0ZSIgaGVpZ2h0PSIxIiB3aWR0aD0iMSIgeT0iMTUiIHg9IjgiLz48cmVjdCBmaWxsPSIjZmZlZWYwIiBoZWlnaHQ9IjEiIHdpZHRoPSIxIiB5PSI0IiB4PSI5Ii8+PHJlY3QgZmlsbD0iI2E5N2Y4NiIgaGVpZ2h0PSIxIiB3aWR0aD0iMSIgeT0iNSIgeD0iOSIvPjxyZWN0IGZpbGw9IiNmZmVlZjAiIGhlaWdodD0iMSIgd2lkdGg9IjEiIHk9IjYiIHg9IjkiLz48cmVjdCBmaWxsPSIjZmZjMGNiIiBoZWlnaHQ9IjEiIHdpZHRoPSIxIiB5PSI3IiB4PSI5Ii8+PHJlY3QgZmlsbD0iIzdiNWM2MSIgaGVpZ2h0PSIxIiB3aWR0aD0iMSIgeT0iOCIgeD0iOSIvPjxyZWN0IGZpbGw9IiM3YjVjNjEiIGhlaWdodD0iMSIgd2lkdGg9IjEiIHk9IjkiIHg9IjkiLz48cmVjdCBmaWxsPSIjN2I1YzYxIiBoZWlnaHQ9IjEiIHdpZHRoPSIxIiB5PSIxMCIgeD0iOSIvPjxyZWN0IGZpbGw9IiM5ZDc2N2MiIGhlaWdodD0iMSIgd2lkdGg9IjEiIHk9IjUiIHg9IjEwIi8+PHJlY3QgZmlsbD0iIzlkNzY3YyIgaGVpZ2h0PSIxIiB3aWR0aD0iMSIgeT0iNiIgeD0iMTAiLz48cmVjdCBmaWxsPSIjODg2NjZjIiBoZWlnaHQ9IjEiIHdpZHRoPSIxIiB5PSI3IiB4PSIxMCIvPjxyZWN0IGZpbGw9IiM3YjVjNjEiIGhlaWdodD0iMSIgd2lkdGg9IjEiIHk9IjgiIHg9IjEwIi8+PHJlY3QgZmlsbD0iIzg4NjY2YyIgaGVpZ2h0PSIxIiB3aWR0aD0iMSIgeT0iOSIgeD0iMTAiLz48cmVjdCBmaWxsPSIjN2I1YzYxIiBoZWlnaHQ9IjEiIHdpZHRoPSIxIiB5PSIxMCIgeD0iMTAiLz48cmVjdCBmaWxsPSIjYmE4Yzk0IiBoZWlnaHQ9IjEiIHdpZHRoPSIxIiB5PSI4IiB4PSIxMSIvPjxyZWN0IGZpbGw9IiM4ODY2NmMiIGhlaWdodD0iMSIgd2lkdGg9IjEiIHk9IjkiIHg9IjExIi8+PHJlY3QgZmlsbD0iIzZlNTI1NyIgaGVpZ2h0PSIxIiB3aWR0aD0iMSIgeT0iMTAiIHg9IjExIi8+PHJlY3QgZmlsbD0iIzg4NjY2YyIgaGVpZ2h0PSIxIiB3aWR0aD0iMSIgeT0iOCIgeD0iMTIiLz48cmVjdCBmaWxsPSIjNmU1MjU3IiBoZWlnaHQ9IjEiIHdpZHRoPSIxIiB5PSI5IiB4PSIxMiIvPjwvc3ZnPg==;spacing=0;labelPosition=center;align=center;" parent="1" vertex="1">
          <mxGeometry x="320" y="720" width="80" height="80" as="geometry" />
        </mxCell>
        <mxCell id="ZMcWy08n0i6IzzEiBIe1-3" value="Boletellus caeruleus" style="shape=image;verticalLabelPosition=top;labelBackgroundColor=default;verticalAlign=bottom;aspect=fixed;imageAspect=0;image=data:image/svg+xml,PHN2ZyB4bWxucz0iaHR0cDovL3d3dy53My5vcmcvMjAwMC9zdmciIGhlaWdodD0iMTYiIHdpZHRoPSIxNiIgdmlld0JveD0iMCAwIDE2IDE2Ij48cmVjdCBmaWxsPSIjMjY0NzcyIiBoZWlnaHQ9IjEiIHdpZHRoPSIxIiB5PSI4IiB4PSIzIi8+PHJlY3QgZmlsbD0iIzIyM2Y2NiIgaGVpZ2h0PSIxIiB3aWR0aD0iMSIgeT0iOSIgeD0iMyIvPjxyZWN0IGZpbGw9IiMzNDYyOWQiIGhlaWdodD0iMSIgd2lkdGg9IjEiIHk9IjgiIHg9IjQiLz48cmVjdCBmaWxsPSIjMjY0NzcyIiBoZWlnaHQ9IjEiIHdpZHRoPSIxIiB5PSI5IiB4PSI0Ii8+PHJlY3QgZmlsbD0iIzIyM2Y2NiIgaGVpZ2h0PSIxIiB3aWR0aD0iMSIgeT0iMTAiIHg9IjQiLz48cmVjdCBmaWxsPSIjZmZmN2U5IiBoZWlnaHQ9IjEiIHdpZHRoPSIxIiB5PSI1IiB4PSI1Ii8+PHJlY3QgZmlsbD0iI2Y2ZGZiNSIgaGVpZ2h0PSIxIiB3aWR0aD0iMSIgeT0iNiIgeD0iNSIvPjxyZWN0IGZpbGw9IiMyYTRlN2UiIGhlaWdodD0iMSIgd2lkdGg9IjEiIHk9IjciIHg9IjUiLz48cmVjdCBmaWxsPSIjM2E2ZWIxIiBoZWlnaHQ9IjEiIHdpZHRoPSIxIiB5PSI4IiB4PSI1Ii8+PHJlY3QgZmlsbD0iIzJhNGU3ZSIgaGVpZ2h0PSIxIiB3aWR0aD0iMSIgeT0iOSIgeD0iNSIvPjxyZWN0IGZpbGw9IiMyNjQ3NzIiIGhlaWdodD0iMSIgd2lkdGg9IjEiIHk9IjEwIiB4PSI1Ii8+PHJlY3QgZmlsbD0iIzNhNmViMSIgaGVpZ2h0PSIxIiB3aWR0aD0iMSIgeT0iNCIgeD0iNiIvPjxyZWN0IGZpbGw9IiNmNmRmYjUiIGhlaWdodD0iMSIgd2lkdGg9IjEiIHk9IjUiIHg9IjYiLz48cmVjdCBmaWxsPSIjZjZkZmI1IiBoZWlnaHQ9IjEiIHdpZHRoPSIxIiB5PSI2IiB4PSI2Ii8+PHJlY3QgZmlsbD0iIzMwNWI5MiIgaGVpZ2h0PSIxIiB3aWR0aD0iMSIgeT0iNyIgeD0iNiIvPjxyZWN0IGZpbGw9IiMzYTZlYjEiIGhlaWdodD0iMSIgd2lkdGg9IjEiIHk9IjgiIHg9IjYiLz48cmVjdCBmaWxsPSIjMmE0ZTdlIiBoZWlnaHQ9IjEiIHdpZHRoPSIxIiB5PSI5IiB4PSI2Ii8+PHJlY3QgZmlsbD0iIzI2NDc3MiIgaGVpZ2h0PSIxIiB3aWR0aD0iMSIgeT0iMTAiIHg9IjYiLz48cmVjdCBmaWxsPSIjM2E2ZWIxIiBoZWlnaHQ9IjEiIHdpZHRoPSIxIiB5PSI0IiB4PSI3Ii8+PHJlY3QgZmlsbD0iIzNhNmViMSIgaGVpZ2h0PSIxIiB3aWR0aD0iMSIgeT0iNSIgeD0iNyIvPjxyZWN0IGZpbGw9IiMzYTZlYjEiIGhlaWdodD0iMSIgd2lkdGg9IjEiIHk9IjYiIHg9IjciLz48cmVjdCBmaWxsPSIjMzA1YjkyIiBoZWlnaHQ9IjEiIHdpZHRoPSIxIiB5PSI3IiB4PSI3Ii8+PHJlY3QgZmlsbD0iIzM0NjI5ZCIgaGVpZ2h0PSIxIiB3aWR0aD0iMSIgeT0iOCIgeD0iNyIvPjxyZWN0IGZpbGw9IiMyYTRlN2UiIGhlaWdodD0iMSIgd2lkdGg9IjEiIHk9IjkiIHg9IjciLz48cmVjdCBmaWxsPSIjMjIzZjY2IiBoZWlnaHQ9IjEiIHdpZHRoPSIxIiB5PSIxMCIgeD0iNyIvPjxyZWN0IGZpbGw9IiM1NTRkM2YiIGhlaWdodD0iMSIgd2lkdGg9IjEiIHk9IjExIiB4PSI3Ii8+PHJlY3QgZmlsbD0iIzZjNjE0ZiIgaGVpZ2h0PSIxIiB3aWR0aD0iMSIgeT0iMTIiIHg9IjciLz48cmVjdCBmaWxsPSIjNzU2YTU2IiBoZWlnaHQ9IjEiIHdpZHRoPSIxIiB5PSIxMyIgeD0iNyIvPjxyZWN0IGZpbGw9IiM4MTc1NWYiIGhlaWdodD0iMSIgd2lkdGg9IjEiIHk9IjE0IiB4PSI3Ii8+PHJlY3QgZmlsbD0iIzc1NmE1NiIgaGVpZ2h0PSIxIiB3aWR0aD0iMSIgeT0iMTUiIHg9IjciLz48cmVjdCBmaWxsPSIjMzQ2MjlkIiBoZWlnaHQ9IjEiIHdpZHRoPSIxIiB5PSI0IiB4PSI4Ii8+PHJlY3QgZmlsbD0iIzM0NjI5ZCIgaGVpZ2h0PSIxIiB3aWR0aD0iMSIgeT0iNSIgeD0iOCIvPjxyZWN0IGZpbGw9IiNmNmRmYjUiIGhlaWdodD0iMSIgd2lkdGg9IjEiIHk9IjYiIHg9IjgiLz48cmVjdCBmaWxsPSIjZjZkZmI1IiBoZWlnaHQ9IjEiIHdpZHRoPSIxIiB5PSI3IiB4PSI4Ii8+PHJlY3QgZmlsbD0iIzJhNGU3ZSIgaGVpZ2h0PSIxIiB3aWR0aD0iMSIgeT0iOCIgeD0iOCIvPjxyZWN0IGZpbGw9IiMyNjQ3NzIiIGhlaWdodD0iMSIgd2lkdGg9IjEiIHk9IjkiIHg9IjgiLz48cmVjdCBmaWxsPSIjMjIzZjY2IiBoZWlnaHQ9IjEiIHdpZHRoPSIxIiB5PSIxMCIgeD0iOCIvPjxyZWN0IGZpbGw9IiM2MDU3NDYiIGhlaWdodD0iMSIgd2lkdGg9IjEiIHk9IjExIiB4PSI4Ii8+PHJlY3QgZmlsbD0iIzZhNjA0ZSIgaGVpZ2h0PSIxIiB3aWR0aD0iMSIgeT0iMTIiIHg9IjgiLz48cmVjdCBmaWxsPSIjODE3NTVmIiBoZWlnaHQ9IjEiIHdpZHRoPSIxIiB5PSIxMyIgeD0iOCIvPjxyZWN0IGZpbGw9IiM3NTZhNTYiIGhlaWdodD0iMSIgd2lkdGg9IjEiIHk9IjE0IiB4PSI4Ii8+PHJlY3QgZmlsbD0iIzZhNjA0ZSIgaGVpZ2h0PSIxIiB3aWR0aD0iMSIgeT0iMTUiIHg9IjgiLz48cmVjdCBmaWxsPSIjZmZmN2U5IiBoZWlnaHQ9IjEiIHdpZHRoPSIxIiB5PSI0IiB4PSI5Ii8+PHJlY3QgZmlsbD0iIzM0NjI5ZCIgaGVpZ2h0PSIxIiB3aWR0aD0iMSIgeT0iNSIgeD0iOSIvPjxyZWN0IGZpbGw9IiNmZmY3ZTkiIGhlaWdodD0iMSIgd2lkdGg9IjEiIHk9IjYiIHg9IjkiLz48cmVjdCBmaWxsPSIjZjZkZmI1IiBoZWlnaHQ9IjEiIHdpZHRoPSIxIiB5PSI3IiB4PSI5Ii8+PHJlY3QgZmlsbD0iIzI2NDc3MiIgaGVpZ2h0PSIxIiB3aWR0aD0iMSIgeT0iOCIgeD0iOSIvPjxyZWN0IGZpbGw9IiMyNjQ3NzIiIGhlaWdodD0iMSIgd2lkdGg9IjEiIHk9IjkiIHg9IjkiLz48cmVjdCBmaWxsPSIjMjY0NzcyIiBoZWlnaHQ9IjEiIHdpZHRoPSIxIiB5PSIxMCIgeD0iOSIvPjxyZWN0IGZpbGw9IiMzMDViOTIiIGhlaWdodD0iMSIgd2lkdGg9IjEiIHk9IjUiIHg9IjEwIi8+PHJlY3QgZmlsbD0iIzMwNWI5MiIgaGVpZ2h0PSIxIiB3aWR0aD0iMSIgeT0iNiIgeD0iMTAiLz48cmVjdCBmaWxsPSIjMmE0ZTdlIiBoZWlnaHQ9IjEiIHdpZHRoPSIxIiB5PSI3IiB4PSIxMCIvPjxyZWN0IGZpbGw9IiMyNjQ3NzIiIGhlaWdodD0iMSIgd2lkdGg9IjEiIHk9IjgiIHg9IjEwIi8+PHJlY3QgZmlsbD0iIzJhNGU3ZSIgaGVpZ2h0PSIxIiB3aWR0aD0iMSIgeT0iOSIgeD0iMTAiLz48cmVjdCBmaWxsPSIjMjY0NzcyIiBoZWlnaHQ9IjEiIHdpZHRoPSIxIiB5PSIxMCIgeD0iMTAiLz48cmVjdCBmaWxsPSIjMzk2YmFkIiBoZWlnaHQ9IjEiIHdpZHRoPSIxIiB5PSI4IiB4PSIxMSIvPjxyZWN0IGZpbGw9IiMyYTRlN2UiIGhlaWdodD0iMSIgd2lkdGg9IjEiIHk9IjkiIHg9IjExIi8+PHJlY3QgZmlsbD0iIzIyM2Y2NiIgaGVpZ2h0PSIxIiB3aWR0aD0iMSIgeT0iMTAiIHg9IjExIi8+PHJlY3QgZmlsbD0iIzJhNGU3ZSIgaGVpZ2h0PSIxIiB3aWR0aD0iMSIgeT0iOCIgeD0iMTIiLz48cmVjdCBmaWxsPSIjMjIzZjY2IiBoZWlnaHQ9IjEiIHdpZHRoPSIxIiB5PSI5IiB4PSIxMiIvPjwvc3ZnPg==;labelPosition=center;align=center;spacing=0;" parent="1" vertex="1">
          <mxGeometry x="260" y="360" width="80" height="80" as="geometry" />
        </mxCell>
        <mxCell id="ZMcWy08n0i6IzzEiBIe1-5" value="" style="edgeStyle=orthogonalEdgeStyle;rounded=0;orthogonalLoop=1;jettySize=auto;html=1;" parent="1" source="ZMcWy08n0i6IzzEiBIe1-4" target="ZMy1RVDnMmDh1pD7vt_q-57" edge="1">
          <mxGeometry relative="1" as="geometry" />
        </mxCell>
        <mxCell id="ZMcWy08n0i6IzzEiBIe1-4" value="Every fungus that has block transmuting effect descends from this one" style="whiteSpace=wrap;html=1;" parent="1" vertex="1">
          <mxGeometry x="294" y="140" width="120" height="60" as="geometry" />
        </mxCell>
        <mxCell id="ZMcWy08n0i6IzzEiBIe1-6" value="BLACK&lt;br&gt;FUNGUS" style="ellipse;whiteSpace=wrap;html=1;aspect=fixed;fillColor=#e1d5e7;strokeColor=#9673a6;" parent="1" vertex="1">
          <mxGeometry x="620" y="600" width="80" height="80" as="geometry" />
        </mxCell>
        <mxCell id="ZMcWy08n0i6IzzEiBIe1-7" value="" style="endArrow=none;html=1;rounded=0;exitX=1;exitY=1;exitDx=0;exitDy=0;entryX=0.5;entryY=0;entryDx=0;entryDy=0;" parent="1" source="ZMy1RVDnMmDh1pD7vt_q-52" target="ZMcWy08n0i6IzzEiBIe1-6" edge="1">
          <mxGeometry width="50" height="50" relative="1" as="geometry">
            <mxPoint x="670" y="570" as="sourcePoint" />
            <mxPoint x="670" y="590" as="targetPoint" />
          </mxGeometry>
        </mxCell>
        <mxCell id="ZMcWy08n0i6IzzEiBIe1-8" value="" style="endArrow=none;html=1;rounded=0;entryX=0.5;entryY=1;entryDx=0;entryDy=0;exitX=0.5;exitY=0;exitDx=0;exitDy=0;" parent="1" source="ZMcWy08n0i6IzzEiBIe1-6" target="ZMy1RVDnMmDh1pD7vt_q-53" edge="1">
          <mxGeometry width="50" height="50" relative="1" as="geometry">
            <mxPoint x="670" y="570" as="sourcePoint" />
            <mxPoint x="720" y="520" as="targetPoint" />
          </mxGeometry>
        </mxCell>
        <mxCell id="wDrT6_fZVfPxwR5qmV3N-1" value="caelestis" style="shape=image;verticalLabelPosition=top;labelBackgroundColor=default;verticalAlign=bottom;aspect=fixed;imageAspect=0;image=data:image/svg+xml,PHN2ZyB4bWxucz0iaHR0cDovL3d3dy53My5vcmcvMjAwMC9zdmciIGhlaWdodD0iMTYiIHdpZHRoPSIxNiIgdmlld0JveD0iMCAwIDE2IDE2Ij48cmVjdCBmaWxsPSIjNjY5Y2IyIiBoZWlnaHQ9IjEiIHdpZHRoPSIxIiB5PSI3IiB4PSIzIi8+PHJlY3QgZmlsbD0iIzYwOTNhOCIgaGVpZ2h0PSIxIiB3aWR0aD0iMSIgeT0iOCIgeD0iMyIvPjxyZWN0IGZpbGw9IiM1NDgxOTMiIGhlaWdodD0iMSIgd2lkdGg9IjEiIHk9IjkiIHg9IjMiLz48cmVjdCBmaWxsPSIjNTQ4MTkzIiBoZWlnaHQ9IjEiIHdpZHRoPSIxIiB5PSIxMCIgeD0iMyIvPjxyZWN0IGZpbGw9IiM3M2IxYzkiIGhlaWdodD0iMSIgd2lkdGg9IjEiIHk9IjciIHg9IjQiLz48cmVjdCBmaWxsPSIjNjY5Y2IyIiBoZWlnaHQ9IjEiIHdpZHRoPSIxIiB5PSI4IiB4PSI0Ii8+PHJlY3QgZmlsbD0iIzYwOTNhOCIgaGVpZ2h0PSIxIiB3aWR0aD0iMSIgeT0iOSIgeD0iNCIvPjxyZWN0IGZpbGw9IiM1NDgxOTMiIGhlaWdodD0iMSIgd2lkdGg9IjEiIHk9IjEwIiB4PSI0Ii8+PHJlY3QgZmlsbD0iIzZmYWFjMiIgaGVpZ2h0PSIxIiB3aWR0aD0iMSIgeT0iNyIgeD0iNSIvPjxyZWN0IGZpbGw9IiM2ZmFhYzIiIGhlaWdodD0iMSIgd2lkdGg9IjEiIHk9IjgiIHg9IjUiLz48cmVjdCBmaWxsPSIjNjA5M2E4IiBoZWlnaHQ9IjEiIHdpZHRoPSIxIiB5PSI5IiB4PSI1Ii8+PHJlY3QgZmlsbD0iIzU0ODE5MyIgaGVpZ2h0PSIxIiB3aWR0aD0iMSIgeT0iMTAiIHg9IjUiLz48cmVjdCBmaWxsPSIjNmZhYWMyIiBoZWlnaHQ9IjEiIHdpZHRoPSIxIiB5PSI3IiB4PSI2Ii8+PHJlY3QgZmlsbD0iIzZmYWFjMiIgaGVpZ2h0PSIxIiB3aWR0aD0iMSIgeT0iOCIgeD0iNiIvPjxyZWN0IGZpbGw9IiM3M2IxYzkiIGhlaWdodD0iMSIgd2lkdGg9IjEiIHk9IjkiIHg9IjYiLz48cmVjdCBmaWxsPSIjYzZlYWY1IiBoZWlnaHQ9IjEiIHdpZHRoPSIxIiB5PSIxMCIgeD0iNiIvPjxyZWN0IGZpbGw9IiM2ZmFhYzIiIGhlaWdodD0iMSIgd2lkdGg9IjEiIHk9IjciIHg9IjciLz48cmVjdCBmaWxsPSIjNmZhYWMyIiBoZWlnaHQ9IjEiIHdpZHRoPSIxIiB5PSI4IiB4PSI3Ii8+PHJlY3QgZmlsbD0iI2M2ZWFmNSIgaGVpZ2h0PSIxIiB3aWR0aD0iMSIgeT0iOSIgeD0iNyIvPjxyZWN0IGZpbGw9IiNjNmVhZjUiIGhlaWdodD0iMSIgd2lkdGg9IjEiIHk9IjEwIiB4PSI3Ii8+PHJlY3QgZmlsbD0iIzg2YTI1ZiIgaGVpZ2h0PSIxIiB3aWR0aD0iMSIgeT0iMTEiIHg9IjciLz48cmVjdCBmaWxsPSIjOTJiMTY3IiBoZWlnaHQ9IjEiIHdpZHRoPSIxIiB5PSIxMiIgeD0iNyIvPjxyZWN0IGZpbGw9IiM5ZGJlNmYiIGhlaWdodD0iMSIgd2lkdGg9IjEiIHk9IjEzIiB4PSI3Ii8+PHJlY3QgZmlsbD0iIzkyYjE2NyIgaGVpZ2h0PSIxIiB3aWR0aD0iMSIgeT0iMTQiIHg9IjciLz48cmVjdCBmaWxsPSIjOWRiZTZmIiBoZWlnaHQ9IjEiIHdpZHRoPSIxIiB5PSIxNSIgeD0iNyIvPjxyZWN0IGZpbGw9IiM2ZmFhYzIiIGhlaWdodD0iMSIgd2lkdGg9IjEiIHk9IjciIHg9IjgiLz48cmVjdCBmaWxsPSIjNmZhYWMyIiBoZWlnaHQ9IjEiIHdpZHRoPSIxIiB5PSI4IiB4PSI4Ii8+PHJlY3QgZmlsbD0iIzY2OWNiMiIgaGVpZ2h0PSIxIiB3aWR0aD0iMSIgeT0iOSIgeD0iOCIvPjxyZWN0IGZpbGw9IiM1ZTkxYTUiIGhlaWdodD0iMSIgd2lkdGg9IjEiIHk9IjEwIiB4PSI4Ii8+PHJlY3QgZmlsbD0iIzg2YTI1ZiIgaGVpZ2h0PSIxIiB3aWR0aD0iMSIgeT0iMTEiIHg9IjgiLz48cmVjdCBmaWxsPSIjODZhMjVmIiBoZWlnaHQ9IjEiIHdpZHRoPSIxIiB5PSIxMiIgeD0iOCIvPjxyZWN0IGZpbGw9IiM5MmIxNjciIGhlaWdodD0iMSIgd2lkdGg9IjEiIHk9IjEzIiB4PSI4Ii8+PHJlY3QgZmlsbD0iIzlkYmU2ZiIgaGVpZ2h0PSIxIiB3aWR0aD0iMSIgeT0iMTQiIHg9IjgiLz48cmVjdCBmaWxsPSIjOTJiMTY3IiBoZWlnaHQ9IjEiIHdpZHRoPSIxIiB5PSIxNSIgeD0iOCIvPjxyZWN0IGZpbGw9IiNjYWVlZjkiIGhlaWdodD0iMSIgd2lkdGg9IjEiIHk9IjciIHg9IjkiLz48cmVjdCBmaWxsPSIjY2FlZWY5IiBoZWlnaHQ9IjEiIHdpZHRoPSIxIiB5PSI4IiB4PSI5Ii8+PHJlY3QgZmlsbD0iIzYwOTNhOCIgaGVpZ2h0PSIxIiB3aWR0aD0iMSIgeT0iOSIgeD0iOSIvPjxyZWN0IGZpbGw9IiM1ZTkxYTUiIGhlaWdodD0iMSIgd2lkdGg9IjEiIHk9IjEwIiB4PSI5Ii8+PHJlY3QgZmlsbD0iIzhhZDRmMSIgaGVpZ2h0PSIxIiB3aWR0aD0iMSIgeT0iNyIgeD0iMTAiLz48cmVjdCBmaWxsPSIjY2FlZWY5IiBoZWlnaHQ9IjEiIHdpZHRoPSIxIiB5PSI4IiB4PSIxMCIvPjxyZWN0IGZpbGw9IiM2MDkzYTgiIGhlaWdodD0iMSIgd2lkdGg9IjEiIHk9IjkiIHg9IjEwIi8+PHJlY3QgZmlsbD0iIzU0ODE5MyIgaGVpZ2h0PSIxIiB3aWR0aD0iMSIgeT0iMTAiIHg9IjEwIi8+PHJlY3QgZmlsbD0iIzZmYWFjMiIgaGVpZ2h0PSIxIiB3aWR0aD0iMSIgeT0iNyIgeD0iMTEiLz48cmVjdCBmaWxsPSIjNjY5Y2IyIiBoZWlnaHQ9IjEiIHdpZHRoPSIxIiB5PSI4IiB4PSIxMSIvPjxyZWN0IGZpbGw9IiM2MDkzYTgiIGhlaWdodD0iMSIgd2lkdGg9IjEiIHk9IjkiIHg9IjExIi8+PHJlY3QgZmlsbD0iIzU0ODE5MyIgaGVpZ2h0PSIxIiB3aWR0aD0iMSIgeT0iMTAiIHg9IjExIi8+PHJlY3QgZmlsbD0iIzY2OWNiMiIgaGVpZ2h0PSIxIiB3aWR0aD0iMSIgeT0iNyIgeD0iMTIiLz48cmVjdCBmaWxsPSIjNjA5M2E4IiBoZWlnaHQ9IjEiIHdpZHRoPSIxIiB5PSI4IiB4PSIxMiIvPjxyZWN0IGZpbGw9IiM1NDgxOTMiIGhlaWdodD0iMSIgd2lkdGg9IjEiIHk9IjkiIHg9IjEyIi8+PHJlY3QgZmlsbD0iIzU0ODE5MyIgaGVpZ2h0PSIxIiB3aWR0aD0iMSIgeT0iMTAiIHg9IjEyIi8+PC9zdmc+;spacing=0;labelPosition=center;align=center;" parent="1" vertex="1">
          <mxGeometry x="380" y="600" width="80" height="80" as="geometry" />
        </mxCell>
        <mxCell id="wDrT6_fZVfPxwR5qmV3N-2" value="" style="shape=image;verticalLabelPosition=bottom;labelBackgroundColor=default;verticalAlign=top;aspect=fixed;imageAspect=0;image=data:image/svg+xml,PHN2ZyB4bWxucz0iaHR0cDovL3d3dy53My5vcmcvMjAwMC9zdmciIGhlaWdodD0iMTYiIHdpZHRoPSIxNiIgdmlld0JveD0iMCAwIDE2IDE2Ij48cmVjdCBmaWxsPSIjYzFiZmJhIiBoZWlnaHQ9IjEiIHdpZHRoPSIxIiB5PSI3IiB4PSIzIi8+PHJlY3QgZmlsbD0iI2I2YjRhZiIgaGVpZ2h0PSIxIiB3aWR0aD0iMSIgeT0iOCIgeD0iMyIvPjxyZWN0IGZpbGw9IiM5ZjlkOTkiIGhlaWdodD0iMSIgd2lkdGg9IjEiIHk9IjkiIHg9IjMiLz48cmVjdCBmaWxsPSIjOWY5ZDk5IiBoZWlnaHQ9IjEiIHdpZHRoPSIxIiB5PSIxMCIgeD0iMyIvPjxyZWN0IGZpbGw9IiNjYWM1YjEiIGhlaWdodD0iMSIgd2lkdGg9IjEiIHk9IjciIHg9IjQiLz48cmVjdCBmaWxsPSIjYzFiZmJhIiBoZWlnaHQ9IjEiIHdpZHRoPSIxIiB5PSI4IiB4PSI0Ii8+PHJlY3QgZmlsbD0iI2I2YjRhZiIgaGVpZ2h0PSIxIiB3aWR0aD0iMSIgeT0iOSIgeD0iNCIvPjxyZWN0IGZpbGw9IiM5ZjlkOTkiIGhlaWdodD0iMSIgd2lkdGg9IjEiIHk9IjEwIiB4PSI0Ii8+PHJlY3QgZmlsbD0iI2QyZDBjYSIgaGVpZ2h0PSIxIiB3aWR0aD0iMSIgeT0iNyIgeD0iNSIvPjxyZWN0IGZpbGw9IiNkMmQwY2EiIGhlaWdodD0iMSIgd2lkdGg9IjEiIHk9IjgiIHg9IjUiLz48cmVjdCBmaWxsPSIjYjZiNGFmIiBoZWlnaHQ9IjEiIHdpZHRoPSIxIiB5PSI5IiB4PSI1Ii8+PHJlY3QgZmlsbD0iIzlmOWQ5OSIgaGVpZ2h0PSIxIiB3aWR0aD0iMSIgeT0iMTAiIHg9IjUiLz48cmVjdCBmaWxsPSIjZDJkMGNhIiBoZWlnaHQ9IjEiIHdpZHRoPSIxIiB5PSI3IiB4PSI2Ii8+PHJlY3QgZmlsbD0iI2QyZDBjYSIgaGVpZ2h0PSIxIiB3aWR0aD0iMSIgeT0iOCIgeD0iNiIvPjxyZWN0IGZpbGw9IiNjYWM1YjEiIGhlaWdodD0iMSIgd2lkdGg9IjEiIHk9IjkiIHg9IjYiLz48cmVjdCBmaWxsPSIjZWZlZmVmIiBoZWlnaHQ9IjEiIHdpZHRoPSIxIiB5PSIxMCIgeD0iNiIvPjxyZWN0IGZpbGw9IiNkMmQwY2EiIGhlaWdodD0iMSIgd2lkdGg9IjEiIHk9IjciIHg9IjciLz48cmVjdCBmaWxsPSIjZDJkMGNhIiBoZWlnaHQ9IjEiIHdpZHRoPSIxIiB5PSI4IiB4PSI3Ii8+PHJlY3QgZmlsbD0iI2VmZWZlZiIgaGVpZ2h0PSIxIiB3aWR0aD0iMSIgeT0iOSIgeD0iNyIvPjxyZWN0IGZpbGw9IiNlZmVmZWYiIGhlaWdodD0iMSIgd2lkdGg9IjEiIHk9IjEwIiB4PSI3Ii8+PHJlY3QgZmlsbD0iI2E4YTM5NiIgaGVpZ2h0PSIxIiB3aWR0aD0iMSIgeT0iMTEiIHg9IjciLz48cmVjdCBmaWxsPSIjYjdiMWE0IiBoZWlnaHQ9IjEiIHdpZHRoPSIxIiB5PSIxMiIgeD0iNyIvPjxyZWN0IGZpbGw9IiNjNGJmYjAiIGhlaWdodD0iMSIgd2lkdGg9IjEiIHk9IjEzIiB4PSI3Ii8+PHJlY3QgZmlsbD0iI2I3YjFhNCIgaGVpZ2h0PSIxIiB3aWR0aD0iMSIgeT0iMTQiIHg9IjciLz48cmVjdCBmaWxsPSIjYzRiZmIwIiBoZWlnaHQ9IjEiIHdpZHRoPSIxIiB5PSIxNSIgeD0iNyIvPjxyZWN0IGZpbGw9IiNkMmQwY2EiIGhlaWdodD0iMSIgd2lkdGg9IjEiIHk9IjciIHg9IjgiLz48cmVjdCBmaWxsPSIjZDJkMGNhIiBoZWlnaHQ9IjEiIHdpZHRoPSIxIiB5PSI4IiB4PSI4Ii8+PHJlY3QgZmlsbD0iI2MxYmZiYSIgaGVpZ2h0PSIxIiB3aWR0aD0iMSIgeT0iOSIgeD0iOCIvPjxyZWN0IGZpbGw9IiNiM2IxYWMiIGhlaWdodD0iMSIgd2lkdGg9IjEiIHk9IjEwIiB4PSI4Ii8+PHJlY3QgZmlsbD0iI2E4YTM5NiIgaGVpZ2h0PSIxIiB3aWR0aD0iMSIgeT0iMTEiIHg9IjgiLz48cmVjdCBmaWxsPSIjYThhMzk2IiBoZWlnaHQ9IjEiIHdpZHRoPSIxIiB5PSIxMiIgeD0iOCIvPjxyZWN0IGZpbGw9IiNiN2IxYTQiIGhlaWdodD0iMSIgd2lkdGg9IjEiIHk9IjEzIiB4PSI4Ii8+PHJlY3QgZmlsbD0iI2M0YmZiMCIgaGVpZ2h0PSIxIiB3aWR0aD0iMSIgeT0iMTQiIHg9IjgiLz48cmVjdCBmaWxsPSIjYjdiMWE0IiBoZWlnaHQ9IjEiIHdpZHRoPSIxIiB5PSIxNSIgeD0iOCIvPjxyZWN0IGZpbGw9IiNmM2YzZjMiIGhlaWdodD0iMSIgd2lkdGg9IjEiIHk9IjciIHg9IjkiLz48cmVjdCBmaWxsPSIjZjNmM2YzIiBoZWlnaHQ9IjEiIHdpZHRoPSIxIiB5PSI4IiB4PSI5Ii8+PHJlY3QgZmlsbD0iI2I2YjRhZiIgaGVpZ2h0PSIxIiB3aWR0aD0iMSIgeT0iOSIgeD0iOSIvPjxyZWN0IGZpbGw9IiNiM2IxYWMiIGhlaWdodD0iMSIgd2lkdGg9IjEiIHk9IjEwIiB4PSI5Ii8+PHJlY3QgZmlsbD0iI2YzZWRkNSIgaGVpZ2h0PSIxIiB3aWR0aD0iMSIgeT0iNyIgeD0iMTAiLz48cmVjdCBmaWxsPSIjZjNmM2YzIiBoZWlnaHQ9IjEiIHdpZHRoPSIxIiB5PSI4IiB4PSIxMCIvPjxyZWN0IGZpbGw9IiNiNmI0YWYiIGhlaWdodD0iMSIgd2lkdGg9IjEiIHk9IjkiIHg9IjEwIi8+PHJlY3QgZmlsbD0iIzlmOWQ5OSIgaGVpZ2h0PSIxIiB3aWR0aD0iMSIgeT0iMTAiIHg9IjEwIi8+PHJlY3QgZmlsbD0iI2QyZDBjYSIgaGVpZ2h0PSIxIiB3aWR0aD0iMSIgeT0iNyIgeD0iMTEiLz48cmVjdCBmaWxsPSIjYzFiZmJhIiBoZWlnaHQ9IjEiIHdpZHRoPSIxIiB5PSI4IiB4PSIxMSIvPjxyZWN0IGZpbGw9IiNiNmI0YWYiIGhlaWdodD0iMSIgd2lkdGg9IjEiIHk9IjkiIHg9IjExIi8+PHJlY3QgZmlsbD0iIzlmOWQ5OSIgaGVpZ2h0PSIxIiB3aWR0aD0iMSIgeT0iMTAiIHg9IjExIi8+PHJlY3QgZmlsbD0iI2MxYmZiYSIgaGVpZ2h0PSIxIiB3aWR0aD0iMSIgeT0iNyIgeD0iMTIiLz48cmVjdCBmaWxsPSIjYjZiNGFmIiBoZWlnaHQ9IjEiIHdpZHRoPSIxIiB5PSI4IiB4PSIxMiIvPjxyZWN0IGZpbGw9IiM5ZjlkOTkiIGhlaWdodD0iMSIgd2lkdGg9IjEiIHk9IjkiIHg9IjEyIi8+PHJlY3QgZmlsbD0iIzlmOWQ5OSIgaGVpZ2h0PSIxIiB3aWR0aD0iMSIgeT0iMTAiIHg9IjEyIi8+PC9zdmc+;" parent="1" vertex="1">
          <mxGeometry x="500" y="360" width="80" height="80" as="geometry" />
        </mxCell>
        <mxCell id="wDrT6_fZVfPxwR5qmV3N-3" value="Materials&lt;br&gt;branch" style="rounded=1;whiteSpace=wrap;html=1;fillColor=#fad7ac;strokeColor=#b46504;" parent="1" vertex="1">
          <mxGeometry x="750" y="960" width="60" height="40" as="geometry" />
        </mxCell>
        <mxCell id="wDrT6_fZVfPxwR5qmV3N-4" value="Polyporus&#xa;ligneus" style="shape=image;verticalLabelPosition=bottom;labelBackgroundColor=default;verticalAlign=top;aspect=fixed;imageAspect=0;image=data:image/svg+xml,PHN2ZyB4bWxucz0iaHR0cDovL3d3dy53My5vcmcvMjAwMC9zdmciIGhlaWdodD0iMTYiIHdpZHRoPSIxNiIgdmlld0JveD0iMCAwIDE2IDE2Ij48cmVjdCBmaWxsPSIjNmE0ZDM4IiBoZWlnaHQ9IjEiIHdpZHRoPSIxIiB5PSI3IiB4PSIzIi8+PHJlY3QgZmlsbD0iIzY0NDgzNSIgaGVpZ2h0PSIxIiB3aWR0aD0iMSIgeT0iOCIgeD0iMyIvPjxyZWN0IGZpbGw9IiM1NzNmMmUiIGhlaWdodD0iMSIgd2lkdGg9IjEiIHk9IjkiIHg9IjMiLz48cmVjdCBmaWxsPSIjNTczZjJlIiBoZWlnaHQ9IjEiIHdpZHRoPSIxIiB5PSIxMCIgeD0iMyIvPjxyZWN0IGZpbGw9IiM0MTMwMjUiIGhlaWdodD0iMSIgd2lkdGg9IjEiIHk9IjciIHg9IjQiLz48cmVjdCBmaWxsPSIjNmE0ZDM4IiBoZWlnaHQ9IjEiIHdpZHRoPSIxIiB5PSI4IiB4PSI0Ii8+PHJlY3QgZmlsbD0iIzY0NDgzNSIgaGVpZ2h0PSIxIiB3aWR0aD0iMSIgeT0iOSIgeD0iNCIvPjxyZWN0IGZpbGw9IiM1NzNmMmUiIGhlaWdodD0iMSIgd2lkdGg9IjEiIHk9IjEwIiB4PSI0Ii8+PHJlY3QgZmlsbD0iIzc0NTQzZCIgaGVpZ2h0PSIxIiB3aWR0aD0iMSIgeT0iNyIgeD0iNSIvPjxyZWN0IGZpbGw9IiM3NDU0M2QiIGhlaWdodD0iMSIgd2lkdGg9IjEiIHk9IjgiIHg9IjUiLz48cmVjdCBmaWxsPSIjNjQ0ODM1IiBoZWlnaHQ9IjEiIHdpZHRoPSIxIiB5PSI5IiB4PSI1Ii8+PHJlY3QgZmlsbD0iIzU3M2YyZSIgaGVpZ2h0PSIxIiB3aWR0aD0iMSIgeT0iMTAiIHg9IjUiLz48cmVjdCBmaWxsPSIjNzQ1NDNkIiBoZWlnaHQ9IjEiIHdpZHRoPSIxIiB5PSI3IiB4PSI2Ii8+PHJlY3QgZmlsbD0iIzc0NTQzZCIgaGVpZ2h0PSIxIiB3aWR0aD0iMSIgeT0iOCIgeD0iNiIvPjxyZWN0IGZpbGw9IiM0MTMwMjUiIGhlaWdodD0iMSIgd2lkdGg9IjEiIHk9IjkiIHg9IjYiLz48cmVjdCBmaWxsPSIjYjA4YzZjIiBoZWlnaHQ9IjEiIHdpZHRoPSIxIiB5PSIxMCIgeD0iNiIvPjxyZWN0IGZpbGw9IiM3NDU0M2QiIGhlaWdodD0iMSIgd2lkdGg9IjEiIHk9IjciIHg9IjciLz48cmVjdCBmaWxsPSIjNzQ1NDNkIiBoZWlnaHQ9IjEiIHdpZHRoPSIxIiB5PSI4IiB4PSI3Ii8+PHJlY3QgZmlsbD0iI2IwOGM2YyIgaGVpZ2h0PSIxIiB3aWR0aD0iMSIgeT0iOSIgeD0iNyIvPjxyZWN0IGZpbGw9IiNiMDhjNmMiIGhlaWdodD0iMSIgd2lkdGg9IjEiIHk9IjEwIiB4PSI3Ii8+PHJlY3QgZmlsbD0iIzdkNmY1MSIgaGVpZ2h0PSIxIiB3aWR0aD0iMSIgeT0iMTEiIHg9IjciLz48cmVjdCBmaWxsPSIjODg3OTU4IiBoZWlnaHQ9IjEiIHdpZHRoPSIxIiB5PSIxMiIgeD0iNyIvPjxyZWN0IGZpbGw9IiM5MjgyNWYiIGhlaWdodD0iMSIgd2lkdGg9IjEiIHk9IjEzIiB4PSI3Ii8+PHJlY3QgZmlsbD0iIzg4Nzk1OCIgaGVpZ2h0PSIxIiB3aWR0aD0iMSIgeT0iMTQiIHg9IjciLz48cmVjdCBmaWxsPSIjOTI4MjVmIiBoZWlnaHQ9IjEiIHdpZHRoPSIxIiB5PSIxNSIgeD0iNyIvPjxyZWN0IGZpbGw9IiM3NDU0M2QiIGhlaWdodD0iMSIgd2lkdGg9IjEiIHk9IjciIHg9IjgiLz48cmVjdCBmaWxsPSIjNzQ1NDNkIiBoZWlnaHQ9IjEiIHdpZHRoPSIxIiB5PSI4IiB4PSI4Ii8+PHJlY3QgZmlsbD0iIzZhNGQzOCIgaGVpZ2h0PSIxIiB3aWR0aD0iMSIgeT0iOSIgeD0iOCIvPjxyZWN0IGZpbGw9IiM2MjQ3MzQiIGhlaWdodD0iMSIgd2lkdGg9IjEiIHk9IjEwIiB4PSI4Ii8+PHJlY3QgZmlsbD0iIzdkNmY1MSIgaGVpZ2h0PSIxIiB3aWR0aD0iMSIgeT0iMTEiIHg9IjgiLz48cmVjdCBmaWxsPSIjN2Q2ZjUxIiBoZWlnaHQ9IjEiIHdpZHRoPSIxIiB5PSIxMiIgeD0iOCIvPjxyZWN0IGZpbGw9IiM4ODc5NTgiIGhlaWdodD0iMSIgd2lkdGg9IjEiIHk9IjEzIiB4PSI4Ii8+PHJlY3QgZmlsbD0iIzkyODI1ZiIgaGVpZ2h0PSIxIiB3aWR0aD0iMSIgeT0iMTQiIHg9IjgiLz48cmVjdCBmaWxsPSIjODg3OTU4IiBoZWlnaHQ9IjEiIHdpZHRoPSIxIiB5PSIxNSIgeD0iOCIvPjxyZWN0IGZpbGw9IiNiMzhmNmUiIGhlaWdodD0iMSIgd2lkdGg9IjEiIHk9IjciIHg9IjkiLz48cmVjdCBmaWxsPSIjYjM4ZjZlIiBoZWlnaHQ9IjEiIHdpZHRoPSIxIiB5PSI4IiB4PSI5Ii8+PHJlY3QgZmlsbD0iIzY0NDgzNSIgaGVpZ2h0PSIxIiB3aWR0aD0iMSIgeT0iOSIgeD0iOSIvPjxyZWN0IGZpbGw9IiM2MjQ3MzQiIGhlaWdodD0iMSIgd2lkdGg9IjEiIHk9IjEwIiB4PSI5Ii8+PHJlY3QgZmlsbD0iIzRmM2EyZCIgaGVpZ2h0PSIxIiB3aWR0aD0iMSIgeT0iNyIgeD0iMTAiLz48cmVjdCBmaWxsPSIjYjM4ZjZlIiBoZWlnaHQ9IjEiIHdpZHRoPSIxIiB5PSI4IiB4PSIxMCIvPjxyZWN0IGZpbGw9IiM2NDQ4MzUiIGhlaWdodD0iMSIgd2lkdGg9IjEiIHk9IjkiIHg9IjEwIi8+PHJlY3QgZmlsbD0iIzU3M2YyZSIgaGVpZ2h0PSIxIiB3aWR0aD0iMSIgeT0iMTAiIHg9IjEwIi8+PHJlY3QgZmlsbD0iIzc0NTQzZCIgaGVpZ2h0PSIxIiB3aWR0aD0iMSIgeT0iNyIgeD0iMTEiLz48cmVjdCBmaWxsPSIjNmE0ZDM4IiBoZWlnaHQ9IjEiIHdpZHRoPSIxIiB5PSI4IiB4PSIxMSIvPjxyZWN0IGZpbGw9IiM2NDQ4MzUiIGhlaWdodD0iMSIgd2lkdGg9IjEiIHk9IjkiIHg9IjExIi8+PHJlY3QgZmlsbD0iIzU3M2YyZSIgaGVpZ2h0PSIxIiB3aWR0aD0iMSIgeT0iMTAiIHg9IjExIi8+PHJlY3QgZmlsbD0iIzZhNGQzOCIgaGVpZ2h0PSIxIiB3aWR0aD0iMSIgeT0iNyIgeD0iMTIiLz48cmVjdCBmaWxsPSIjNjQ0ODM1IiBoZWlnaHQ9IjEiIHdpZHRoPSIxIiB5PSI4IiB4PSIxMiIvPjxyZWN0IGZpbGw9IiM1NzNmMmUiIGhlaWdodD0iMSIgd2lkdGg9IjEiIHk9IjkiIHg9IjEyIi8+PHJlY3QgZmlsbD0iIzU3M2YyZSIgaGVpZ2h0PSIxIiB3aWR0aD0iMSIgeT0iMTAiIHg9IjEyIi8+PC9zdmc+;" parent="1" vertex="1">
          <mxGeometry x="740" y="360" width="80" height="80" as="geometry" />
        </mxCell>
        <mxCell id="B_r-YeXsO8ind-xRyBNB-1" value="Ovulus&#xa;violaceus" style="shape=image;verticalLabelPosition=bottom;labelBackgroundColor=default;verticalAlign=top;aspect=fixed;imageAspect=0;image=data:image/svg+xml,PHN2ZyB4bWxucz0iaHR0cDovL3d3dy53My5vcmcvMjAwMC9zdmciIGhlaWdodD0iMTYiIHdpZHRoPSIxNiIgdmlld0JveD0iMCAwIDE2IDE2Ij48cmVjdCBmaWxsPSIjNGIwOTFlIiBoZWlnaHQ9IjEiIHdpZHRoPSIxIiB5PSI4IiB4PSIzIi8+PHJlY3QgZmlsbD0iIzQzMDgxYiIgaGVpZ2h0PSIxIiB3aWR0aD0iMSIgeT0iOSIgeD0iMyIvPjxyZWN0IGZpbGw9IiM2NzBjMjkiIGhlaWdodD0iMSIgd2lkdGg9IjEiIHk9IjgiIHg9IjQiLz48cmVjdCBmaWxsPSIjNGIwOTFlIiBoZWlnaHQ9IjEiIHdpZHRoPSIxIiB5PSI5IiB4PSI0Ii8+PHJlY3QgZmlsbD0iIzQzMDgxYiIgaGVpZ2h0PSIxIiB3aWR0aD0iMSIgeT0iMTAiIHg9IjQiLz48cmVjdCBmaWxsPSIjZTEwNWVmIiBoZWlnaHQ9IjEiIHdpZHRoPSIxIiB5PSI1IiB4PSI1Ii8+PHJlY3QgZmlsbD0iI2EyM2YxOSIgaGVpZ2h0PSIxIiB3aWR0aD0iMSIgeT0iNiIgeD0iNSIvPjxyZWN0IGZpbGw9IiM1MzBhMjEiIGhlaWdodD0iMSIgd2lkdGg9IjEiIHk9IjciIHg9IjUiLz48cmVjdCBmaWxsPSIjNzQwZTJlIiBoZWlnaHQ9IjEiIHdpZHRoPSIxIiB5PSI4IiB4PSI1Ii8+PHJlY3QgZmlsbD0iIzUzMGEyMSIgaGVpZ2h0PSIxIiB3aWR0aD0iMSIgeT0iOSIgeD0iNSIvPjxyZWN0IGZpbGw9IiM0YjA5MWUiIGhlaWdodD0iMSIgd2lkdGg9IjEiIHk9IjEwIiB4PSI1Ii8+PHJlY3QgZmlsbD0iIzc0MGUyZSIgaGVpZ2h0PSIxIiB3aWR0aD0iMSIgeT0iNCIgeD0iNiIvPjxyZWN0IGZpbGw9IiNhMjNmMTkiIGhlaWdodD0iMSIgd2lkdGg9IjEiIHk9IjUiIHg9IjYiLz48cmVjdCBmaWxsPSIjYTIzZjE5IiBoZWlnaHQ9IjEiIHdpZHRoPSIxIiB5PSI2IiB4PSI2Ii8+PHJlY3QgZmlsbD0iIzYwMGIyNiIgaGVpZ2h0PSIxIiB3aWR0aD0iMSIgeT0iNyIgeD0iNiIvPjxyZWN0IGZpbGw9IiM3NDBlMmUiIGhlaWdodD0iMSIgd2lkdGg9IjEiIHk9IjgiIHg9IjYiLz48cmVjdCBmaWxsPSIjNTMwYTIxIiBoZWlnaHQ9IjEiIHdpZHRoPSIxIiB5PSI5IiB4PSI2Ii8+PHJlY3QgZmlsbD0iIzRiMDkxZSIgaGVpZ2h0PSIxIiB3aWR0aD0iMSIgeT0iMTAiIHg9IjYiLz48cmVjdCBmaWxsPSIjNzQwZTJlIiBoZWlnaHQ9IjEiIHdpZHRoPSIxIiB5PSI0IiB4PSI3Ii8+PHJlY3QgZmlsbD0iIzc0MGUyZSIgaGVpZ2h0PSIxIiB3aWR0aD0iMSIgeT0iNSIgeD0iNyIvPjxyZWN0IGZpbGw9IiM3NDBlMmUiIGhlaWdodD0iMSIgd2lkdGg9IjEiIHk9IjYiIHg9IjciLz48cmVjdCBmaWxsPSIjNjAwYjI2IiBoZWlnaHQ9IjEiIHdpZHRoPSIxIiB5PSI3IiB4PSI3Ii8+PHJlY3QgZmlsbD0iIzY3MGMyOSIgaGVpZ2h0PSIxIiB3aWR0aD0iMSIgeT0iOCIgeD0iNyIvPjxyZWN0IGZpbGw9IiM1MzBhMjEiIGhlaWdodD0iMSIgd2lkdGg9IjEiIHk9IjkiIHg9IjciLz48cmVjdCBmaWxsPSIjNDMwODFiIiBoZWlnaHQ9IjEiIHdpZHRoPSIxIiB5PSIxMCIgeD0iNyIvPjxyZWN0IGZpbGw9IiMzYjE5NTciIGhlaWdodD0iMSIgd2lkdGg9IjEiIHk9IjExIiB4PSI3Ii8+PHJlY3QgZmlsbD0iIzRhMWY2ZSIgaGVpZ2h0PSIxIiB3aWR0aD0iMSIgeT0iMTIiIHg9IjciLz48cmVjdCBmaWxsPSIjNTEyMjc4IiBoZWlnaHQ9IjEiIHdpZHRoPSIxIiB5PSIxMyIgeD0iNyIvPjxyZWN0IGZpbGw9IiM1OTI1ODMiIGhlaWdodD0iMSIgd2lkdGg9IjEiIHk9IjE0IiB4PSI3Ii8+PHJlY3QgZmlsbD0iIzUxMjI3OCIgaGVpZ2h0PSIxIiB3aWR0aD0iMSIgeT0iMTUiIHg9IjciLz48cmVjdCBmaWxsPSIjNjcwYzI5IiBoZWlnaHQ9IjEiIHdpZHRoPSIxIiB5PSI0IiB4PSI4Ii8+PHJlY3QgZmlsbD0iIzY3MGMyOSIgaGVpZ2h0PSIxIiB3aWR0aD0iMSIgeT0iNSIgeD0iOCIvPjxyZWN0IGZpbGw9IiNhMjNmMTkiIGhlaWdodD0iMSIgd2lkdGg9IjEiIHk9IjYiIHg9IjgiLz48cmVjdCBmaWxsPSIjYTIzZjE5IiBoZWlnaHQ9IjEiIHdpZHRoPSIxIiB5PSI3IiB4PSI4Ii8+PHJlY3QgZmlsbD0iIzUzMGEyMSIgaGVpZ2h0PSIxIiB3aWR0aD0iMSIgeT0iOCIgeD0iOCIvPjxyZWN0IGZpbGw9IiM0YjA5MWUiIGhlaWdodD0iMSIgd2lkdGg9IjEiIHk9IjkiIHg9IjgiLz48cmVjdCBmaWxsPSIjNDMwODFiIiBoZWlnaHQ9IjEiIHdpZHRoPSIxIiB5PSIxMCIgeD0iOCIvPjxyZWN0IGZpbGw9IiM0MjFjNjIiIGhlaWdodD0iMSIgd2lkdGg9IjEiIHk9IjExIiB4PSI4Ii8+PHJlY3QgZmlsbD0iIzQ5MWY2YyIgaGVpZ2h0PSIxIiB3aWR0aD0iMSIgeT0iMTIiIHg9IjgiLz48cmVjdCBmaWxsPSIjNTkyNTgzIiBoZWlnaHQ9IjEiIHdpZHRoPSIxIiB5PSIxMyIgeD0iOCIvPjxyZWN0IGZpbGw9IiM1MTIyNzgiIGhlaWdodD0iMSIgd2lkdGg9IjEiIHk9IjE0IiB4PSI4Ii8+PHJlY3QgZmlsbD0iIzQ5MWY2YyIgaGVpZ2h0PSIxIiB3aWR0aD0iMSIgeT0iMTUiIHg9IjgiLz48cmVjdCBmaWxsPSIjZTEwNWVmIiBoZWlnaHQ9IjEiIHdpZHRoPSIxIiB5PSI0IiB4PSI5Ii8+PHJlY3QgZmlsbD0iIzY3MGMyOSIgaGVpZ2h0PSIxIiB3aWR0aD0iMSIgeT0iNSIgeD0iOSIvPjxyZWN0IGZpbGw9IiNlMTA1ZWYiIGhlaWdodD0iMSIgd2lkdGg9IjEiIHk9IjYiIHg9IjkiLz48cmVjdCBmaWxsPSIjYTIzZjE5IiBoZWlnaHQ9IjEiIHdpZHRoPSIxIiB5PSI3IiB4PSI5Ii8+PHJlY3QgZmlsbD0iIzRiMDkxZSIgaGVpZ2h0PSIxIiB3aWR0aD0iMSIgeT0iOCIgeD0iOSIvPjxyZWN0IGZpbGw9IiM0YjA5MWUiIGhlaWdodD0iMSIgd2lkdGg9IjEiIHk9IjkiIHg9IjkiLz48cmVjdCBmaWxsPSIjNGIwOTFlIiBoZWlnaHQ9IjEiIHdpZHRoPSIxIiB5PSIxMCIgeD0iOSIvPjxyZWN0IGZpbGw9IiM2MDBiMjYiIGhlaWdodD0iMSIgd2lkdGg9IjEiIHk9IjUiIHg9IjEwIi8+PHJlY3QgZmlsbD0iIzYwMGIyNiIgaGVpZ2h0PSIxIiB3aWR0aD0iMSIgeT0iNiIgeD0iMTAiLz48cmVjdCBmaWxsPSIjNTMwYTIxIiBoZWlnaHQ9IjEiIHdpZHRoPSIxIiB5PSI3IiB4PSIxMCIvPjxyZWN0IGZpbGw9IiM0YjA5MWUiIGhlaWdodD0iMSIgd2lkdGg9IjEiIHk9IjgiIHg9IjEwIi8+PHJlY3QgZmlsbD0iIzUzMGEyMSIgaGVpZ2h0PSIxIiB3aWR0aD0iMSIgeT0iOSIgeD0iMTAiLz48cmVjdCBmaWxsPSIjNGIwOTFlIiBoZWlnaHQ9IjEiIHdpZHRoPSIxIiB5PSIxMCIgeD0iMTAiLz48cmVjdCBmaWxsPSIjNzEwZDJkIiBoZWlnaHQ9IjEiIHdpZHRoPSIxIiB5PSI4IiB4PSIxMSIvPjxyZWN0IGZpbGw9IiM1MzBhMjEiIGhlaWdodD0iMSIgd2lkdGg9IjEiIHk9IjkiIHg9IjExIi8+PHJlY3QgZmlsbD0iIzQzMDgxYiIgaGVpZ2h0PSIxIiB3aWR0aD0iMSIgeT0iMTAiIHg9IjExIi8+PHJlY3QgZmlsbD0iIzUzMGEyMSIgaGVpZ2h0PSIxIiB3aWR0aD0iMSIgeT0iOCIgeD0iMTIiLz48cmVjdCBmaWxsPSIjNDMwODFiIiBoZWlnaHQ9IjEiIHdpZHRoPSIxIiB5PSI5IiB4PSIxMiIvPjwvc3ZnPg==;spacing=0;" parent="1" vertex="1">
          <mxGeometry x="200" y="480" width="80" height="80" as="geometry" />
        </mxCell>
        <mxCell id="6MsRrpP1h8E8F69nriwY-3" value="" style="endArrow=none;html=1;rounded=0;exitX=0.5;exitY=0;exitDx=0;exitDy=0;entryX=0;entryY=1;entryDx=0;entryDy=0;" parent="1" source="6MsRrpP1h8E8F69nriwY-2" target="tgHhMYTm9GiIJ5HooXK7-1" edge="1">
          <mxGeometry width="50" height="50" relative="1" as="geometry">
            <mxPoint x="1350" y="950" as="sourcePoint" />
            <mxPoint x="1410" y="940" as="targetPoint" />
          </mxGeometry>
        </mxCell>
        <mxCell id="6MsRrpP1h8E8F69nriwY-1" value="Bolbitius silex" style="shape=image;verticalLabelPosition=bottom;labelBackgroundColor=default;verticalAlign=top;aspect=fixed;imageAspect=0;image=data:image/svg+xml,PHN2ZyB4bWxucz0iaHR0cDovL3d3dy53My5vcmcvMjAwMC9zdmciIGhlaWdodD0iMTYiIHdpZHRoPSIxNiIgdmlld0JveD0iMCAwIDE2IDE2Ij48cmVjdCBmaWxsPSIjN2I3NDcxIiBoZWlnaHQ9IjEiIHdpZHRoPSIxIiB5PSI4IiB4PSIzIi8+PHJlY3QgZmlsbD0iIzZlNjc2NSIgaGVpZ2h0PSIxIiB3aWR0aD0iMSIgeT0iOSIgeD0iMyIvPjxyZWN0IGZpbGw9IiNhOTlmOWIiIGhlaWdodD0iMSIgd2lkdGg9IjEiIHk9IjgiIHg9IjQiLz48cmVjdCBmaWxsPSIjN2I3NDcxIiBoZWlnaHQ9IjEiIHdpZHRoPSIxIiB5PSI5IiB4PSI0Ii8+PHJlY3QgZmlsbD0iIzZlNjc2NSIgaGVpZ2h0PSIxIiB3aWR0aD0iMSIgeT0iMTAiIHg9IjQiLz48cmVjdCBmaWxsPSIjZmZmZmZmIiBoZWlnaHQ9IjEiIHdpZHRoPSIxIiB5PSI1IiB4PSI1Ii8+PHJlY3QgZmlsbD0iI2UwZGNkYSIgaGVpZ2h0PSIxIiB3aWR0aD0iMSIgeT0iNiIgeD0iNSIvPjxyZWN0IGZpbGw9IiM4ODgwN2QiIGhlaWdodD0iMSIgd2lkdGg9IjEiIHk9IjciIHg9IjUiLz48cmVjdCBmaWxsPSIjYmViM2FmIiBoZWlnaHQ9IjEiIHdpZHRoPSIxIiB5PSI4IiB4PSI1Ii8+PHJlY3QgZmlsbD0iIzg4ODA3ZCIgaGVpZ2h0PSIxIiB3aWR0aD0iMSIgeT0iOSIgeD0iNSIvPjxyZWN0IGZpbGw9IiM3Yjc0NzEiIGhlaWdodD0iMSIgd2lkdGg9IjEiIHk9IjEwIiB4PSI1Ii8+PHJlY3QgZmlsbD0iI2JlYjNhZiIgaGVpZ2h0PSIxIiB3aWR0aD0iMSIgeT0iNCIgeD0iNiIvPjxyZWN0IGZpbGw9IiNlMGRjZGEiIGhlaWdodD0iMSIgd2lkdGg9IjEiIHk9IjUiIHg9IjYiLz48cmVjdCBmaWxsPSIjZTBkY2RhIiBoZWlnaHQ9IjEiIHdpZHRoPSIxIiB5PSI2IiB4PSI2Ii8+PHJlY3QgZmlsbD0iIzlkOTQ5MCIgaGVpZ2h0PSIxIiB3aWR0aD0iMSIgeT0iNyIgeD0iNiIvPjxyZWN0IGZpbGw9IiNiZWIzYWYiIGhlaWdodD0iMSIgd2lkdGg9IjEiIHk9IjgiIHg9IjYiLz48cmVjdCBmaWxsPSIjODg4MDdkIiBoZWlnaHQ9IjEiIHdpZHRoPSIxIiB5PSI5IiB4PSI2Ii8+PHJlY3QgZmlsbD0iIzdiNzQ3MSIgaGVpZ2h0PSIxIiB3aWR0aD0iMSIgeT0iMTAiIHg9IjYiLz48cmVjdCBmaWxsPSIjYmViM2FmIiBoZWlnaHQ9IjEiIHdpZHRoPSIxIiB5PSI0IiB4PSI3Ii8+PHJlY3QgZmlsbD0iI2JlYjNhZiIgaGVpZ2h0PSIxIiB3aWR0aD0iMSIgeT0iNSIgeD0iNyIvPjxyZWN0IGZpbGw9IiNiZWIzYWYiIGhlaWdodD0iMSIgd2lkdGg9IjEiIHk9IjYiIHg9IjciLz48cmVjdCBmaWxsPSIjOWQ5NDkwIiBoZWlnaHQ9IjEiIHdpZHRoPSIxIiB5PSI3IiB4PSI3Ii8+PHJlY3QgZmlsbD0iI2E5OWY5YiIgaGVpZ2h0PSIxIiB3aWR0aD0iMSIgeT0iOCIgeD0iNyIvPjxyZWN0IGZpbGw9IiM4ODgwN2QiIGhlaWdodD0iMSIgd2lkdGg9IjEiIHk9IjkiIHg9IjciLz48cmVjdCBmaWxsPSIjNmU2NzY1IiBoZWlnaHQ9IjEiIHdpZHRoPSIxIiB5PSIxMCIgeD0iNyIvPjxyZWN0IGZpbGw9IiM0NTEzMGMiIGhlaWdodD0iMSIgd2lkdGg9IjEiIHk9IjExIiB4PSI3Ii8+PHJlY3QgZmlsbD0iIzU3MTgxMCIgaGVpZ2h0PSIxIiB3aWR0aD0iMSIgeT0iMTIiIHg9IjciLz48cmVjdCBmaWxsPSIjNWYxYTExIiBoZWlnaHQ9IjEiIHdpZHRoPSIxIiB5PSIxMyIgeD0iNyIvPjxyZWN0IGZpbGw9IiM2OTFkMTMiIGhlaWdodD0iMSIgd2lkdGg9IjEiIHk9IjE0IiB4PSI3Ii8+PHJlY3QgZmlsbD0iIzVmMWExMSIgaGVpZ2h0PSIxIiB3aWR0aD0iMSIgeT0iMTUiIHg9IjciLz48cmVjdCBmaWxsPSIjYTk5ZjliIiBoZWlnaHQ9IjEiIHdpZHRoPSIxIiB5PSI0IiB4PSI4Ii8+PHJlY3QgZmlsbD0iI2E5OWY5YiIgaGVpZ2h0PSIxIiB3aWR0aD0iMSIgeT0iNSIgeD0iOCIvPjxyZWN0IGZpbGw9IiNlMGRjZGEiIGhlaWdodD0iMSIgd2lkdGg9IjEiIHk9IjYiIHg9IjgiLz48cmVjdCBmaWxsPSIjZTBkY2RhIiBoZWlnaHQ9IjEiIHdpZHRoPSIxIiB5PSI3IiB4PSI4Ii8+PHJlY3QgZmlsbD0iIzg4ODA3ZCIgaGVpZ2h0PSIxIiB3aWR0aD0iMSIgeT0iOCIgeD0iOCIvPjxyZWN0IGZpbGw9IiM3Yjc0NzEiIGhlaWdodD0iMSIgd2lkdGg9IjEiIHk9IjkiIHg9IjgiLz48cmVjdCBmaWxsPSIjNmU2NzY1IiBoZWlnaHQ9IjEiIHdpZHRoPSIxIiB5PSIxMCIgeD0iOCIvPjxyZWN0IGZpbGw9IiM0ZTE1MGUiIGhlaWdodD0iMSIgd2lkdGg9IjEiIHk9IjExIiB4PSI4Ii8+PHJlY3QgZmlsbD0iIzU2MTgwZiIgaGVpZ2h0PSIxIiB3aWR0aD0iMSIgeT0iMTIiIHg9IjgiLz48cmVjdCBmaWxsPSIjNjkxZDEzIiBoZWlnaHQ9IjEiIHdpZHRoPSIxIiB5PSIxMyIgeD0iOCIvPjxyZWN0IGZpbGw9IiM1ZjFhMTEiIGhlaWdodD0iMSIgd2lkdGg9IjEiIHk9IjE0IiB4PSI4Ii8+PHJlY3QgZmlsbD0iIzU2MTgwZiIgaGVpZ2h0PSIxIiB3aWR0aD0iMSIgeT0iMTUiIHg9IjgiLz48cmVjdCBmaWxsPSIjZmZmZmZmIiBoZWlnaHQ9IjEiIHdpZHRoPSIxIiB5PSI0IiB4PSI5Ii8+PHJlY3QgZmlsbD0iI2E5OWY5YiIgaGVpZ2h0PSIxIiB3aWR0aD0iMSIgeT0iNSIgeD0iOSIvPjxyZWN0IGZpbGw9IiNmZmZmZmYiIGhlaWdodD0iMSIgd2lkdGg9IjEiIHk9IjYiIHg9IjkiLz48cmVjdCBmaWxsPSIjZTBkY2RhIiBoZWlnaHQ9IjEiIHdpZHRoPSIxIiB5PSI3IiB4PSI5Ii8+PHJlY3QgZmlsbD0iIzdiNzQ3MSIgaGVpZ2h0PSIxIiB3aWR0aD0iMSIgeT0iOCIgeD0iOSIvPjxyZWN0IGZpbGw9IiM3Yjc0NzEiIGhlaWdodD0iMSIgd2lkdGg9IjEiIHk9IjkiIHg9IjkiLz48cmVjdCBmaWxsPSIjN2I3NDcxIiBoZWlnaHQ9IjEiIHdpZHRoPSIxIiB5PSIxMCIgeD0iOSIvPjxyZWN0IGZpbGw9IiM5ZDk0OTAiIGhlaWdodD0iMSIgd2lkdGg9IjEiIHk9IjUiIHg9IjEwIi8+PHJlY3QgZmlsbD0iIzlkOTQ5MCIgaGVpZ2h0PSIxIiB3aWR0aD0iMSIgeT0iNiIgeD0iMTAiLz48cmVjdCBmaWxsPSIjODg4MDdkIiBoZWlnaHQ9IjEiIHdpZHRoPSIxIiB5PSI3IiB4PSIxMCIvPjxyZWN0IGZpbGw9IiM3Yjc0NzEiIGhlaWdodD0iMSIgd2lkdGg9IjEiIHk9IjgiIHg9IjEwIi8+PHJlY3QgZmlsbD0iIzg4ODA3ZCIgaGVpZ2h0PSIxIiB3aWR0aD0iMSIgeT0iOSIgeD0iMTAiLz48cmVjdCBmaWxsPSIjN2I3NDcxIiBoZWlnaHQ9IjEiIHdpZHRoPSIxIiB5PSIxMCIgeD0iMTAiLz48cmVjdCBmaWxsPSIjYmFhZmFiIiBoZWlnaHQ9IjEiIHdpZHRoPSIxIiB5PSI4IiB4PSIxMSIvPjxyZWN0IGZpbGw9IiM4ODgwN2QiIGhlaWdodD0iMSIgd2lkdGg9IjEiIHk9IjkiIHg9IjExIi8+PHJlY3QgZmlsbD0iIzZlNjc2NSIgaGVpZ2h0PSIxIiB3aWR0aD0iMSIgeT0iMTAiIHg9IjExIi8+PHJlY3QgZmlsbD0iIzg4ODA3ZCIgaGVpZ2h0PSIxIiB3aWR0aD0iMSIgeT0iOCIgeD0iMTIiLz48cmVjdCBmaWxsPSIjNmU2NzY1IiBoZWlnaHQ9IjEiIHdpZHRoPSIxIiB5PSI5IiB4PSIxMiIvPjwvc3ZnPg==;labelPosition=center;align=center;spacing=0;" parent="1" vertex="1">
          <mxGeometry x="1300" y="960" width="80" height="80" as="geometry" />
        </mxCell>
        <mxCell id="6MsRrpP1h8E8F69nriwY-4" value="AMETHYST&lt;div&gt;FUNGUS&lt;/div&gt;" style="ellipse;whiteSpace=wrap;html=1;fillColor=#f5f5f5;fontColor=#333333;strokeColor=#666666;" parent="1" vertex="1">
          <mxGeometry x="1240" y="840" width="80" height="80" as="geometry" />
        </mxCell>
        <mxCell id="6MsRrpP1h8E8F69nriwY-5" value="" style="endArrow=none;html=1;rounded=0;entryX=1;entryY=1;entryDx=0;entryDy=0;exitX=0.5;exitY=0;exitDx=0;exitDy=0;" parent="1" source="6MsRrpP1h8E8F69nriwY-2" target="6MsRrpP1h8E8F69nriwY-4" edge="1">
          <mxGeometry width="50" height="50" relative="1" as="geometry">
            <mxPoint x="1300" y="1000" as="sourcePoint" />
            <mxPoint x="1350" y="950" as="targetPoint" />
          </mxGeometry>
        </mxCell>
        <mxCell id="6rGijkrG-7dVek1cO-f6-1" value="" style="ellipse;whiteSpace=wrap;html=1;fillColor=#d5e8d4;strokeColor=#82b366;" parent="1" vertex="1">
          <mxGeometry x="1040" y="240" width="80" height="80" as="geometry" />
        </mxCell>
        <mxCell id="f1JMuyHoU1sW5qgA2hIf-1" value="Lactarius prolefens" style="shape=image;verticalLabelPosition=top;labelBackgroundColor=default;verticalAlign=bottom;aspect=fixed;imageAspect=0;image=data:image/svg+xml,PHN2ZyB4bWxucz0iaHR0cDovL3d3dy53My5vcmcvMjAwMC9zdmciIGhlaWdodD0iMTYiIHdpZHRoPSIxNiIgdmlld0JveD0iMCAwIDE2IDE2Ij48cmVjdCBmaWxsPSIjNmYyZDJlIiBoZWlnaHQ9IjEiIHdpZHRoPSIxIiB5PSI3IiB4PSIzIi8+PHJlY3QgZmlsbD0iIzY4MmEyYyIgaGVpZ2h0PSIxIiB3aWR0aD0iMSIgeT0iOCIgeD0iMyIvPjxyZWN0IGZpbGw9IiM1YjI1MjYiIGhlaWdodD0iMSIgd2lkdGg9IjEiIHk9IjkiIHg9IjMiLz48cmVjdCBmaWxsPSIjNWIyNTI2IiBoZWlnaHQ9IjEiIHdpZHRoPSIxIiB5PSIxMCIgeD0iMyIvPjxyZWN0IGZpbGw9IiNhZjc1NjMiIGhlaWdodD0iMSIgd2lkdGg9IjEiIHk9IjciIHg9IjQiLz48cmVjdCBmaWxsPSIjNmYyZDJlIiBoZWlnaHQ9IjEiIHdpZHRoPSIxIiB5PSI4IiB4PSI0Ii8+PHJlY3QgZmlsbD0iIzY4MmEyYyIgaGVpZ2h0PSIxIiB3aWR0aD0iMSIgeT0iOSIgeD0iNCIvPjxyZWN0IGZpbGw9IiM1YjI1MjYiIGhlaWdodD0iMSIgd2lkdGg9IjEiIHk9IjEwIiB4PSI0Ii8+PHJlY3QgZmlsbD0iIzc5MzEzMyIgaGVpZ2h0PSIxIiB3aWR0aD0iMSIgeT0iNyIgeD0iNSIvPjxyZWN0IGZpbGw9IiM3OTMxMzMiIGhlaWdodD0iMSIgd2lkdGg9IjEiIHk9IjgiIHg9IjUiLz48cmVjdCBmaWxsPSIjNjgyYTJjIiBoZWlnaHQ9IjEiIHdpZHRoPSIxIiB5PSI5IiB4PSI1Ii8+PHJlY3QgZmlsbD0iIzViMjUyNiIgaGVpZ2h0PSIxIiB3aWR0aD0iMSIgeT0iMTAiIHg9IjUiLz48cmVjdCBmaWxsPSIjNzkzMTMzIiBoZWlnaHQ9IjEiIHdpZHRoPSIxIiB5PSI3IiB4PSI2Ii8+PHJlY3QgZmlsbD0iIzc5MzEzMyIgaGVpZ2h0PSIxIiB3aWR0aD0iMSIgeT0iOCIgeD0iNiIvPjxyZWN0IGZpbGw9IiNhZjc1NjMiIGhlaWdodD0iMSIgd2lkdGg9IjEiIHk9IjkiIHg9IjYiLz48cmVjdCBmaWxsPSIjOTAzYjNkIiBoZWlnaHQ9IjEiIHdpZHRoPSIxIiB5PSIxMCIgeD0iNiIvPjxyZWN0IGZpbGw9IiM3OTMxMzMiIGhlaWdodD0iMSIgd2lkdGg9IjEiIHk9IjciIHg9IjciLz48cmVjdCBmaWxsPSIjNzkzMTMzIiBoZWlnaHQ9IjEiIHdpZHRoPSIxIiB5PSI4IiB4PSI3Ii8+PHJlY3QgZmlsbD0iIzkwM2IzZCIgaGVpZ2h0PSIxIiB3aWR0aD0iMSIgeT0iOSIgeD0iNyIvPjxyZWN0IGZpbGw9IiM5MDNiM2QiIGhlaWdodD0iMSIgd2lkdGg9IjEiIHk9IjEwIiB4PSI3Ii8+PHJlY3QgZmlsbD0iIzU2NDY0NyIgaGVpZ2h0PSIxIiB3aWR0aD0iMSIgeT0iMTEiIHg9IjciLz48cmVjdCBmaWxsPSIjNWU0YzRlIiBoZWlnaHQ9IjEiIHdpZHRoPSIxIiB5PSIxMiIgeD0iNyIvPjxyZWN0IGZpbGw9IiM2NTUyNTMiIGhlaWdodD0iMSIgd2lkdGg9IjEiIHk9IjEzIiB4PSI3Ii8+PHJlY3QgZmlsbD0iIzVlNGM0ZSIgaGVpZ2h0PSIxIiB3aWR0aD0iMSIgeT0iMTQiIHg9IjciLz48cmVjdCBmaWxsPSIjNjU1MjUzIiBoZWlnaHQ9IjEiIHdpZHRoPSIxIiB5PSIxNSIgeD0iNyIvPjxyZWN0IGZpbGw9IiM3OTMxMzMiIGhlaWdodD0iMSIgd2lkdGg9IjEiIHk9IjciIHg9IjgiLz48cmVjdCBmaWxsPSIjNzkzMTMzIiBoZWlnaHQ9IjEiIHdpZHRoPSIxIiB5PSI4IiB4PSI4Ii8+PHJlY3QgZmlsbD0iIzZmMmQyZSIgaGVpZ2h0PSIxIiB3aWR0aD0iMSIgeT0iOSIgeD0iOCIvPjxyZWN0IGZpbGw9IiM2NzJhMmIiIGhlaWdodD0iMSIgd2lkdGg9IjEiIHk9IjEwIiB4PSI4Ii8+PHJlY3QgZmlsbD0iIzU2NDY0NyIgaGVpZ2h0PSIxIiB3aWR0aD0iMSIgeT0iMTEiIHg9IjgiLz48cmVjdCBmaWxsPSIjNTY0NjQ3IiBoZWlnaHQ9IjEiIHdpZHRoPSIxIiB5PSIxMiIgeD0iOCIvPjxyZWN0IGZpbGw9IiM1ZTRjNGUiIGhlaWdodD0iMSIgd2lkdGg9IjEiIHk9IjEzIiB4PSI4Ii8+PHJlY3QgZmlsbD0iIzY1NTI1MyIgaGVpZ2h0PSIxIiB3aWR0aD0iMSIgeT0iMTQiIHg9IjgiLz48cmVjdCBmaWxsPSIjNWU0YzRlIiBoZWlnaHQ9IjEiIHdpZHRoPSIxIiB5PSIxNSIgeD0iOCIvPjxyZWN0IGZpbGw9IiM5MzNjM2UiIGhlaWdodD0iMSIgd2lkdGg9IjEiIHk9IjciIHg9IjkiLz48cmVjdCBmaWxsPSIjOTMzYzNlIiBoZWlnaHQ9IjEiIHdpZHRoPSIxIiB5PSI4IiB4PSI5Ii8+PHJlY3QgZmlsbD0iIzY4MmEyYyIgaGVpZ2h0PSIxIiB3aWR0aD0iMSIgeT0iOSIgeD0iOSIvPjxyZWN0IGZpbGw9IiM2NzJhMmIiIGhlaWdodD0iMSIgd2lkdGg9IjEiIHk9IjEwIiB4PSI5Ii8+PHJlY3QgZmlsbD0iI2QyOGQ3NyIgaGVpZ2h0PSIxIiB3aWR0aD0iMSIgeT0iNyIgeD0iMTAiLz48cmVjdCBmaWxsPSIjOTMzYzNlIiBoZWlnaHQ9IjEiIHdpZHRoPSIxIiB5PSI4IiB4PSIxMCIvPjxyZWN0IGZpbGw9IiM2ODJhMmMiIGhlaWdodD0iMSIgd2lkdGg9IjEiIHk9IjkiIHg9IjEwIi8+PHJlY3QgZmlsbD0iIzViMjUyNiIgaGVpZ2h0PSIxIiB3aWR0aD0iMSIgeT0iMTAiIHg9IjEwIi8+PHJlY3QgZmlsbD0iIzc5MzEzMyIgaGVpZ2h0PSIxIiB3aWR0aD0iMSIgeT0iNyIgeD0iMTEiLz48cmVjdCBmaWxsPSIjNmYyZDJlIiBoZWlnaHQ9IjEiIHdpZHRoPSIxIiB5PSI4IiB4PSIxMSIvPjxyZWN0IGZpbGw9IiM2ODJhMmMiIGhlaWdodD0iMSIgd2lkdGg9IjEiIHk9IjkiIHg9IjExIi8+PHJlY3QgZmlsbD0iIzViMjUyNiIgaGVpZ2h0PSIxIiB3aWR0aD0iMSIgeT0iMTAiIHg9IjExIi8+PHJlY3QgZmlsbD0iIzZmMmQyZSIgaGVpZ2h0PSIxIiB3aWR0aD0iMSIgeT0iNyIgeD0iMTIiLz48cmVjdCBmaWxsPSIjNjgyYTJjIiBoZWlnaHQ9IjEiIHdpZHRoPSIxIiB5PSI4IiB4PSIxMiIvPjxyZWN0IGZpbGw9IiM1YjI1MjYiIGhlaWdodD0iMSIgd2lkdGg9IjEiIHk9IjkiIHg9IjEyIi8+PHJlY3QgZmlsbD0iIzViMjUyNiIgaGVpZ2h0PSIxIiB3aWR0aD0iMSIgeT0iMTAiIHg9IjEyIi8+PC9zdmc+;spacing=0;labelPosition=center;align=center;" parent="1" vertex="1">
          <mxGeometry x="314" y="240" width="80" height="80" as="geometry" />
        </mxCell>
        <mxCell id="f1JMuyHoU1sW5qgA2hIf-5" value="" style="ellipse;whiteSpace=wrap;html=1;fillColor=#f5f5f5;fontColor=#333333;strokeColor=#666666;" parent="1" vertex="1">
          <mxGeometry x="1180" y="720" width="80" height="80" as="geometry" />
        </mxCell>
        <mxCell id="f1JMuyHoU1sW5qgA2hIf-6" value="" style="ellipse;whiteSpace=wrap;html=1;fillColor=#f5f5f5;fontColor=#333333;strokeColor=#666666;" parent="1" vertex="1">
          <mxGeometry x="1300" y="720" width="80" height="80" as="geometry" />
        </mxCell>
        <mxCell id="f1JMuyHoU1sW5qgA2hIf-3" value="Russula concitata" style="shape=image;verticalLabelPosition=top;labelBackgroundColor=default;verticalAlign=bottom;aspect=fixed;imageAspect=0;image=data:image/svg+xml,PHN2ZyB4bWxucz0iaHR0cDovL3d3dy53My5vcmcvMjAwMC9zdmciIGhlaWdodD0iMTYiIHdpZHRoPSIxNiIgdmlld0JveD0iMCAwIDE2IDE2Ij48cmVjdCBmaWxsPSIjMzgwNDAwIiBoZWlnaHQ9IjEiIHdpZHRoPSIxIiB5PSI4IiB4PSIzIi8+PHJlY3QgZmlsbD0iIzMyMDQwMCIgaGVpZ2h0PSIxIiB3aWR0aD0iMSIgeT0iOSIgeD0iMyIvPjxyZWN0IGZpbGw9IiM0ZTA2MDAiIGhlaWdodD0iMSIgd2lkdGg9IjEiIHk9IjgiIHg9IjQiLz48cmVjdCBmaWxsPSIjMzgwNDAwIiBoZWlnaHQ9IjEiIHdpZHRoPSIxIiB5PSI5IiB4PSI0Ii8+PHJlY3QgZmlsbD0iIzMyMDQwMCIgaGVpZ2h0PSIxIiB3aWR0aD0iMSIgeT0iMTAiIHg9IjQiLz48cmVjdCBmaWxsPSIjZGEwMDAwIiBoZWlnaHQ9IjEiIHdpZHRoPSIxIiB5PSI1IiB4PSI1Ii8+PHJlY3QgZmlsbD0iIzczMDAwMCIgaGVpZ2h0PSIxIiB3aWR0aD0iMSIgeT0iNiIgeD0iNSIvPjxyZWN0IGZpbGw9IiMzZTA1MDAiIGhlaWdodD0iMSIgd2lkdGg9IjEiIHk9IjciIHg9IjUiLz48cmVjdCBmaWxsPSIjNTcwNzAwIiBoZWlnaHQ9IjEiIHdpZHRoPSIxIiB5PSI4IiB4PSI1Ii8+PHJlY3QgZmlsbD0iIzNlMDUwMCIgaGVpZ2h0PSIxIiB3aWR0aD0iMSIgeT0iOSIgeD0iNSIvPjxyZWN0IGZpbGw9IiMzODA0MDAiIGhlaWdodD0iMSIgd2lkdGg9IjEiIHk9IjEwIiB4PSI1Ii8+PHJlY3QgZmlsbD0iIzU3MDcwMCIgaGVpZ2h0PSIxIiB3aWR0aD0iMSIgeT0iNCIgeD0iNiIvPjxyZWN0IGZpbGw9IiM3MzAwMDAiIGhlaWdodD0iMSIgd2lkdGg9IjEiIHk9IjUiIHg9IjYiLz48cmVjdCBmaWxsPSIjNzMwMDAwIiBoZWlnaHQ9IjEiIHdpZHRoPSIxIiB5PSI2IiB4PSI2Ii8+PHJlY3QgZmlsbD0iIzQ4MDYwMCIgaGVpZ2h0PSIxIiB3aWR0aD0iMSIgeT0iNyIgeD0iNiIvPjxyZWN0IGZpbGw9IiM1NzA3MDAiIGhlaWdodD0iMSIgd2lkdGg9IjEiIHk9IjgiIHg9IjYiLz48cmVjdCBmaWxsPSIjM2UwNTAwIiBoZWlnaHQ9IjEiIHdpZHRoPSIxIiB5PSI5IiB4PSI2Ii8+PHJlY3QgZmlsbD0iIzM4MDQwMCIgaGVpZ2h0PSIxIiB3aWR0aD0iMSIgeT0iMTAiIHg9IjYiLz48cmVjdCBmaWxsPSIjNTcwNzAwIiBoZWlnaHQ9IjEiIHdpZHRoPSIxIiB5PSI0IiB4PSI3Ii8+PHJlY3QgZmlsbD0iIzU3MDcwMCIgaGVpZ2h0PSIxIiB3aWR0aD0iMSIgeT0iNSIgeD0iNyIvPjxyZWN0IGZpbGw9IiM1NzA3MDAiIGhlaWdodD0iMSIgd2lkdGg9IjEiIHk9IjYiIHg9IjciLz48cmVjdCBmaWxsPSIjNDgwNjAwIiBoZWlnaHQ9IjEiIHdpZHRoPSIxIiB5PSI3IiB4PSI3Ii8+PHJlY3QgZmlsbD0iIzRlMDYwMCIgaGVpZ2h0PSIxIiB3aWR0aD0iMSIgeT0iOCIgeD0iNyIvPjxyZWN0IGZpbGw9IiMzZTA1MDAiIGhlaWdodD0iMSIgd2lkdGg9IjEiIHk9IjkiIHg9IjciLz48cmVjdCBmaWxsPSIjMzIwNDAwIiBoZWlnaHQ9IjEiIHdpZHRoPSIxIiB5PSIxMCIgeD0iNyIvPjxyZWN0IGZpbGw9IiM1OTU2NTMiIGhlaWdodD0iMSIgd2lkdGg9IjEiIHk9IjExIiB4PSI3Ii8+PHJlY3QgZmlsbD0iIzcwNmQ2OCIgaGVpZ2h0PSIxIiB3aWR0aD0iMSIgeT0iMTIiIHg9IjciLz48cmVjdCBmaWxsPSIjN2E3NzcxIiBoZWlnaHQ9IjEiIHdpZHRoPSIxIiB5PSIxMyIgeD0iNyIvPjxyZWN0IGZpbGw9IiM4NjgyN2QiIGhlaWdodD0iMSIgd2lkdGg9IjEiIHk9IjE0IiB4PSI3Ii8+PHJlY3QgZmlsbD0iIzdhNzc3MSIgaGVpZ2h0PSIxIiB3aWR0aD0iMSIgeT0iMTUiIHg9IjciLz48cmVjdCBmaWxsPSIjNGUwNjAwIiBoZWlnaHQ9IjEiIHdpZHRoPSIxIiB5PSI0IiB4PSI4Ii8+PHJlY3QgZmlsbD0iIzRlMDYwMCIgaGVpZ2h0PSIxIiB3aWR0aD0iMSIgeT0iNSIgeD0iOCIvPjxyZWN0IGZpbGw9IiM3MzAwMDAiIGhlaWdodD0iMSIgd2lkdGg9IjEiIHk9IjYiIHg9IjgiLz48cmVjdCBmaWxsPSIjNzMwMDAwIiBoZWlnaHQ9IjEiIHdpZHRoPSIxIiB5PSI3IiB4PSI4Ii8+PHJlY3QgZmlsbD0iIzNlMDUwMCIgaGVpZ2h0PSIxIiB3aWR0aD0iMSIgeT0iOCIgeD0iOCIvPjxyZWN0IGZpbGw9IiMzODA0MDAiIGhlaWdodD0iMSIgd2lkdGg9IjEiIHk9IjkiIHg9IjgiLz48cmVjdCBmaWxsPSIjMzIwNDAwIiBoZWlnaHQ9IjEiIHdpZHRoPSIxIiB5PSIxMCIgeD0iOCIvPjxyZWN0IGZpbGw9IiM2NDYxNWQiIGhlaWdodD0iMSIgd2lkdGg9IjEiIHk9IjExIiB4PSI4Ii8+PHJlY3QgZmlsbD0iIzZlNmI2NiIgaGVpZ2h0PSIxIiB3aWR0aD0iMSIgeT0iMTIiIHg9IjgiLz48cmVjdCBmaWxsPSIjODY4MjdkIiBoZWlnaHQ9IjEiIHdpZHRoPSIxIiB5PSIxMyIgeD0iOCIvPjxyZWN0IGZpbGw9IiM3YTc3NzEiIGhlaWdodD0iMSIgd2lkdGg9IjEiIHk9IjE0IiB4PSI4Ii8+PHJlY3QgZmlsbD0iIzZlNmI2NiIgaGVpZ2h0PSIxIiB3aWR0aD0iMSIgeT0iMTUiIHg9IjgiLz48cmVjdCBmaWxsPSIjZGEwMDAwIiBoZWlnaHQ9IjEiIHdpZHRoPSIxIiB5PSI0IiB4PSI5Ii8+PHJlY3QgZmlsbD0iIzRlMDYwMCIgaGVpZ2h0PSIxIiB3aWR0aD0iMSIgeT0iNSIgeD0iOSIvPjxyZWN0IGZpbGw9IiNkYTAwMDAiIGhlaWdodD0iMSIgd2lkdGg9IjEiIHk9IjYiIHg9IjkiLz48cmVjdCBmaWxsPSIjNzMwMDAwIiBoZWlnaHQ9IjEiIHdpZHRoPSIxIiB5PSI3IiB4PSI5Ii8+PHJlY3QgZmlsbD0iIzM4MDQwMCIgaGVpZ2h0PSIxIiB3aWR0aD0iMSIgeT0iOCIgeD0iOSIvPjxyZWN0IGZpbGw9IiMzODA0MDAiIGhlaWdodD0iMSIgd2lkdGg9IjEiIHk9IjkiIHg9IjkiLz48cmVjdCBmaWxsPSIjMzgwNDAwIiBoZWlnaHQ9IjEiIHdpZHRoPSIxIiB5PSIxMCIgeD0iOSIvPjxyZWN0IGZpbGw9IiM0ODA2MDAiIGhlaWdodD0iMSIgd2lkdGg9IjEiIHk9IjUiIHg9IjEwIi8+PHJlY3QgZmlsbD0iIzQ4MDYwMCIgaGVpZ2h0PSIxIiB3aWR0aD0iMSIgeT0iNiIgeD0iMTAiLz48cmVjdCBmaWxsPSIjM2UwNTAwIiBoZWlnaHQ9IjEiIHdpZHRoPSIxIiB5PSI3IiB4PSIxMCIvPjxyZWN0IGZpbGw9IiMzODA0MDAiIGhlaWdodD0iMSIgd2lkdGg9IjEiIHk9IjgiIHg9IjEwIi8+PHJlY3QgZmlsbD0iIzNlMDUwMCIgaGVpZ2h0PSIxIiB3aWR0aD0iMSIgeT0iOSIgeD0iMTAiLz48cmVjdCBmaWxsPSIjMzgwNDAwIiBoZWlnaHQ9IjEiIHdpZHRoPSIxIiB5PSIxMCIgeD0iMTAiLz48cmVjdCBmaWxsPSIjNTYwNzAwIiBoZWlnaHQ9IjEiIHdpZHRoPSIxIiB5PSI4IiB4PSIxMSIvPjxyZWN0IGZpbGw9IiMzZTA1MDAiIGhlaWdodD0iMSIgd2lkdGg9IjEiIHk9IjkiIHg9IjExIi8+PHJlY3QgZmlsbD0iIzMyMDQwMCIgaGVpZ2h0PSIxIiB3aWR0aD0iMSIgeT0iMTAiIHg9IjExIi8+PHJlY3QgZmlsbD0iIzNlMDUwMCIgaGVpZ2h0PSIxIiB3aWR0aD0iMSIgeT0iOCIgeD0iMTIiLz48cmVjdCBmaWxsPSIjMzIwNDAwIiBoZWlnaHQ9IjEiIHdpZHRoPSIxIiB5PSI5IiB4PSIxMiIvPjwvc3ZnPg==;spacing=0;labelPosition=center;align=center;" parent="1" vertex="1">
          <mxGeometry x="1300" y="720" width="80" height="80" as="geometry" />
        </mxCell>
        <mxCell id="f1JMuyHoU1sW5qgA2hIf-2" value="Russula lazula" style="shape=image;verticalLabelPosition=bottom;labelBackgroundColor=default;verticalAlign=top;aspect=fixed;imageAspect=0;image=data:image/svg+xml,PHN2ZyB4bWxucz0iaHR0cDovL3d3dy53My5vcmcvMjAwMC9zdmciIGhlaWdodD0iMTYiIHdpZHRoPSIxNiIgdmlld0JveD0iMCAwIDE2IDE2Ij48cmVjdCBmaWxsPSIjNjM1OTU2IiBoZWlnaHQ9IjEiIHdpZHRoPSIxIiB5PSI3IiB4PSIzIi8+PHJlY3QgZmlsbD0iIzVkNTQ1MSIgaGVpZ2h0PSIxIiB3aWR0aD0iMSIgeT0iOCIgeD0iMyIvPjxyZWN0IGZpbGw9IiM1MTQ5NDciIGhlaWdodD0iMSIgd2lkdGg9IjEiIHk9IjkiIHg9IjMiLz48cmVjdCBmaWxsPSIjNTE0OTQ3IiBoZWlnaHQ9IjEiIHdpZHRoPSIxIiB5PSIxMCIgeD0iMyIvPjxyZWN0IGZpbGw9IiMxZjQ1OWEiIGhlaWdodD0iMSIgd2lkdGg9IjEiIHk9IjciIHg9IjQiLz48cmVjdCBmaWxsPSIjNjM1OTU2IiBoZWlnaHQ9IjEiIHdpZHRoPSIxIiB5PSI4IiB4PSI0Ii8+PHJlY3QgZmlsbD0iIzVkNTQ1MSIgaGVpZ2h0PSIxIiB3aWR0aD0iMSIgeT0iOSIgeD0iNCIvPjxyZWN0IGZpbGw9IiM1MTQ5NDciIGhlaWdodD0iMSIgd2lkdGg9IjEiIHk9IjEwIiB4PSI0Ii8+PHJlY3QgZmlsbD0iIzZiNjE1ZCIgaGVpZ2h0PSIxIiB3aWR0aD0iMSIgeT0iNyIgeD0iNSIvPjxyZWN0IGZpbGw9IiM2YjYxNWQiIGhlaWdodD0iMSIgd2lkdGg9IjEiIHk9IjgiIHg9IjUiLz48cmVjdCBmaWxsPSIjNWQ1NDUxIiBoZWlnaHQ9IjEiIHdpZHRoPSIxIiB5PSI5IiB4PSI1Ii8+PHJlY3QgZmlsbD0iIzUxNDk0NyIgaGVpZ2h0PSIxIiB3aWR0aD0iMSIgeT0iMTAiIHg9IjUiLz48cmVjdCBmaWxsPSIjNmI2MTVkIiBoZWlnaHQ9IjEiIHdpZHRoPSIxIiB5PSI3IiB4PSI2Ii8+PHJlY3QgZmlsbD0iIzZiNjE1ZCIgaGVpZ2h0PSIxIiB3aWR0aD0iMSIgeT0iOCIgeD0iNiIvPjxyZWN0IGZpbGw9IiMxZjQ1OWEiIGhlaWdodD0iMSIgd2lkdGg9IjEiIHk9IjkiIHg9IjYiLz48cmVjdCBmaWxsPSIjMTczNTc3IiBoZWlnaHQ9IjEiIHdpZHRoPSIxIiB5PSIxMCIgeD0iNiIvPjxyZWN0IGZpbGw9IiM2YjYxNWQiIGhlaWdodD0iMSIgd2lkdGg9IjEiIHk9IjciIHg9IjciLz48cmVjdCBmaWxsPSIjNmI2MTVkIiBoZWlnaHQ9IjEiIHdpZHRoPSIxIiB5PSI4IiB4PSI3Ii8+PHJlY3QgZmlsbD0iIzE3MzU3NyIgaGVpZ2h0PSIxIiB3aWR0aD0iMSIgeT0iOSIgeD0iNyIvPjxyZWN0IGZpbGw9IiMxNzM1NzciIGhlaWdodD0iMSIgd2lkdGg9IjEiIHk9IjEwIiB4PSI3Ii8+PHJlY3QgZmlsbD0iI2FiYWI4OCIgaGVpZ2h0PSIxIiB3aWR0aD0iMSIgeT0iMTEiIHg9IjciLz48cmVjdCBmaWxsPSIjYmFiYTk0IiBoZWlnaHQ9IjEiIHdpZHRoPSIxIiB5PSIxMiIgeD0iNyIvPjxyZWN0IGZpbGw9IiNjOGM4YTAiIGhlaWdodD0iMSIgd2lkdGg9IjEiIHk9IjEzIiB4PSI3Ii8+PHJlY3QgZmlsbD0iI2JhYmE5NCIgaGVpZ2h0PSIxIiB3aWR0aD0iMSIgeT0iMTQiIHg9IjciLz48cmVjdCBmaWxsPSIjYzhjOGEwIiBoZWlnaHQ9IjEiIHdpZHRoPSIxIiB5PSIxNSIgeD0iNyIvPjxyZWN0IGZpbGw9IiM2YjYxNWQiIGhlaWdodD0iMSIgd2lkdGg9IjEiIHk9IjciIHg9IjgiLz48cmVjdCBmaWxsPSIjNmI2MTVkIiBoZWlnaHQ9IjEiIHdpZHRoPSIxIiB5PSI4IiB4PSI4Ii8+PHJlY3QgZmlsbD0iIzYzNTk1NiIgaGVpZ2h0PSIxIiB3aWR0aD0iMSIgeT0iOSIgeD0iOCIvPjxyZWN0IGZpbGw9IiM1YjUyNTAiIGhlaWdodD0iMSIgd2lkdGg9IjEiIHk9IjEwIiB4PSI4Ii8+PHJlY3QgZmlsbD0iI2FiYWI4OCIgaGVpZ2h0PSIxIiB3aWR0aD0iMSIgeT0iMTEiIHg9IjgiLz48cmVjdCBmaWxsPSIjYWJhYjg4IiBoZWlnaHQ9IjEiIHdpZHRoPSIxIiB5PSIxMiIgeD0iOCIvPjxyZWN0IGZpbGw9IiNiYWJhOTQiIGhlaWdodD0iMSIgd2lkdGg9IjEiIHk9IjEzIiB4PSI4Ii8+PHJlY3QgZmlsbD0iI2M4YzhhMCIgaGVpZ2h0PSIxIiB3aWR0aD0iMSIgeT0iMTQiIHg9IjgiLz48cmVjdCBmaWxsPSIjYmFiYTk0IiBoZWlnaHQ9IjEiIHdpZHRoPSIxIiB5PSIxNSIgeD0iOCIvPjxyZWN0IGZpbGw9IiMxODM2NzkiIGhlaWdodD0iMSIgd2lkdGg9IjEiIHk9IjciIHg9IjkiLz48cmVjdCBmaWxsPSIjMTgzNjc5IiBoZWlnaHQ9IjEiIHdpZHRoPSIxIiB5PSI4IiB4PSI5Ii8+PHJlY3QgZmlsbD0iIzVkNTQ1MSIgaGVpZ2h0PSIxIiB3aWR0aD0iMSIgeT0iOSIgeD0iOSIvPjxyZWN0IGZpbGw9IiM1YjUyNTAiIGhlaWdodD0iMSIgd2lkdGg9IjEiIHk9IjEwIiB4PSI5Ii8+PHJlY3QgZmlsbD0iIzI2NTNiOSIgaGVpZ2h0PSIxIiB3aWR0aD0iMSIgeT0iNyIgeD0iMTAiLz48cmVjdCBmaWxsPSIjMTgzNjc5IiBoZWlnaHQ9IjEiIHdpZHRoPSIxIiB5PSI4IiB4PSIxMCIvPjxyZWN0IGZpbGw9IiM1ZDU0NTEiIGhlaWdodD0iMSIgd2lkdGg9IjEiIHk9IjkiIHg9IjEwIi8+PHJlY3QgZmlsbD0iIzUxNDk0NyIgaGVpZ2h0PSIxIiB3aWR0aD0iMSIgeT0iMTAiIHg9IjEwIi8+PHJlY3QgZmlsbD0iIzZiNjE1ZCIgaGVpZ2h0PSIxIiB3aWR0aD0iMSIgeT0iNyIgeD0iMTEiLz48cmVjdCBmaWxsPSIjNjM1OTU2IiBoZWlnaHQ9IjEiIHdpZHRoPSIxIiB5PSI4IiB4PSIxMSIvPjxyZWN0IGZpbGw9IiM1ZDU0NTEiIGhlaWdodD0iMSIgd2lkdGg9IjEiIHk9IjkiIHg9IjExIi8+PHJlY3QgZmlsbD0iIzUxNDk0NyIgaGVpZ2h0PSIxIiB3aWR0aD0iMSIgeT0iMTAiIHg9IjExIi8+PHJlY3QgZmlsbD0iIzYzNTk1NiIgaGVpZ2h0PSIxIiB3aWR0aD0iMSIgeT0iNyIgeD0iMTIiLz48cmVjdCBmaWxsPSIjNWQ1NDUxIiBoZWlnaHQ9IjEiIHdpZHRoPSIxIiB5PSI4IiB4PSIxMiIvPjxyZWN0IGZpbGw9IiM1MTQ5NDciIGhlaWdodD0iMSIgd2lkdGg9IjEiIHk9IjkiIHg9IjEyIi8+PHJlY3QgZmlsbD0iIzUxNDk0NyIgaGVpZ2h0PSIxIiB3aWR0aD0iMSIgeT0iMTAiIHg9IjEyIi8+PC9zdmc+;spacing=0;labelPosition=center;align=center;" parent="1" vertex="1">
          <mxGeometry x="1180" y="720" width="80" height="80" as="geometry" />
        </mxCell>
        <mxCell id="f1JMuyHoU1sW5qgA2hIf-7" value="" style="endArrow=none;html=1;rounded=0;entryX=0;entryY=1;entryDx=0;entryDy=0;exitX=0.5;exitY=0;exitDx=0;exitDy=0;" parent="1" source="6MsRrpP1h8E8F69nriwY-4" target="f1JMuyHoU1sW5qgA2hIf-6" edge="1">
          <mxGeometry width="50" height="50" relative="1" as="geometry">
            <mxPoint x="1280" y="840" as="sourcePoint" />
            <mxPoint x="1380" y="650" as="targetPoint" />
          </mxGeometry>
        </mxCell>
        <mxCell id="f1JMuyHoU1sW5qgA2hIf-8" value="" style="endArrow=none;html=1;rounded=0;entryX=1;entryY=1;entryDx=0;entryDy=0;exitX=0.5;exitY=0;exitDx=0;exitDy=0;" parent="1" source="6MsRrpP1h8E8F69nriwY-4" target="f1JMuyHoU1sW5qgA2hIf-5" edge="1">
          <mxGeometry width="50" height="50" relative="1" as="geometry">
            <mxPoint x="1260" y="830" as="sourcePoint" />
            <mxPoint x="1380" y="650" as="targetPoint" />
          </mxGeometry>
        </mxCell>
        <mxCell id="f1JMuyHoU1sW5qgA2hIf-10" value="" style="ellipse;whiteSpace=wrap;html=1;fillColor=#f5f5f5;fontColor=#333333;strokeColor=#666666;" parent="1" vertex="1">
          <mxGeometry x="1240" y="600" width="80" height="80" as="geometry" />
        </mxCell>
        <mxCell id="f1JMuyHoU1sW5qgA2hIf-9" value="CLAY FUNGUS" style="shape=image;verticalLabelPosition=top;labelBackgroundColor=default;verticalAlign=bottom;aspect=fixed;imageAspect=0;image=data:image/svg+xml,PHN2ZyB4bWxucz0iaHR0cDovL3d3dy53My5vcmcvMjAwMC9zdmciIGhlaWdodD0iMTYiIHdpZHRoPSIxNiIgdmlld0JveD0iMCAwIDE2IDE2Ij48cmVjdCBmaWxsPSIjODY5NWMxIiBoZWlnaHQ9IjEiIHdpZHRoPSIxIiB5PSI3IiB4PSIzIi8+PHJlY3QgZmlsbD0iIzdmOGNiNiIgaGVpZ2h0PSIxIiB3aWR0aD0iMSIgeT0iOCIgeD0iMyIvPjxyZWN0IGZpbGw9IiM2ZTdhOWYiIGhlaWdodD0iMSIgd2lkdGg9IjEiIHk9IjkiIHg9IjMiLz48cmVjdCBmaWxsPSIjNmU3YTlmIiBoZWlnaHQ9IjEiIHdpZHRoPSIxIiB5PSIxMCIgeD0iMyIvPjxyZWN0IGZpbGw9IiM5MDlmYzYiIGhlaWdodD0iMSIgd2lkdGg9IjEiIHk9IjciIHg9IjQiLz48cmVjdCBmaWxsPSIjODY5NWMxIiBoZWlnaHQ9IjEiIHdpZHRoPSIxIiB5PSI4IiB4PSI0Ii8+PHJlY3QgZmlsbD0iIzdmOGNiNiIgaGVpZ2h0PSIxIiB3aWR0aD0iMSIgeT0iOSIgeD0iNCIvPjxyZWN0IGZpbGw9IiM2ZTdhOWYiIGhlaWdodD0iMSIgd2lkdGg9IjEiIHk9IjEwIiB4PSI0Ii8+PHJlY3QgZmlsbD0iIzkyYTJkMiIgaGVpZ2h0PSIxIiB3aWR0aD0iMSIgeT0iNyIgeD0iNSIvPjxyZWN0IGZpbGw9IiM5MmEyZDIiIGhlaWdodD0iMSIgd2lkdGg9IjEiIHk9IjgiIHg9IjUiLz48cmVjdCBmaWxsPSIjN2Y4Y2I2IiBoZWlnaHQ9IjEiIHdpZHRoPSIxIiB5PSI5IiB4PSI1Ii8+PHJlY3QgZmlsbD0iIzZlN2E5ZiIgaGVpZ2h0PSIxIiB3aWR0aD0iMSIgeT0iMTAiIHg9IjUiLz48cmVjdCBmaWxsPSIjOTJhMmQyIiBoZWlnaHQ9IjEiIHdpZHRoPSIxIiB5PSI3IiB4PSI2Ii8+PHJlY3QgZmlsbD0iIzkyYTJkMiIgaGVpZ2h0PSIxIiB3aWR0aD0iMSIgeT0iOCIgeD0iNiIvPjxyZWN0IGZpbGw9IiM5MDlmYzYiIGhlaWdodD0iMSIgd2lkdGg9IjEiIHk9IjkiIHg9IjYiLz48cmVjdCBmaWxsPSIjODU5M2JmIiBoZWlnaHQ9IjEiIHdpZHRoPSIxIiB5PSIxMCIgeD0iNiIvPjxyZWN0IGZpbGw9IiM5MmEyZDIiIGhlaWdodD0iMSIgd2lkdGg9IjEiIHk9IjciIHg9IjciLz48cmVjdCBmaWxsPSIjOTJhMmQyIiBoZWlnaHQ9IjEiIHdpZHRoPSIxIiB5PSI4IiB4PSI3Ii8+PHJlY3QgZmlsbD0iIzg1OTNiZiIgaGVpZ2h0PSIxIiB3aWR0aD0iMSIgeT0iOSIgeD0iNyIvPjxyZWN0IGZpbGw9IiM4NTkzYmYiIGhlaWdodD0iMSIgd2lkdGg9IjEiIHk9IjEwIiB4PSI3Ii8+PHJlY3QgZmlsbD0iI2FiOTI3NyIgaGVpZ2h0PSIxIiB3aWR0aD0iMSIgeT0iMTEiIHg9IjciLz48cmVjdCBmaWxsPSIjYmE5ZjgxIiBoZWlnaHQ9IjEiIHdpZHRoPSIxIiB5PSIxMiIgeD0iNyIvPjxyZWN0IGZpbGw9IiNjOGFiOGIiIGhlaWdodD0iMSIgd2lkdGg9IjEiIHk9IjEzIiB4PSI3Ii8+PHJlY3QgZmlsbD0iI2JhOWY4MSIgaGVpZ2h0PSIxIiB3aWR0aD0iMSIgeT0iMTQiIHg9IjciLz48cmVjdCBmaWxsPSIjYzhhYjhiIiBoZWlnaHQ9IjEiIHdpZHRoPSIxIiB5PSIxNSIgeD0iNyIvPjxyZWN0IGZpbGw9IiM5MmEyZDIiIGhlaWdodD0iMSIgd2lkdGg9IjEiIHk9IjciIHg9IjgiLz48cmVjdCBmaWxsPSIjOTJhMmQyIiBoZWlnaHQ9IjEiIHdpZHRoPSIxIiB5PSI4IiB4PSI4Ii8+PHJlY3QgZmlsbD0iIzg2OTVjMSIgaGVpZ2h0PSIxIiB3aWR0aD0iMSIgeT0iOSIgeD0iOCIvPjxyZWN0IGZpbGw9IiM3YzhhYjMiIGhlaWdodD0iMSIgd2lkdGg9IjEiIHk9IjEwIiB4PSI4Ii8+PHJlY3QgZmlsbD0iI2FiOTI3NyIgaGVpZ2h0PSIxIiB3aWR0aD0iMSIgeT0iMTEiIHg9IjgiLz48cmVjdCBmaWxsPSIjYWI5Mjc3IiBoZWlnaHQ9IjEiIHdpZHRoPSIxIiB5PSIxMiIgeD0iOCIvPjxyZWN0IGZpbGw9IiNiYTlmODEiIGhlaWdodD0iMSIgd2lkdGg9IjEiIHk9IjEzIiB4PSI4Ii8+PHJlY3QgZmlsbD0iI2M4YWI4YiIgaGVpZ2h0PSIxIiB3aWR0aD0iMSIgeT0iMTQiIHg9IjgiLz48cmVjdCBmaWxsPSIjYmE5ZjgxIiBoZWlnaHQ9IjEiIHdpZHRoPSIxIiB5PSIxNSIgeD0iOCIvPjxyZWN0IGZpbGw9IiM4ODk2YzMiIGhlaWdodD0iMSIgd2lkdGg9IjEiIHk9IjciIHg9IjkiLz48cmVjdCBmaWxsPSIjODg5NmMzIiBoZWlnaHQ9IjEiIHdpZHRoPSIxIiB5PSI4IiB4PSI5Ii8+PHJlY3QgZmlsbD0iIzdmOGNiNiIgaGVpZ2h0PSIxIiB3aWR0aD0iMSIgeT0iOSIgeD0iOSIvPjxyZWN0IGZpbGw9IiM3YzhhYjMiIGhlaWdodD0iMSIgd2lkdGg9IjEiIHk9IjEwIiB4PSI5Ii8+PHJlY3QgZmlsbD0iI2FkYmZlZSIgaGVpZ2h0PSIxIiB3aWR0aD0iMSIgeT0iNyIgeD0iMTAiLz48cmVjdCBmaWxsPSIjODg5NmMzIiBoZWlnaHQ9IjEiIHdpZHRoPSIxIiB5PSI4IiB4PSIxMCIvPjxyZWN0IGZpbGw9IiM3ZjhjYjYiIGhlaWdodD0iMSIgd2lkdGg9IjEiIHk9IjkiIHg9IjEwIi8+PHJlY3QgZmlsbD0iIzZlN2E5ZiIgaGVpZ2h0PSIxIiB3aWR0aD0iMSIgeT0iMTAiIHg9IjEwIi8+PHJlY3QgZmlsbD0iIzkyYTJkMiIgaGVpZ2h0PSIxIiB3aWR0aD0iMSIgeT0iNyIgeD0iMTEiLz48cmVjdCBmaWxsPSIjODY5NWMxIiBoZWlnaHQ9IjEiIHdpZHRoPSIxIiB5PSI4IiB4PSIxMSIvPjxyZWN0IGZpbGw9IiM3ZjhjYjYiIGhlaWdodD0iMSIgd2lkdGg9IjEiIHk9IjkiIHg9IjExIi8+PHJlY3QgZmlsbD0iIzZlN2E5ZiIgaGVpZ2h0PSIxIiB3aWR0aD0iMSIgeT0iMTAiIHg9IjExIi8+PHJlY3QgZmlsbD0iIzg2OTVjMSIgaGVpZ2h0PSIxIiB3aWR0aD0iMSIgeT0iNyIgeD0iMTIiLz48cmVjdCBmaWxsPSIjN2Y4Y2I2IiBoZWlnaHQ9IjEiIHdpZHRoPSIxIiB5PSI4IiB4PSIxMiIvPjxyZWN0IGZpbGw9IiM2ZTdhOWYiIGhlaWdodD0iMSIgd2lkdGg9IjEiIHk9IjkiIHg9IjEyIi8+PHJlY3QgZmlsbD0iIzZlN2E5ZiIgaGVpZ2h0PSIxIiB3aWR0aD0iMSIgeT0iMTAiIHg9IjEyIi8+PC9zdmc+;spacing=0;labelPosition=center;align=center;" parent="1" vertex="1">
          <mxGeometry x="1240" y="600" width="80" height="80" as="geometry" />
        </mxCell>
        <mxCell id="f1JMuyHoU1sW5qgA2hIf-11" value="" style="endArrow=none;html=1;rounded=0;entryX=0;entryY=1;entryDx=0;entryDy=0;exitX=0.5;exitY=0;exitDx=0;exitDy=0;" parent="1" source="f1JMuyHoU1sW5qgA2hIf-5" target="f1JMuyHoU1sW5qgA2hIf-10" edge="1">
          <mxGeometry width="50" height="50" relative="1" as="geometry">
            <mxPoint x="1180" y="780" as="sourcePoint" />
            <mxPoint x="1230" y="730" as="targetPoint" />
          </mxGeometry>
        </mxCell>
        <mxCell id="f1JMuyHoU1sW5qgA2hIf-12" value="CALCITE&lt;div&gt;FUNGUS&lt;/div&gt;&lt;div&gt;&amp;lt;&amp;lt;crimson&amp;gt;&amp;gt;&lt;/div&gt;" style="ellipse;whiteSpace=wrap;html=1;fillColor=#f5f5f5;fontColor=#333333;strokeColor=#666666;" parent="1" vertex="1">
          <mxGeometry x="1120" y="600" width="80" height="80" as="geometry" />
        </mxCell>
        <mxCell id="f1JMuyHoU1sW5qgA2hIf-13" value="" style="endArrow=none;html=1;rounded=0;entryX=1;entryY=1;entryDx=0;entryDy=0;exitX=0.5;exitY=0;exitDx=0;exitDy=0;" parent="1" source="f1JMuyHoU1sW5qgA2hIf-2" target="f1JMuyHoU1sW5qgA2hIf-12" edge="1">
          <mxGeometry width="50" height="50" relative="1" as="geometry">
            <mxPoint x="1150" y="720" as="sourcePoint" />
            <mxPoint x="1200" y="670" as="targetPoint" />
          </mxGeometry>
        </mxCell>
        <mxCell id="f1JMuyHoU1sW5qgA2hIf-14" value="DIORITE&lt;div&gt;FUNGUS&lt;/div&gt;&lt;div&gt;&amp;lt;&amp;lt;crimson&amp;gt;&amp;gt;&lt;/div&gt;" style="ellipse;whiteSpace=wrap;html=1;fillColor=#f5f5f5;fontColor=#333333;strokeColor=#666666;" parent="1" vertex="1">
          <mxGeometry x="1020" y="440" width="80" height="80" as="geometry" />
        </mxCell>
        <mxCell id="f1JMuyHoU1sW5qgA2hIf-17" value="" style="endArrow=none;html=1;rounded=0;" parent="1" edge="1">
          <mxGeometry width="50" height="50" relative="1" as="geometry">
            <mxPoint x="1030" y="560" as="sourcePoint" />
            <mxPoint x="1160" y="560" as="targetPoint" />
          </mxGeometry>
        </mxCell>
        <mxCell id="f1JMuyHoU1sW5qgA2hIf-19" value="" style="endArrow=none;html=1;rounded=0;exitX=0.5;exitY=0;exitDx=0;exitDy=0;" parent="1" source="f1JMuyHoU1sW5qgA2hIf-12" edge="1">
          <mxGeometry width="50" height="50" relative="1" as="geometry">
            <mxPoint x="1160" y="520" as="sourcePoint" />
            <mxPoint x="1160" y="560" as="targetPoint" />
          </mxGeometry>
        </mxCell>
        <mxCell id="f1JMuyHoU1sW5qgA2hIf-23" value="" style="endArrow=none;html=1;rounded=0;entryX=1;entryY=0.5;entryDx=0;entryDy=0;exitX=0.5;exitY=1;exitDx=0;exitDy=0;" parent="1" source="6rGijkrG-7dVek1cO-f6-1" target="Hz89KFCYKQkw7Tc9vpXd-1" edge="1">
          <mxGeometry width="50" height="50" relative="1" as="geometry">
            <mxPoint x="1080" y="400" as="sourcePoint" />
            <mxPoint x="1150" y="430" as="targetPoint" />
            <Array as="points">
              <mxPoint x="1080" y="400" />
            </Array>
          </mxGeometry>
        </mxCell>
        <mxCell id="f1JMuyHoU1sW5qgA2hIf-25" value="" style="endArrow=none;html=1;rounded=0;" parent="1" edge="1">
          <mxGeometry width="50" height="50" relative="1" as="geometry">
            <mxPoint x="780" y="540" as="sourcePoint" />
            <mxPoint x="880" y="540" as="targetPoint" />
          </mxGeometry>
        </mxCell>
        <mxCell id="f1JMuyHoU1sW5qgA2hIf-26" value="" style="endArrow=none;html=1;rounded=0;exitX=0.5;exitY=0;exitDx=0;exitDy=0;" parent="1" source="Hz89KFCYKQkw7Tc9vpXd-5" edge="1">
          <mxGeometry width="50" height="50" relative="1" as="geometry">
            <mxPoint x="850" y="510" as="sourcePoint" />
            <mxPoint x="840" y="540" as="targetPoint" />
          </mxGeometry>
        </mxCell>
        <mxCell id="f1JMuyHoU1sW5qgA2hIf-28" value="" style="endArrow=none;html=1;rounded=0;entryX=0.5;entryY=1;entryDx=0;entryDy=0;" parent="1" target="f1JMuyHoU1sW5qgA2hIf-14" edge="1">
          <mxGeometry width="50" height="50" relative="1" as="geometry">
            <mxPoint x="1060" y="560" as="sourcePoint" />
            <mxPoint x="1160" y="520" as="targetPoint" />
          </mxGeometry>
        </mxCell>
        <mxCell id="f1JMuyHoU1sW5qgA2hIf-30" value="" style="endArrow=none;html=1;rounded=0;entryX=0;entryY=1;entryDx=0;entryDy=0;" parent="1" target="Hz89KFCYKQkw7Tc9vpXd-1" edge="1">
          <mxGeometry width="50" height="50" relative="1" as="geometry">
            <mxPoint x="880" y="540" as="sourcePoint" />
            <mxPoint x="1060" y="500" as="targetPoint" />
          </mxGeometry>
        </mxCell>
        <mxCell id="f1JMuyHoU1sW5qgA2hIf-31" value="" style="endArrow=none;html=1;rounded=0;entryX=1;entryY=1;entryDx=0;entryDy=0;" parent="1" target="Hz89KFCYKQkw7Tc9vpXd-1" edge="1">
          <mxGeometry width="50" height="50" relative="1" as="geometry">
            <mxPoint x="1030" y="560" as="sourcePoint" />
            <mxPoint x="990" y="440" as="targetPoint" />
          </mxGeometry>
        </mxCell>
        <mxCell id="NB6ufCWaWhMxO7pA05RY-2" value="" style="ellipse;whiteSpace=wrap;html=1;fillColor=#dae8fc;strokeColor=#6c8ebf;" vertex="1" parent="1">
          <mxGeometry x="680" y="60" width="80" height="80" as="geometry" />
        </mxCell>
        <mxCell id="NB6ufCWaWhMxO7pA05RY-1" value="Noble boletus squisitus" style="shape=image;verticalLabelPosition=top;labelBackgroundColor=default;verticalAlign=bottom;aspect=fixed;imageAspect=0;image=data:image/svg+xml,PHN2ZyB4bWxucz0iaHR0cDovL3d3dy53My5vcmcvMjAwMC9zdmciIGhlaWdodD0iMTYiIHdpZHRoPSIxNiIgdmlld0JveD0iMCAwIDE2IDE2Ij48cmVjdCBmaWxsPSIjNDUzNjMyIiBoZWlnaHQ9IjEiIHdpZHRoPSIxIiB5PSI4IiB4PSIzIi8+PHJlY3QgZmlsbD0iIzNlMzAyYyIgaGVpZ2h0PSIxIiB3aWR0aD0iMSIgeT0iOSIgeD0iMyIvPjxyZWN0IGZpbGw9IiM1ZjRhNDQiIGhlaWdodD0iMSIgd2lkdGg9IjEiIHk9IjgiIHg9IjQiLz48cmVjdCBmaWxsPSIjNDUzNjMyIiBoZWlnaHQ9IjEiIHdpZHRoPSIxIiB5PSI5IiB4PSI0Ii8+PHJlY3QgZmlsbD0iIzNlMzAyYyIgaGVpZ2h0PSIxIiB3aWR0aD0iMSIgeT0iMTAiIHg9IjQiLz48cmVjdCBmaWxsPSIjZmZlNGUyIiBoZWlnaHQ9IjEiIHdpZHRoPSIxIiB5PSI1IiB4PSI1Ii8+PHJlY3QgZmlsbD0iI2JlOGM4NSIgaGVpZ2h0PSIxIiB3aWR0aD0iMSIgeT0iNiIgeD0iNSIvPjxyZWN0IGZpbGw9IiM0YzNiMzciIGhlaWdodD0iMSIgd2lkdGg9IjEiIHk9IjciIHg9IjUiLz48cmVjdCBmaWxsPSIjNmI1MzRkIiBoZWlnaHQ9IjEiIHdpZHRoPSIxIiB5PSI4IiB4PSI1Ii8+PHJlY3QgZmlsbD0iIzRjM2IzNyIgaGVpZ2h0PSIxIiB3aWR0aD0iMSIgeT0iOSIgeD0iNSIvPjxyZWN0IGZpbGw9IiM0NTM2MzIiIGhlaWdodD0iMSIgd2lkdGg9IjEiIHk9IjEwIiB4PSI1Ii8+PHJlY3QgZmlsbD0iIzZiNTM0ZCIgaGVpZ2h0PSIxIiB3aWR0aD0iMSIgeT0iNCIgeD0iNiIvPjxyZWN0IGZpbGw9IiNiZThjODUiIGhlaWdodD0iMSIgd2lkdGg9IjEiIHk9IjUiIHg9IjYiLz48cmVjdCBmaWxsPSIjYmU4Yzg1IiBoZWlnaHQ9IjEiIHdpZHRoPSIxIiB5PSI2IiB4PSI2Ii8+PHJlY3QgZmlsbD0iIzU4NDQ0MCIgaGVpZ2h0PSIxIiB3aWR0aD0iMSIgeT0iNyIgeD0iNiIvPjxyZWN0IGZpbGw9IiM2YjUzNGQiIGhlaWdodD0iMSIgd2lkdGg9IjEiIHk9IjgiIHg9IjYiLz48cmVjdCBmaWxsPSIjNGMzYjM3IiBoZWlnaHQ9IjEiIHdpZHRoPSIxIiB5PSI5IiB4PSI2Ii8+PHJlY3QgZmlsbD0iIzQ1MzYzMiIgaGVpZ2h0PSIxIiB3aWR0aD0iMSIgeT0iMTAiIHg9IjYiLz48cmVjdCBmaWxsPSIjNmI1MzRkIiBoZWlnaHQ9IjEiIHdpZHRoPSIxIiB5PSI0IiB4PSI3Ii8+PHJlY3QgZmlsbD0iIzZiNTM0ZCIgaGVpZ2h0PSIxIiB3aWR0aD0iMSIgeT0iNSIgeD0iNyIvPjxyZWN0IGZpbGw9IiM2YjUzNGQiIGhlaWdodD0iMSIgd2lkdGg9IjEiIHk9IjYiIHg9IjciLz48cmVjdCBmaWxsPSIjNTg0NDQwIiBoZWlnaHQ9IjEiIHdpZHRoPSIxIiB5PSI3IiB4PSI3Ii8+PHJlY3QgZmlsbD0iIzVmNGE0NCIgaGVpZ2h0PSIxIiB3aWR0aD0iMSIgeT0iOCIgeD0iNyIvPjxyZWN0IGZpbGw9IiM0YzNiMzciIGhlaWdodD0iMSIgd2lkdGg9IjEiIHk9IjkiIHg9IjciLz48cmVjdCBmaWxsPSIjM2UzMDJjIiBoZWlnaHQ9IjEiIHdpZHRoPSIxIiB5PSIxMCIgeD0iNyIvPjxyZWN0IGZpbGw9IiM1OTUwNGIiIGhlaWdodD0iMSIgd2lkdGg9IjEiIHk9IjExIiB4PSI3Ii8+PHJlY3QgZmlsbD0iIzcwNjU1ZSIgaGVpZ2h0PSIxIiB3aWR0aD0iMSIgeT0iMTIiIHg9IjciLz48cmVjdCBmaWxsPSIjN2E2ZTY3IiBoZWlnaHQ9IjEiIHdpZHRoPSIxIiB5PSIxMyIgeD0iNyIvPjxyZWN0IGZpbGw9IiM4Njc4NzEiIGhlaWdodD0iMSIgd2lkdGg9IjEiIHk9IjE0IiB4PSI3Ii8+PHJlY3QgZmlsbD0iIzdhNmU2NyIgaGVpZ2h0PSIxIiB3aWR0aD0iMSIgeT0iMTUiIHg9IjciLz48cmVjdCBmaWxsPSIjNWY0YTQ0IiBoZWlnaHQ9IjEiIHdpZHRoPSIxIiB5PSI0IiB4PSI4Ii8+PHJlY3QgZmlsbD0iIzVmNGE0NCIgaGVpZ2h0PSIxIiB3aWR0aD0iMSIgeT0iNSIgeD0iOCIvPjxyZWN0IGZpbGw9IiNiZThjODUiIGhlaWdodD0iMSIgd2lkdGg9IjEiIHk9IjYiIHg9IjgiLz48cmVjdCBmaWxsPSIjYmU4Yzg1IiBoZWlnaHQ9IjEiIHdpZHRoPSIxIiB5PSI3IiB4PSI4Ii8+PHJlY3QgZmlsbD0iIzRjM2IzNyIgaGVpZ2h0PSIxIiB3aWR0aD0iMSIgeT0iOCIgeD0iOCIvPjxyZWN0IGZpbGw9IiM0NTM2MzIiIGhlaWdodD0iMSIgd2lkdGg9IjEiIHk9IjkiIHg9IjgiLz48cmVjdCBmaWxsPSIjM2UzMDJjIiBoZWlnaHQ9IjEiIHdpZHRoPSIxIiB5PSIxMCIgeD0iOCIvPjxyZWN0IGZpbGw9IiM2NDVhNTQiIGhlaWdodD0iMSIgd2lkdGg9IjEiIHk9IjExIiB4PSI4Ii8+PHJlY3QgZmlsbD0iIzZlNjM1ZCIgaGVpZ2h0PSIxIiB3aWR0aD0iMSIgeT0iMTIiIHg9IjgiLz48cmVjdCBmaWxsPSIjODY3ODcxIiBoZWlnaHQ9IjEiIHdpZHRoPSIxIiB5PSIxMyIgeD0iOCIvPjxyZWN0IGZpbGw9IiM3YTZlNjciIGhlaWdodD0iMSIgd2lkdGg9IjEiIHk9IjE0IiB4PSI4Ii8+PHJlY3QgZmlsbD0iIzZlNjM1ZCIgaGVpZ2h0PSIxIiB3aWR0aD0iMSIgeT0iMTUiIHg9IjgiLz48cmVjdCBmaWxsPSIjZmZlNGUyIiBoZWlnaHQ9IjEiIHdpZHRoPSIxIiB5PSI0IiB4PSI5Ii8+PHJlY3QgZmlsbD0iIzVmNGE0NCIgaGVpZ2h0PSIxIiB3aWR0aD0iMSIgeT0iNSIgeD0iOSIvPjxyZWN0IGZpbGw9IiNmZmU0ZTIiIGhlaWdodD0iMSIgd2lkdGg9IjEiIHk9IjYiIHg9IjkiLz48cmVjdCBmaWxsPSIjYmU4Yzg1IiBoZWlnaHQ9IjEiIHdpZHRoPSIxIiB5PSI3IiB4PSI5Ii8+PHJlY3QgZmlsbD0iIzQ1MzYzMiIgaGVpZ2h0PSIxIiB3aWR0aD0iMSIgeT0iOCIgeD0iOSIvPjxyZWN0IGZpbGw9IiM0NTM2MzIiIGhlaWdodD0iMSIgd2lkdGg9IjEiIHk9IjkiIHg9IjkiLz48cmVjdCBmaWxsPSIjNDUzNjMyIiBoZWlnaHQ9IjEiIHdpZHRoPSIxIiB5PSIxMCIgeD0iOSIvPjxyZWN0IGZpbGw9IiM1ODQ0NDAiIGhlaWdodD0iMSIgd2lkdGg9IjEiIHk9IjUiIHg9IjEwIi8+PHJlY3QgZmlsbD0iIzU4NDQ0MCIgaGVpZ2h0PSIxIiB3aWR0aD0iMSIgeT0iNiIgeD0iMTAiLz48cmVjdCBmaWxsPSIjNGMzYjM3IiBoZWlnaHQ9IjEiIHdpZHRoPSIxIiB5PSI3IiB4PSIxMCIvPjxyZWN0IGZpbGw9IiM0NTM2MzIiIGhlaWdodD0iMSIgd2lkdGg9IjEiIHk9IjgiIHg9IjEwIi8+PHJlY3QgZmlsbD0iIzRjM2IzNyIgaGVpZ2h0PSIxIiB3aWR0aD0iMSIgeT0iOSIgeD0iMTAiLz48cmVjdCBmaWxsPSIjNDUzNjMyIiBoZWlnaHQ9IjEiIHdpZHRoPSIxIiB5PSIxMCIgeD0iMTAiLz48cmVjdCBmaWxsPSIjNjk1MTRiIiBoZWlnaHQ9IjEiIHdpZHRoPSIxIiB5PSI4IiB4PSIxMSIvPjxyZWN0IGZpbGw9IiM0YzNiMzciIGhlaWdodD0iMSIgd2lkdGg9IjEiIHk9IjkiIHg9IjExIi8+PHJlY3QgZmlsbD0iIzNlMzAyYyIgaGVpZ2h0PSIxIiB3aWR0aD0iMSIgeT0iMTAiIHg9IjExIi8+PHJlY3QgZmlsbD0iIzRjM2IzNyIgaGVpZ2h0PSIxIiB3aWR0aD0iMSIgeT0iOCIgeD0iMTIiLz48cmVjdCBmaWxsPSIjM2UzMDJjIiBoZWlnaHQ9IjEiIHdpZHRoPSIxIiB5PSI5IiB4PSIxMiIvPjwvc3ZnPg==;spacing=0;labelPosition=center;align=center;" vertex="1" parent="1">
          <mxGeometry x="680" y="60" width="80" height="80" as="geometry" />
        </mxCell>
        <mxCell id="NB6ufCWaWhMxO7pA05RY-4" value="???" style="ellipse;whiteSpace=wrap;html=1;" vertex="1" parent="1">
          <mxGeometry x="560" y="120" width="80" height="80" as="geometry" />
        </mxCell>
        <mxCell id="NB6ufCWaWhMxO7pA05RY-5" value="" style="endArrow=none;html=1;rounded=0;exitX=1;exitY=0.5;exitDx=0;exitDy=0;" edge="1" parent="1" source="NB6ufCWaWhMxO7pA05RY-4">
          <mxGeometry width="50" height="50" relative="1" as="geometry">
            <mxPoint x="680" y="230" as="sourcePoint" />
            <mxPoint x="720" y="160" as="targetPoint" />
          </mxGeometry>
        </mxCell>
        <mxCell id="NB6ufCWaWhMxO7pA05RY-7" value="" style="endArrow=classic;html=1;rounded=0;entryX=0.5;entryY=1;entryDx=0;entryDy=0;exitX=0.5;exitY=0;exitDx=0;exitDy=0;" edge="1" parent="1" source="ZMy1RVDnMmDh1pD7vt_q-59" target="NB6ufCWaWhMxO7pA05RY-2">
          <mxGeometry width="50" height="50" relative="1" as="geometry">
            <mxPoint x="730" y="210" as="sourcePoint" />
            <mxPoint x="730" y="180" as="targetPoint" />
          </mxGeometry>
        </mxCell>
        <mxCell id="NB6ufCWaWhMxO7pA05RY-8" value="" style="endArrow=classic;html=1;rounded=0;entryX=0.5;entryY=0;entryDx=0;entryDy=0;" edge="1" parent="1" target="f1JMuyHoU1sW5qgA2hIf-14">
          <mxGeometry width="50" height="50" relative="1" as="geometry">
            <mxPoint x="1060" y="400" as="sourcePoint" />
            <mxPoint x="1000" y="300" as="targetPoint" />
          </mxGeometry>
        </mxCell>
        <mxCell id="NB6ufCWaWhMxO7pA05RY-10" value="" style="endArrow=none;html=1;rounded=0;exitX=1;exitY=0.5;exitDx=0;exitDy=0;entryX=0.5;entryY=0;entryDx=0;entryDy=0;" edge="1" parent="1" source="NB6ufCWaWhMxO7pA05RY-2" target="6rGijkrG-7dVek1cO-f6-1">
          <mxGeometry width="50" height="50" relative="1" as="geometry">
            <mxPoint x="880" y="150" as="sourcePoint" />
            <mxPoint x="1080" y="80" as="targetPoint" />
            <Array as="points">
              <mxPoint x="1080" y="100" />
            </Array>
          </mxGeometry>
        </mxCell>
        <mxCell id="NB6ufCWaWhMxO7pA05RY-12" value="" style="endArrow=classic;html=1;rounded=0;entryX=0.5;entryY=1;entryDx=0;entryDy=0;" edge="1" parent="1" target="NB6ufCWaWhMxO7pA05RY-13">
          <mxGeometry width="50" height="50" relative="1" as="geometry">
            <mxPoint x="960" y="100" as="sourcePoint" />
            <mxPoint x="960" y="60" as="targetPoint" />
          </mxGeometry>
        </mxCell>
        <mxCell id="NB6ufCWaWhMxO7pA05RY-13" value="FREEZING&lt;div&gt;FUNGUS&lt;/div&gt;&lt;div&gt;&amp;lt;&amp;lt;crimson&amp;gt;&amp;gt;&lt;/div&gt;" style="ellipse;whiteSpace=wrap;html=1;" vertex="1" parent="1">
          <mxGeometry x="920" width="80" height="80" as="geometry" />
        </mxCell>
        <mxCell id="6rGijkrG-7dVek1cO-f6-2" value="Hygrophorus niveus" style="shape=image;verticalLabelPosition=top;labelBackgroundColor=default;verticalAlign=bottom;aspect=fixed;imageAspect=0;image=data:image/svg+xml,PHN2ZyB4bWxucz0iaHR0cDovL3d3dy53My5vcmcvMjAwMC9zdmciIGhlaWdodD0iMTYiIHdpZHRoPSIxNiIgdmlld0JveD0iMCAwIDE2IDE2Ij48cmVjdCBmaWxsPSIjNjY3MjdiIiBoZWlnaHQ9IjEiIHdpZHRoPSIxIiB5PSI4IiB4PSIzIi8+PHJlY3QgZmlsbD0iIzViNjY2ZSIgaGVpZ2h0PSIxIiB3aWR0aD0iMSIgeT0iOSIgeD0iMyIvPjxyZWN0IGZpbGw9IiM4ZDlkYTkiIGhlaWdodD0iMSIgd2lkdGg9IjEiIHk9IjgiIHg9IjQiLz48cmVjdCBmaWxsPSIjNjY3MjdiIiBoZWlnaHQ9IjEiIHdpZHRoPSIxIiB5PSI5IiB4PSI0Ii8+PHJlY3QgZmlsbD0iIzViNjY2ZSIgaGVpZ2h0PSIxIiB3aWR0aD0iMSIgeT0iMTAiIHg9IjQiLz48cmVjdCBmaWxsPSIjZmZmZmZmIiBoZWlnaHQ9IjEiIHdpZHRoPSIxIiB5PSI1IiB4PSI1Ii8+PHJlY3QgZmlsbD0iI2Q0ZTNlYyIgaGVpZ2h0PSIxIiB3aWR0aD0iMSIgeT0iNiIgeD0iNSIvPjxyZWN0IGZpbGw9IiM3MTdlODgiIGhlaWdodD0iMSIgd2lkdGg9IjEiIHk9IjciIHg9IjUiLz48cmVjdCBmaWxsPSIjOWViMWJlIiBoZWlnaHQ9IjEiIHdpZHRoPSIxIiB5PSI4IiB4PSI1Ii8+PHJlY3QgZmlsbD0iIzcxN2U4OCIgaGVpZ2h0PSIxIiB3aWR0aD0iMSIgeT0iOSIgeD0iNSIvPjxyZWN0IGZpbGw9IiM2NjcyN2IiIGhlaWdodD0iMSIgd2lkdGg9IjEiIHk9IjEwIiB4PSI1Ii8+PHJlY3QgZmlsbD0iIzllYjFiZSIgaGVpZ2h0PSIxIiB3aWR0aD0iMSIgeT0iNCIgeD0iNiIvPjxyZWN0IGZpbGw9IiNkNGUzZWMiIGhlaWdodD0iMSIgd2lkdGg9IjEiIHk9IjUiIHg9IjYiLz48cmVjdCBmaWxsPSIjZDRlM2VjIiBoZWlnaHQ9IjEiIHdpZHRoPSIxIiB5PSI2IiB4PSI2Ii8+PHJlY3QgZmlsbD0iIzgzOTI5ZCIgaGVpZ2h0PSIxIiB3aWR0aD0iMSIgeT0iNyIgeD0iNiIvPjxyZWN0IGZpbGw9IiM5ZWIxYmUiIGhlaWdodD0iMSIgd2lkdGg9IjEiIHk9IjgiIHg9IjYiLz48cmVjdCBmaWxsPSIjNzE3ZTg4IiBoZWlnaHQ9IjEiIHdpZHRoPSIxIiB5PSI5IiB4PSI2Ii8+PHJlY3QgZmlsbD0iIzY2NzI3YiIgaGVpZ2h0PSIxIiB3aWR0aD0iMSIgeT0iMTAiIHg9IjYiLz48cmVjdCBmaWxsPSIjOWViMWJlIiBoZWlnaHQ9IjEiIHdpZHRoPSIxIiB5PSI0IiB4PSI3Ii8+PHJlY3QgZmlsbD0iIzllYjFiZSIgaGVpZ2h0PSIxIiB3aWR0aD0iMSIgeT0iNSIgeD0iNyIvPjxyZWN0IGZpbGw9IiM5ZWIxYmUiIGhlaWdodD0iMSIgd2lkdGg9IjEiIHk9IjYiIHg9IjciLz48cmVjdCBmaWxsPSIjODM5MjlkIiBoZWlnaHQ9IjEiIHdpZHRoPSIxIiB5PSI3IiB4PSI3Ii8+PHJlY3QgZmlsbD0iIzhkOWRhOSIgaGVpZ2h0PSIxIiB3aWR0aD0iMSIgeT0iOCIgeD0iNyIvPjxyZWN0IGZpbGw9IiM3MTdlODgiIGhlaWdodD0iMSIgd2lkdGg9IjEiIHk9IjkiIHg9IjciLz48cmVjdCBmaWxsPSIjNWI2NjZlIiBoZWlnaHQ9IjEiIHdpZHRoPSIxIiB5PSIxMCIgeD0iNyIvPjxyZWN0IGZpbGw9IiMyNTE2MGQiIGhlaWdodD0iMSIgd2lkdGg9IjEiIHk9IjExIiB4PSI3Ii8+PHJlY3QgZmlsbD0iIzJmMWMxMCIgaGVpZ2h0PSIxIiB3aWR0aD0iMSIgeT0iMTIiIHg9IjciLz48cmVjdCBmaWxsPSIjMzMxZTEyIiBoZWlnaHQ9IjEiIHdpZHRoPSIxIiB5PSIxMyIgeD0iNyIvPjxyZWN0IGZpbGw9IiMzODIxMTMiIGhlaWdodD0iMSIgd2lkdGg9IjEiIHk9IjE0IiB4PSI3Ii8+PHJlY3QgZmlsbD0iIzMzMWUxMiIgaGVpZ2h0PSIxIiB3aWR0aD0iMSIgeT0iMTUiIHg9IjciLz48cmVjdCBmaWxsPSIjOGQ5ZGE5IiBoZWlnaHQ9IjEiIHdpZHRoPSIxIiB5PSI0IiB4PSI4Ii8+PHJlY3QgZmlsbD0iIzhkOWRhOSIgaGVpZ2h0PSIxIiB3aWR0aD0iMSIgeT0iNSIgeD0iOCIvPjxyZWN0IGZpbGw9IiNkNGUzZWMiIGhlaWdodD0iMSIgd2lkdGg9IjEiIHk9IjYiIHg9IjgiLz48cmVjdCBmaWxsPSIjZDRlM2VjIiBoZWlnaHQ9IjEiIHdpZHRoPSIxIiB5PSI3IiB4PSI4Ii8+PHJlY3QgZmlsbD0iIzcxN2U4OCIgaGVpZ2h0PSIxIiB3aWR0aD0iMSIgeT0iOCIgeD0iOCIvPjxyZWN0IGZpbGw9IiM2NjcyN2IiIGhlaWdodD0iMSIgd2lkdGg9IjEiIHk9IjkiIHg9IjgiLz48cmVjdCBmaWxsPSIjNWI2NjZlIiBoZWlnaHQ9IjEiIHdpZHRoPSIxIiB5PSIxMCIgeD0iOCIvPjxyZWN0IGZpbGw9IiMyYTE5MGUiIGhlaWdodD0iMSIgd2lkdGg9IjEiIHk9IjExIiB4PSI4Ii8+PHJlY3QgZmlsbD0iIzJlMWIxMCIgaGVpZ2h0PSIxIiB3aWR0aD0iMSIgeT0iMTIiIHg9IjgiLz48cmVjdCBmaWxsPSIjMzgyMTEzIiBoZWlnaHQ9IjEiIHdpZHRoPSIxIiB5PSIxMyIgeD0iOCIvPjxyZWN0IGZpbGw9IiMzMzFlMTIiIGhlaWdodD0iMSIgd2lkdGg9IjEiIHk9IjE0IiB4PSI4Ii8+PHJlY3QgZmlsbD0iIzJlMWIxMCIgaGVpZ2h0PSIxIiB3aWR0aD0iMSIgeT0iMTUiIHg9IjgiLz48cmVjdCBmaWxsPSIjZmZmZmZmIiBoZWlnaHQ9IjEiIHdpZHRoPSIxIiB5PSI0IiB4PSI5Ii8+PHJlY3QgZmlsbD0iIzhkOWRhOSIgaGVpZ2h0PSIxIiB3aWR0aD0iMSIgeT0iNSIgeD0iOSIvPjxyZWN0IGZpbGw9IiNmZmZmZmYiIGhlaWdodD0iMSIgd2lkdGg9IjEiIHk9IjYiIHg9IjkiLz48cmVjdCBmaWxsPSIjZDRlM2VjIiBoZWlnaHQ9IjEiIHdpZHRoPSIxIiB5PSI3IiB4PSI5Ii8+PHJlY3QgZmlsbD0iIzY2NzI3YiIgaGVpZ2h0PSIxIiB3aWR0aD0iMSIgeT0iOCIgeD0iOSIvPjxyZWN0IGZpbGw9IiM2NjcyN2IiIGhlaWdodD0iMSIgd2lkdGg9IjEiIHk9IjkiIHg9IjkiLz48cmVjdCBmaWxsPSIjNjY3MjdiIiBoZWlnaHQ9IjEiIHdpZHRoPSIxIiB5PSIxMCIgeD0iOSIvPjxyZWN0IGZpbGw9IiM4MzkyOWQiIGhlaWdodD0iMSIgd2lkdGg9IjEiIHk9IjUiIHg9IjEwIi8+PHJlY3QgZmlsbD0iIzgzOTI5ZCIgaGVpZ2h0PSIxIiB3aWR0aD0iMSIgeT0iNiIgeD0iMTAiLz48cmVjdCBmaWxsPSIjNzE3ZTg4IiBoZWlnaHQ9IjEiIHdpZHRoPSIxIiB5PSI3IiB4PSIxMCIvPjxyZWN0IGZpbGw9IiM2NjcyN2IiIGhlaWdodD0iMSIgd2lkdGg9IjEiIHk9IjgiIHg9IjEwIi8+PHJlY3QgZmlsbD0iIzcxN2U4OCIgaGVpZ2h0PSIxIiB3aWR0aD0iMSIgeT0iOSIgeD0iMTAiLz48cmVjdCBmaWxsPSIjNjY3MjdiIiBoZWlnaHQ9IjEiIHdpZHRoPSIxIiB5PSIxMCIgeD0iMTAiLz48cmVjdCBmaWxsPSIjOWJhZGJhIiBoZWlnaHQ9IjEiIHdpZHRoPSIxIiB5PSI4IiB4PSIxMSIvPjxyZWN0IGZpbGw9IiM3MTdlODgiIGhlaWdodD0iMSIgd2lkdGg9IjEiIHk9IjkiIHg9IjExIi8+PHJlY3QgZmlsbD0iIzViNjY2ZSIgaGVpZ2h0PSIxIiB3aWR0aD0iMSIgeT0iMTAiIHg9IjExIi8+PHJlY3QgZmlsbD0iIzcxN2U4OCIgaGVpZ2h0PSIxIiB3aWR0aD0iMSIgeT0iOCIgeD0iMTIiLz48cmVjdCBmaWxsPSIjNWI2NjZlIiBoZWlnaHQ9IjEiIHdpZHRoPSIxIiB5PSI5IiB4PSIxMiIvPjwvc3ZnPg==;spacing=0;labelPosition=center;align=center;" parent="1" vertex="1">
          <mxGeometry x="1040" y="240" width="80" height="80" as="geometry" />
        </mxCell>
      </root>
    </mxGraphModel>
  </diagram>
</mxfile>
